{
.appVersion = "1352";
DisplayStrings = (
"!\"#$%&'()*+,-.//\0120123456789:;<=>?\012@ABCDEFGHIJKLMNO\012PQRSTUVWXYZ[/backslash ]^_\012`abcdefghijklmno\012pqrstuvwxyz{|}~\012\012",
"And/space yet,/space the/space dawn/space is/space ours/space before/space we/space knew/space it.\012boys/space boys/space boys\012\012ab/c.002 defghijklmno\012pqrstuvwxyz",
"/a-hira/_cross/a-hira/ta-hira/a-hira/ta-hira \012/_cross/ta-hira/_cross \012/a-hira/_cross/a-hira/da-hira/da-hira \012\012"
);
copyright = "Copyright © 2019 by Coji Morishita. All rights reserved.";
customParameters = (
{
name = vendorID;
value = UFDN;
},
{
name = ROS;
value = "Adobe-Identity-0";
},
{
name = "Enforce Compatibility Check";
value = 1;
},
{
name = Axes;
value = (
{
Name = Weight;
Tag = wght;
}
);
},
{
name = "Use Typo Metrics";
value = 1;
},
{
name = note;
value = "%:    60% (Black +20, Thin 20, Medium +20)\012ord*: 80% (Black +10, Thin 20, Medium +10)\012*sup: 60% (Black +20, Thin 20, Medium +20)\012©®:   60% (Black +20, Thin 20, Medium +20)\012TM:   50% (Black +0~10, Thin 20, Medium +20)\012\012*sml: X100、Y-8、W80%、H80% (Black +20, Thin 20, Medium +6)\012\012full-width bracket pairs: X1000, Y720 Rotate180";
}
);
date = "2019-12-03 09:19:53 +0000";
designer = "Coji Morishita";
designerURL = "http://www.underforest.com";
familyName = "Mplus 1p";
featurePrefixes = (
{
automatic = 1;
code = "languagesystem DFLT dflt;\012\012languagesystem latn dflt;\012languagesystem latn AZE;\012languagesystem latn CRT;\012languagesystem latn KAZ;\012languagesystem latn TAT;\012languagesystem latn TRK;\012languagesystem latn ROM;\012languagesystem latn MOL;\012languagesystem latn CAT;\012";
name = Languagesystems;
}
);
features = (
{
automatic = 1;
code = "feature locl;\012feature sups;\012feature frac;\012feature ordn;\012feature pnum;\012feature tnum;\012feature case;\012feature fwid;\012feature vert;\012feature vkna;\012feature vrt2;\012";
name = aalt;
},
{
automatic = 1;

glyphs = (
{
color = 10;
glyphname = A;
lastChange = "2021-01-26 06:22:54 +0000";
layers = (
{
anchors = (
{
name = bottom;
position = "{341, 0}";
},
{
name = ogonek;
position = "{661, 0}";
},
{
name = top;
position = "{341, 730}";
},
{
name = top_ring;
position = "{341, 715}";
}
);
layerId = "D65C9A1E-0FCA-4B2D-8EDF-9F36CA9182A1";
leftMetricsKey = "=H*.2";
paths = (
{
closed = 1;
nodes = (
"43 0 LINE",
"340 711 LINE",
"342 711 LINE",
"639 0 LINE",
"661 0 LINE",
"355 730 LINE",
"327 730 LINE",
"21 0 LINE"
);
},
{
closed = 1;
nodes = (
"551 237 LINE",
"551 257 LINE",
"131 257 LINE",
"131 237 LINE"
);
}
);
width = 682;
},
{
anchors = (
{
name = bottom;
position = "{353, 0}";
},
{
name = ogonek;
position = "{693, 0}";
},
{
name = top;
position = "{353, 730}";
},
{
name = top_ring;
position = "{354, 690}";
}
);
layerId = "9527F797-22C1-480E-A1FE-2CDBEBE1FD4C";
paths = (
{
closed = 1;
nodes = (
"134 0 LINE",
"352 636 LINE",
"354 636 LINE",
"572 0 LINE",
"693 0 LINE",
"428 730 LINE",
"279 730 LINE",
"13 0 LINE"
);
},
{
closed = 1;
nodes = (
"556 183 LINE",
"556 283 LINE",
"151 283 LINE",
"151 183 LINE"
);
}
);
width = 706;
},
{
anchors = (
{
name = bottom;
position = "{367, 0}";
},
{
name = ogonek;
position = "{727, 0}";
},
{
name = top;
position = "{367, 730}";
},
{
name = top_ring;
position = "{368, 665}";
}
);
layerId = "9E6B41AB-2970-4C41-8B35-4DBE0D296A43";
leftMetricsKey = "=H*.1";
paths = (
{
closed = 1;
nodes = (
"227 0 LINE",
"366 560 LINE",
"368 560 LINE",
"507 0 LINE",
"727 0 LINE",
"502 730 LINE",
"232 730 LINE",
"7 0 LINE"
);
},
{
closed = 1;
nodes = (
"562 135 LINE",
"562 300 LINE",
"172 300 LINE",
"172 135 LINE"
);
}
);
width = 734;
}
);
leftKerningGroup = A;
leftMetricsKey = "=H*.15";
rightKerningGroup = A;
rightMetricsKey = "=|";
unicode = 0041;
},
{
color = 11;
glyphname = AE;
lastChange = "2021-01-22 08:14:35 +0000";
layers = (
{
anchors = (
{
name = bottom;
position = "{490, 0}";
},
{
name = top;
position = "{490, 730}";
}
);
layerId = "D65C9A1E-0FCA-4B2D-8EDF-9F36CA9182A1";
paths = (
{
closed = 1;
nodes = (
"44 0 LINE",
"459 710 LINE",
"471 710 LINE",
"471 0 LINE",
"831 0 LINE",
"831 20 LINE",
"491 20 LINE",
"491 380 LINE",
"808 380 LINE",
"808 400 LINE",
"491 400 LINE",
"491 710 LINE",
"831 710 LINE",
"831 730 LINE",
"448 730 LINE",
"21 0 LINE"
);
},
{
closed = 1;
nodes = (
"481 237 LINE",
"481 257 LINE",
"177 257 LINE",
"177 237 LINE"
);
}
);
width = 910;
},
{
anchors = (
{
name = bottom;
position = "{484, 0}";
},
{
name = top;
position = "{484, 730}";
}
);
layerId = "9527F797-22C1-480E-A1FE-2CDBEBE1FD4C";
paths = (
{
closed = 1;
nodes = (
"135 0 LINE",
"417 640 LINE",
"438 640 LINE",
"438 0 LINE",
"843 0 LINE",
"843 98 LINE",
"548 98 LINE",
"548 334 LINE",
"822 334 LINE",
"822 430 LINE",
"548 430 LINE",
"548 632 LINE",
"843 632 LINE",
"843 730 LINE",
"347 730 LINE",
"13 0 LINE"
);
},
{
closed = 1;
nodes = (
"498 183 LINE",
"498 283 LINE",
"169 283 LINE",
"169 183 LINE"
);
}
);
width = 911;
},
{
anchors = (
{
name = bottom;
position = "{480, 0}";
},
{
name = top;
position = "{480, 730}";
}
);
layerId = "9E6B41AB-2970-4C41-8B35-4DBE0D296A43";
paths = (
{
closed = 1;
nodes = (
"227 0 LINE",
"377 570 LINE",
"407 570 LINE",
"407 0 LINE",
"857 0 LINE",
"857 160 LINE",
"607 160 LINE",
"607 298 LINE",
"837 298 LINE",
"837 452 LINE",
"607 452 LINE",
"607 570 LINE",
"857 570 LINE",
"857 730 LINE",
"247 730 LINE",
"7 0 LINE"
);
},
{
closed = 1;
nodes = (
"517 135 LINE",
"517 300 LINE",
"162 300 LINE",
"162 135 LINE"
);
}
);
width = 912;
}
);
leftKerningGroup = A;
leftMetricsKey = "=A";
rightKerningGroup = E;
rightMetricsKey = "=E";
unicode = 00C6;
},
{
color = 10;
glyphname = B;
lastChange = "2021-01-22 08:14:34 +0000";
layers = (
{
layerId = "9527F797-22C1-480E-A1FE-2CDBEBE1FD4C";
rightMetricsKey = "=|*.45";
paths = (
{
closed = 1;
nodes = (
"345 0 LINE SMOOTH",
"553 0 OFFCURVE",
"655 67 OFFCURVE",
"655 205 CURVE SMOOTH",
"655 308 OFFCURVE",
"598 370 OFFCURVE",
"488 387 CURVE",
"488 389 LINE",
"575 407 OFFCURVE",
"625 466 OFFCURVE",
"625 553 CURVE SMOOTH",
"625 672 OFFCURVE",
"532 730 OFFCURVE",
"340 730 CURVE SMOOTH",
"85 730 LINE",
"85 0 LINE"
);
},
{
closed = 1;
nodes = (
"195 632 LINE",
"345 632 LINE SMOOTH",
"465 632 OFFCURVE",
"515 603 OFFCURVE",
"515 534 CURVE SMOOTH",
"515 463 OFFCURVE",
"462 430 OFFCURVE",
"345 430 CURVE SMOOTH",
"140 430 LINE",
"140 335 LINE",
"345 335 LINE SMOOTH",
"481 335 OFFCURVE",
"543 298 OFFCURVE",
"543 216 CURVE SMOOTH",
"543 134 OFFCURVE",
"482 98 OFFCURVE",
"345 98 CURVE SMOOTH",
"195 98 LINE"
);
}
);
width = 693;
},
{
layerId = "9E6B41AB-2970-4C41-8B35-4DBE0D296A43";
rightMetricsKey = "=|*.5";
paths = (
{
closed = 1;
nodes = (
"345 0 LINE SMOOTH",
"553 0 OFFCURVE",
"665 73 OFFCURVE",
"665 210 CURVE SMOOTH",
"665 310 OFFCURVE",
"606 370 OFFCURVE",
"495 384 CURVE",
"495 386 LINE",
"589 400 OFFCURVE",
"645 461 OFFCURVE",
"645 550 CURVE SMOOTH",
"645 668 OFFCURVE",
"538 730 OFFCURVE",
"335 730 CURVE SMOOTH",
"65 730 LINE",
"65 0 LINE"
);
},
{
closed = 1;
nodes = (
"265 575 LINE",
"345 575 LINE SMOOTH",
"418 575 OFFCURVE",
"445 558 OFFCURVE",
"445 512 CURVE SMOOTH",
"445 466 OFFCURVE",
"419 450 OFFCURVE",
"345 450 CURVE SMOOTH",
"165 450 LINE",
"165 300 LINE",
"345 300 LINE SMOOTH",
"425 300 OFFCURVE",
"460 278 OFFCURVE",
"460 228 CURVE SMOOTH",
"460 178 OFFCURVE",
"424 155 OFFCURVE",
"345 155 CURVE SMOOTH",
"265 155 LINE"
);
}
);
width = 698;
},
{
layerId = "D65C9A1E-0FCA-4B2D-8EDF-9F36CA9182A1";
rightMetricsKey = "=|*.4";
paths = (
{
closed = 1;
nodes = (
"345 0 LINE SMOOTH",
"549 0 OFFCURVE",
"645 63 OFFCURVE",
"645 200 CURVE SMOOTH",
"645 308 OFFCURVE",
"586 369 OFFCURVE",
"461 390 CURVE",
"461 392 LINE",
"557 414 OFFCURVE",
"605 467 OFFCURVE",
"605 555 CURVE SMOOTH",
"605 673 OFFCURVE",
"518 730 OFFCURVE",
"345 730 CURVE SMOOTH",
"105 730 LINE",
"105 0 LINE"
);
},
{
closed = 1;
nodes = (
"125 710 LINE",
"345 710 LINE SMOOTH",
"508 710 OFFCURVE",
"585 660 OFFCURVE",
"585 555 CURVE SMOOTH",
"585 450 OFFCURVE",
"508 400 OFFCURVE",
"345 400 CURVE SMOOTH",
"115 400 LINE",
"115 380 LINE",
"345 380 LINE SMOOTH",
"538 380 OFFCURVE",
"625 324 OFFCURVE",
"625 200 CURVE SMOOTH",
"625 76 OFFCURVE",
"538 20 OFFCURVE",
"345 20 CURVE SMOOTH",
"125 20 LINE"
);
}
);
width = 687;
}
);
leftKerningGroup = H;
leftMetricsKey = "=H";
rightKerningGroup = B;
rightMetricsKey = "=|*.5";
unicode = 0042;
},
{
color = 10;
glyphname = C;
lastChange = "2021-01-22 08:14:35 +0000";
layers = (
{
anchors = (
{
name = bottom;
position = "{411, 0}";
},
{
name = cedi;
position = "{327, 0}";
},
{
name = top;
position = "{411, 730}";
}
);
layerId = "D65C9A1E-0FCA-4B2D-8EDF-9F36CA9182A1";
paths = (
{
closed = 1;
nodes = (
"508 -10 OFFCURVE",
"586 12 OFFCURVE",
"653 55 CURVE",
"642 72 LINE",
"578 31 OFFCURVE",
"504 10 OFFCURVE",
"422 10 CURVE SMOOTH",
"210 10 OFFCURVE",
"73 150 OFFCURVE",
"73 365 CURVE SMOOTH",
"73 580 OFFCURVE",
"210 720 OFFCURVE",
"422 720 CURVE SMOOTH",
"504 720 OFFCURVE",
"578 699 OFFCURVE",
"642 658 CURVE",
"653 675 LINE",
"586 718 OFFCURVE",
"508 740 OFFCURVE",
"422 740 CURVE SMOOTH",
"199 740 OFFCURVE",
"53 591 OFFCURVE",
"53 365 CURVE SMOOTH",
"53 139 OFFCURVE",
"199 -10 OFFCURVE",
"422 -10 CURVE SMOOTH"
);
}
);
width = 716;
},
{
anchors = (
{
name = bottom;
position = "{405, 0}";
},
{
name = cedi;
position = "{320, 0}";
},
{
name = top;
position = "{405, 730}";
}
);
layerId = "9527F797-22C1-480E-A1FE-2CDBEBE1FD4C";
paths = (
{
closed = 1;
nodes = (
"512 -10 OFFCURVE",
"593 10 OFFCURVE",
"663 50 CURVE",
"636 148 LINE",
"566 109 OFFCURVE",
"498 90 OFFCURVE",
"427 90 CURVE SMOOTH",
"260 90 OFFCURVE",
"157 194 OFFCURVE",
"157 365 CURVE SMOOTH",
"157 536 OFFCURVE",
"260 640 OFFCURVE",
"427 640 CURVE SMOOTH",
"499 640 OFFCURVE",
"568 621 OFFCURVE",
"636 582 CURVE",
"663 680 LINE",
"593 720 OFFCURVE",
"512 740 OFFCURVE",
"423 740 CURVE SMOOTH",
"186 740 OFFCURVE",
"43 599 OFFCURVE",
"43 365 CURVE SMOOTH",
"43 131 OFFCURVE",
"186 -10 OFFCURVE",
"423 -10 CURVE SMOOTH"
);
}
);
width = 714;
},
{
anchors = (
{
name = bottom;
position = "{399, 0}";
},
{
name = cedi;
position = "{314, 0}";
},
{
name = top;
position = "{399, 730}";
}
);
layerId = "9E6B41AB-2970-4C41-8B35-4DBE0D296A43";
paths = (
{
closed = 1;
nodes = (
"517 -10 OFFCURVE",
"600 8 OFFCURVE",
"673 46 CURVE",
"630 216 LINE",
"558 178 OFFCURVE",
"492 160 OFFCURVE",
"432 160 CURVE SMOOTH",
"310 160 OFFCURVE",
"241 234 OFFCURVE",
"241 365 CURVE SMOOTH",
"241 496 OFFCURVE",
"310 570 OFFCURVE",
"432 570 CURVE SMOOTH",
"492 570 OFFCURVE",
"558 552 OFFCURVE",
"630 514 CURVE",
"673 684 LINE",
"600 722 OFFCURVE",
"517 740 OFFCURVE",
"424 740 CURVE SMOOTH",
"173 740 OFFCURVE",
"33 606 OFFCURVE",
"33 365 CURVE SMOOTH",
"33 124 OFFCURVE",
"173 -10 OFFCURVE",
"424 -10 CURVE SMOOTH"
);
}
);
width = 712;
}
);
leftKerningGroup = O;
leftMetricsKey = "=O";
rightKerningGroup = C;
rightMetricsKey = "=H*.6";
unicode = 0043;
},
{
color = 10;
glyphname = D;
lastChange = "2021-01-22 08:14:35 +0000";
layers = (
{
anchors = (
{
name = bottom;
position = "{361, 0}";
},
{
name = center;
position = "{361, 365}";
},
{
name = top;
position = "{361, 730}";
}
);
layerId = "D65C9A1E-0FCA-4B2D-8EDF-9F36CA9182A1";
paths = (
{
closed = 1;
nodes = (
"275 0 LINE SMOOTH",
"530 0 OFFCURVE",
"665 126 OFFCURVE",
"665 365 CURVE SMOOTH",
"665 604 OFFCURVE",
"530 730 OFFCURVE",
"275 730 CURVE SMOOTH",
"105 730 LINE",
"105 0 LINE"
);
},
{
closed = 1;
nodes = (
"125 710 LINE",
"275 710 LINE SMOOTH",
"520 710 OFFCURVE",
"645 592 OFFCURVE",
"645 365 CURVE SMOOTH",
"645 138 OFFCURVE",
"520 20 OFFCURVE",
"275 20 CURVE SMOOTH",
"125 20 LINE"
);
}
);
width = 718;
},
{
anchors = (
{
name = bottom;
position = "{360, 0}";
},
{
name = center;
position = "{360, 365}";
},
{
name = top;
position = "{360, 730}";
}
);
background = {
anchors = (
{
name = bottom;
position = "{348, 0}";
},
{
name = center;
position = "{348, 365}";
},
{
name = top;
position = "{348, 730}";
}
);
paths = (
{
closed = 1;
nodes = (
"280 0 LINE SMOOTH",
"531 0 OFFCURVE",
"650 117 OFFCURVE",
"650 365 CURVE SMOOTH",
"650 613 OFFCURVE",
"531 730 OFFCURVE",
"280 730 CURVE SMOOTH",
"85 730 LINE",
"85 0 LINE"
);
},
{
closed = 1;
nodes = (
"195 630 LINE",
"287 630 LINE SMOOTH",
"464 630 OFFCURVE",
"538 552 OFFCURVE",
"538 365 CURVE SMOOTH",
"538 178 OFFCURVE",
"464 100 OFFCURVE",
"287 100 CURVE SMOOTH",
"195 100 LINE"
);
}
);
};
layerId = "9527F797-22C1-480E-A1FE-2CDBEBE1FD4C";
paths = (
{
closed = 1;
nodes = (
"295 0 LINE SMOOTH",
"552 0 OFFCURVE",
"675 118 OFFCURVE",
"675 365 CURVE SMOOTH",
"675 612 OFFCURVE",
"552 730 OFFCURVE",
"295 730 CURVE SMOOTH",
"85 730 LINE",
"85 0 LINE"
);
},
{
closed = 1;
nodes = (
"195 630 LINE",
"302 630 LINE SMOOTH",
"484 630 OFFCURVE",
"563 550 OFFCURVE",
"563 365 CURVE SMOOTH",
"563 180 OFFCURVE",
"484 100 OFFCURVE",
"302 100 CURVE SMOOTH",
"195 100 LINE"
);
}
);
width = 718;
},
{
anchors = (
{
name = bottom;
position = "{359, 0}";
},
{
name = center;
position = "{359, 365}";
},
{
name = top;
position = "{359, 730}";
}
);
layerId = "9E6B41AB-2970-4C41-8B35-4DBE0D296A43";
paths = (
{
closed = 1;
nodes = (
"315 0 LINE SMOOTH",
"574 0 OFFCURVE",
"685 109 OFFCURVE",
"685 365 CURVE SMOOTH",
"685 621 OFFCURVE",
"574 730 OFFCURVE",
"315 730 CURVE",
"65 730 LINE",
"65 0 LINE"
);
},
{
closed = 1;
nodes = (
"265 570 LINE",
"328 570 LINE SMOOTH",
"446 570 OFFCURVE",
"480 524 OFFCURVE",
"480 365 CURVE SMOOTH",
"480 206 OFFCURVE",
"446 160 OFFCURVE",
"328 160 CURVE SMOOTH",
"265 160 LINE"
);
}
);
width = 718;
}
);
leftKerningGroup = H;
leftMetricsKey = "=H";
rightKerningGroup = O;
rightMetricsKey = "=O";
unicode = 0044;
},
{
color = 11;
glyphname = Eth;
lastChange = "2021-01-24 11:31:25 +0000";
layers = (
{
anchors = (
{
name = bottom;
position = "{386, 0}";
},
{
name = center;
position = "{386, 365}";
},
{
name = top;
position = "{386, 730}";
}
);
components = (
{
name = D;
transform = "{1, 0, 0, 1, 50, 0}";
}
);
layerId = "D65C9A1E-0FCA-4B2D-8EDF-9F36CA9182A1";
paths = (
{
closed = 1;
nodes = (
"445 355 LINE",
"445 375 LINE",
"35 375 LINE",
"35 355 LINE"
);
}
);
width = 768;
},
{
anchors = (
{
name = bottom;
position = "{399, 0}";
},
{
name = center;
position = "{399, 365}";
},
{
name = top;
position = "{399, 730}";
}
);
components = (
{
alignment = -1;
name = D;
transform = "{1, 0, 0, 1, 56, 0}";
}
);
layerId = "9527F797-22C1-480E-A1FE-2CDBEBE1FD4C";
paths = (
{
closed = 1;
nodes = (
"446 320 LINE",
"446 410 LINE",
"28 410 LINE",
"28 320 LINE"
);
}
);
width = 774;
},
{
anchors = (
{
name = bottom;
position = "{411, 0}";
},
{
name = center;
position = "{411, 365}";
},
{
name = top;
position = "{411, 730}";
}
);
components = (
{
name = D;
transform = "{1, 0, 0, 1, 62, 0}";
}
);
layerId = "9E6B41AB-2970-4C41-8B35-4DBE0D296A43";
paths = (
{
closed = 1;
nodes = (
"448 295 LINE",
"448 435 LINE",
"22 435 LINE",
"22 295 LINE"
);
}
);
width = 780;
}
);
leftKerningGroup = f;
leftMetricsKey = "=f*1.2";
rightKerningGroup = O;
rightMetricsKey = "=O";
unicode = 00D0;
},
{
color = 10;
glyphname = E;
lastChange = "2021-01-22 08:14:34 +0000";
layers = (
{
anchors = (
{
name = bottom;
position = "{351, 0}";
},
{
name = ogonek;
position = "{585, 0}";
},
{
name = top;
position = "{351, 730}";
},
{
name = topleft;
position = "{13, 730}";
}
);
layerId = "D65C9A1E-0FCA-4B2D-8EDF-9F36CA9182A1";
rightMetricsKey = "=H*.75";
paths = (
{
closed = 1;
nodes = (
"585 0 LINE",
"585 20 LINE",
"125 20 LINE",
"125 380 LINE",
"565 380 LINE",
"565 400 LINE",
"125 400 LINE",
"125 710 LINE",
"585 710 LINE",
"585 730 LINE",
"105 730 LINE",
"105 0 LINE"
);
}
);
width = 664;
},
{
anchors = (
{
name = bottom;
position = "{343, 0}";
},
{
name = ogonek;
position = "{595, 0}";
},
{
name = top;
position = "{343, 730}";
},
{
name = topleft;
position = "{19, 730}";
}
);
layerId = "9527F797-22C1-480E-A1FE-2CDBEBE1FD4C";
rightMetricsKey = "=H*.8";
paths = (
{
closed = 1;
nodes = (
"595 0 LINE",
"595 98 LINE",
"195 98 LINE",
"195 334 LINE",
"575 334 LINE",
"575 430 LINE",
"195 430 LINE",
"195 632 LINE",
"595 632 LINE",
"595 730 LINE",
"85 730 LINE",
"85 0 LINE"
);
}
);
width = 663;
},
{
anchors = (
{
name = bottom;
position = "{335, 0}";
},
{
name = ogonek;
position = "{605, 0}";
},
{
name = top;
position = "{335, 730}";
},
{
name = topleft;
position = "{20, 730}";
}
);
layerId = "9E6B41AB-2970-4C41-8B35-4DBE0D296A43";
rightMetricsKey = "=H*.85";
paths = (
{
closed = 1;
nodes = (
"605 0 LINE",
"605 160 LINE",
"265 160 LINE",
"265 298 LINE",
"585 298 LINE",
"585 452 LINE",
"265 452 LINE",
"265 570 LINE",
"605 570 LINE",
"605 730 LINE",
"65 730 LINE",
"65 0 LINE"
);
}
);
width = 660;
}
);
leftKerningGroup = H;
leftMetricsKey = "=H";
rightKerningGroup = E;
rightMetricsKey = "=H*.85";
unicode = 0045;
},
{
color = 10;
glyphname = F;
lastChange = "2021-01-22 08:14:34 +0000";
layers = (
{
layerId = "D65C9A1E-0FCA-4B2D-8EDF-9F36CA9182A1";
rightMetricsKey = "=H*.55";
paths = (
{
closed = 1;
nodes = (
"125 0 LINE",
"125 355 LINE",
"565 355 LINE",
"565 375 LINE",
"125 375 LINE",
"125 710 LINE",
"585 710 LINE",
"585 730 LINE",
"105 730 LINE",
"105 0 LINE"
);
}
);
width = 643;
},
{
layerId = "9527F797-22C1-480E-A1FE-2CDBEBE1FD4C";
rightMetricsKey = "=H*.65";
paths = (
{
closed = 1;
nodes = (
"195 0 LINE",
"195 309 LINE",
"575 309 LINE",
"575 407 LINE",
"195 407 LINE",
"195 630 LINE",
"595 630 LINE",
"595 730 LINE",
"85 730 LINE",
"85 0 LINE"
);
}
);
width = 650;
},
{
layerId = "9E6B41AB-2970-4C41-8B35-4DBE0D296A43";
rightMetricsKey = "=H*.75";
paths = (
{
closed = 1;
nodes = (
"265 0 LINE",
"265 270 LINE",
"585 270 LINE",
"585 430 LINE",
"265 430 LINE",
"265 565 LINE",
"605 565 LINE",
"605 730 LINE",
"65 730 LINE",
"65 0 LINE"
);
}
);
width = 654;
}
);
leftKerningGroup = H;
leftMetricsKey = "=H";
rightKerningGroup = F;
rightMetricsKey = "=H*.75";
unicode = 0046;
},
{
color = 10;
glyphname = G;
lastChange = "2021-01-22 08:14:35 +0000";
layers = (
{
anchors = (
{
name = bottom;
position = "{431, 0}";
},
{
name = top;
position = "{431, 730}";
}
);
layerId = "D65C9A1E-0FCA-4B2D-8EDF-9F36CA9182A1";
paths = (
{
closed = 1;
nodes = (
"552 -10 OFFCURVE",
"660 11 OFFCURVE",
"733 44 CURVE",
"733 400 LINE",
"353 400 LINE",
"353 380 LINE",
"713 380 LINE",
"713 45 LINE",
"725 62 LINE",
"654 30 OFFCURVE",
"549 10 OFFCURVE",
"455 10 CURVE SMOOTH",
"215 10 OFFCURVE",
"73 142 OFFCURVE",
"73 365 CURVE SMOOTH",
"73 582 OFFCURVE",
"221 720 OFFCURVE",
"455 720 CURVE SMOOTH",
"544 720 OFFCURVE",
"630 700 OFFCURVE",
"695 663 CURVE",
"705 680 LINE",
"638 718 OFFCURVE",
"549 740 OFFCURVE",
"455 740 CURVE SMOOTH",
"216 740 OFFCURVE",
"53 599 OFFCURVE",
"53 365 CURVE SMOOTH",
"53 131 OFFCURVE",
"204 -10 OFFCURVE",
"455 -10 CURVE SMOOTH"
);
}
);
width = 822;
},
{
anchors = (
{
name = bottom;
position = "{426, 0}";
},
{
name = top;
position = "{426, 730}";
}
);
layerId = "9527F797-22C1-480E-A1FE-2CDBEBE1FD4C";
paths = (
{
closed = 1;
nodes = (
"559 -10 OFFCURVE",
"667 11 OFFCURVE",
"743 47 CURVE",
"743 426 LINE",
"358 426 LINE",
"358 332 LINE",
"633 332 LINE",
"633 88 LINE",
"650 127 LINE",
"597 103 OFFCURVE",
"528 90 OFFCURVE",
"458 90 CURVE SMOOTH",
"266 90 OFFCURVE",
"156 190 OFFCURVE",
"156 365 CURVE SMOOTH",
"156 538 OFFCURVE",
"266 640 OFFCURVE",
"452 640 CURVE SMOOTH",
"533 640 OFFCURVE",
"616 621 OFFCURVE",
"679 587 CURVE",
"705 682 LINE",
"637 720 OFFCURVE",
"548 740 OFFCURVE",
"452 740 CURVE SMOOTH",
"198 740 OFFCURVE",
"43 598 OFFCURVE",
"43 365 CURVE SMOOTH",
"43 131 OFFCURVE",
"199 -10 OFFCURVE",
"458 -10 CURVE SMOOTH"
);
}
);
width = 815;
},
{
anchors = (
{
name = bottom;
position = "{422, 0}";
},
{
name = top;
position = "{422, 730}";
}
);
layerId = "9E6B41AB-2970-4C41-8B35-4DBE0D296A43";
paths = (
{
closed = 1;
nodes = (
"569 -10 OFFCURVE",
"676 12 OFFCURVE",
"753 50 CURVE",
"753 452 LINE",
"363 452 LINE",
"363 287 LINE",
"553 287 LINE",
"553 131 LINE",
"576 177 LINE",
"538 161 OFFCURVE",
"505 155 OFFCURVE",
"461 155 CURVE SMOOTH",
"313 155 OFFCURVE",
"238 225 OFFCURVE",
"238 365 CURVE SMOOTH",
"238 503 OFFCURVE",
"311 575 OFFCURVE",
"450 575 CURVE SMOOTH",
"523 575 OFFCURVE",
"604 556 OFFCURVE",
"664 524 CURVE",
"706 684 LINE",
"639 720 OFFCURVE",
"548 740 OFFCURVE",
"450 740 CURVE SMOOTH",
"188 740 OFFCURVE",
"33 601 OFFCURVE",
"33 365 CURVE SMOOTH",
"33 129 OFFCURVE",
"191 -10 OFFCURVE",
"461 -10 CURVE SMOOTH"
);
}
);
width = 808;
}
);
leftKerningGroup = O;
leftMetricsKey = "=O";
rightKerningGroup = G;
rightMetricsKey = "=H*.85";
unicode = 0047;
},
{
color = 10;
glyphname = H;
lastChange = "2021-01-22 08:13:48 +0000";
layers = (
{
anchors = (
{
name = bottom;
position = "{380, 0}";
},
{
name = center;
position = "{380, 365}";
},
{
name = top;
position = "{380, 730}";
},
{
name = topleft;
position = "{30, 730}";
}
);
layerId = "D65C9A1E-0FCA-4B2D-8EDF-9F36CA9182A1";
paths = (
{
closed = 1;
nodes = (
"655 0 LINE",
"655 730 LINE",
"635 730 LINE",
"635 0 LINE"
);
},
{
closed = 1;
nodes = (
"125 0 LINE",
"125 730 LINE",
"105 730 LINE",
"105 0 LINE"
);
},
{
closed = 1;
nodes = (
"645 380 LINE",
"645 400 LINE",
"115 400 LINE",
"115 380 LINE"
);
}
);
width = 760;
},
{
anchors = (
{
name = bottom;
position = "{380, 0}";
},
{
name = center;
position = "{380, 365}";
},
{
name = top;
position = "{380, 730}";
},
{
name = topleft;
position = "{25, 730}";
}
);
layerId = "9527F797-22C1-480E-A1FE-2CDBEBE1FD4C";
paths = (
{
closed = 1;
nodes = (
"675 0 LINE",
"675 730 LINE",
"565 730 LINE",
"565 0 LINE"
);
},
{
closed = 1;
nodes = (
"195 0 LINE",
"195 730 LINE",
"85 730 LINE",
"85 0 LINE"
);
},
{
closed = 1;
nodes = (
"620 332 LINE",
"620 432 LINE",
"140 432 LINE",
"140 332 LINE"
);
}
);
width = 760;
},
{
anchors = (
{
name = bottom;
position = "{380, 0}";
},
{
name = center;
position = "{380, 365}";
},
{
name = top;
position = "{380, 730}";
},
{
name = topleft;
position = "{20, 730}";
}
);
layerId = "9E6B41AB-2970-4C41-8B35-4DBE0D296A43";
paths = (
{
closed = 1;
nodes = (
"695 0 LINE",
"695 730 LINE",
"495 730 LINE",
"495 0 LINE"
);
},
{
closed = 1;
nodes = (
"265 0 LINE",
"265 730 LINE",
"65 730 LINE",
"65 0 LINE"
);
},
{
closed = 1;
nodes = (
"595 290 LINE",
"595 460 LINE",
"165 460 LINE",
"165 290 LINE"
);
}
);
width = 760;
}
);
leftKerningGroup = H;
rightKerningGroup = H;
rightMetricsKey = "=|";
unicode = 0048;
},
{
color = 11;
glyphname = Hbar;
lastChange = "2021-01-22 08:14:35 +0000";
layers = (
{
components = (
{
name = H;
transform = "{1, 0, 0, 1, 34, 0}";
}
);
layerId = "D65C9A1E-0FCA-4B2D-8EDF-9F36CA9182A1";
paths = (
{
closed = 1;
nodes = (
"774 586 LINE",
"774 606 LINE",
"34 606 LINE",
"34 586 LINE"
);
}
);
width = 808;
},
{
components = (
{
alignment = -1;
name = H;
transform = "{1, 0, 0, 1, 42, 0}";
}
);
layerId = "9527F797-22C1-480E-A1FE-2CDBEBE1FD4C";
paths = (
{
closed = 1;
nodes = (
"804 551 LINE",
"804 641 LINE",
"30 641 LINE",
"30 551 LINE"
);
}
);
width = 834;
},
{
components = (
{
name = H;
transform = "{1, 0, 0, 1, 53, 0}";
}
);
layerId = "9E6B41AB-2970-4C41-8B35-4DBE0D296A43";
paths = (
{
closed = 1;
nodes = (
"838 526 LINE",
"838 666 LINE",
"28 666 LINE",
"28 526 LINE"
);
}
);
width = 866;
}
);
leftKerningGroup = W;
leftMetricsKey = "=W";
rightKerningGroup = W;
rightMetricsKey = "=|";
unicode = 0126;
},
{
color = 10;
glyphname = I;
lastChange = "2021-01-22 08:14:34 +0000";
layers = (
{
anchors = (
{
name = bottom;
position = "{126, 0}";
},
{
name = ogonek;
position = "{136, 0}";
},
{
name = top;
position = "{126, 730}";
},
{
name = topleft;
position = "{31, 730}";
}
);
layerId = "D65C9A1E-0FCA-4B2D-8EDF-9F36CA9182A1";
paths = (
{
closed = 1;
nodes = (
"136 0 LINE",
"136 730 LINE",
"116 730 LINE",
"116 0 LINE"
);
}
);
width = 252;
},
{
anchors = (
{
name = bottom;
position = "{151, 0}";
},
{
name = ogonek;
position = "{208, 0}";
},
{
name = top;
position = "{151, 730}";
},
{
name = topleft;
position = "{26, 730}";
}
);
layerId = "9527F797-22C1-480E-A1FE-2CDBEBE1FD4C";
paths = (
{
closed = 1;
nodes = (
"208 0 LINE",
"208 730 LINE",
"94 730 LINE",
"94 0 LINE"
);
}
);
width = 302;
},
{
anchors = (
{
name = bottom;
position = "{176, 0}";
},
{
name = ogonek;
position = "{281, 0}";
},
{
name = top;
position = "{176, 730}";
},
{
name = topleft;
position = "{19, 730}";
}
);
layerId = "9E6B41AB-2970-4C41-8B35-4DBE0D296A43";
paths = (
{
closed = 1;
nodes = (
"281 0 LINE",
"281 730 LINE",
"71 730 LINE",
"71 0 LINE"
);
}
);
width = 352;
}
);
leftKerningGroup = I;
leftMetricsKey = "=H*1.1";
rightKerningGroup = I;
rightMetricsKey = "=|";
unicode = 0049;
},
{
color = 10;
glyphname = J;
lastChange = "2021-01-22 08:14:35 +0000";
layers = (
{
anchors = (
{
name = bottom;
position = "{302, 0}";
},
{
name = top;
position = "{302, 730}";
}
);
layerId = "D65C9A1E-0FCA-4B2D-8EDF-9F36CA9182A1";
leftMetricsKey = "=H*.15";
paths = (
{
closed = 1;
nodes = (
"428 -10 OFFCURVE",
"516 85 OFFCURVE",
"516 280 CURVE SMOOTH",
"516 730 LINE",
"496 730 LINE",
"496 280 LINE SMOOTH",
"496 96 OFFCURVE",
"417 10 OFFCURVE",
"248 10 CURVE SMOOTH",
"164 10 OFFCURVE",
"84 31 OFFCURVE",
"27 67 CURVE",
"16 50 LINE",
"76 12 OFFCURVE",
"161 -10 OFFCURVE",
"248 -10 CURVE SMOOTH"
);
}
);
width = 611;
},
{
anchors = (
{
name = bottom;
position = "{296, 0}";
},
{
name = top;
position = "{296, 730}";
}
);
layerId = "9527F797-22C1-480E-A1FE-2CDBEBE1FD4C";
leftMetricsKey = "=H*.1";
paths = (
{
closed = 1;
nodes = (
"436 -10 OFFCURVE",
"528 83 OFFCURVE",
"528 280 CURVE SMOOTH",
"528 730 LINE",
"415 730 LINE",
"415 280 LINE SMOOTH",
"415 152 OFFCURVE",
"356 90 OFFCURVE",
"236 90 CURVE SMOOTH",
"172 90 OFFCURVE",
"98 108 OFFCURVE",
"28 140 CURVE",
"8 40 LINE",
"76 7 OFFCURVE",
"158 -10 OFFCURVE",
"242 -10 CURVE SMOOTH"
);
}
);
width = 605;
},
{
anchors = (
{
name = bottom;
position = "{294, 0}";
},
{
name = top;
position = "{294, 730}";
}
);
layerId = "9E6B41AB-2970-4C41-8B35-4DBE0D296A43";
leftMetricsKey = "=H*.05";
paths = (
{
closed = 1;
nodes = (
"451 -10 OFFCURVE",
"543 78 OFFCURVE",
"543 280 CURVE SMOOTH",
"543 730 LINE",
"338 730 LINE",
"338 280 LINE SMOOTH",
"338 203 OFFCURVE",
"301 165 OFFCURVE",
"227 165 CURVE SMOOTH",
"184 165 OFFCURVE",
"111 178 OFFCURVE",
"33 199 CURVE",
"3 29 LINE",
"75 4 OFFCURVE",
"158 -10 OFFCURVE",
"240 -10 CURVE SMOOTH"
);
}
);
width = 602;
}
);
leftKerningGroup = J;
leftMetricsKey = "=H*.05";
rightKerningGroup = U;
rightMetricsKey = "=U";
unicode = 004A;
},
{
color = 10;
glyphname = K;
lastChange = "2021-01-22 08:14:34 +0000";
layers = (
{
anchors = (
{
name = bottom;
position = "{320, 0}";
},
{
name = top;
position = "{320, 730}";
}
);
layerId = "D65C9A1E-0FCA-4B2D-8EDF-9F36CA9182A1";
rightMetricsKey = "=H*.3";
paths = (
{
closed = 1;
nodes = (
"125 0 LINE",
"125 376 LINE",
"127 376 LINE",
"613 0 LINE",
"645 0 LINE",
"141 390 LINE",
"635 730 LINE",
"601 730 LINE",
"127 404 LINE",
"125 404 LINE",
"125 730 LINE",
"105 730 LINE",
"105 0 LINE"
);
}
);
width = 677;
},
{
anchors = (
{
name = bottom;
position = "{338, 0}";
},
{
name = top;
position = "{338, 730}";
}
);
layerId = "9527F797-22C1-480E-A1FE-2CDBEBE1FD4C";
rightMetricsKey = "=H*.25";
paths = (
{
closed = 1;
nodes = (
"195 0 LINE",
"195 351 LINE",
"197 351 LINE",
"545 0 LINE",
"685 0 LINE",
"306 382 LINE",
"675 730 LINE",
"535 730 LINE",
"197 413 LINE",
"195 413 LINE",
"195 730 LINE",
"85 730 LINE",
"85 0 LINE"
);
}
);
width = 706;
},
{
anchors = (
{
name = bottom;
position = "{355, 0}";
},
{
name = top;
position = "{355, 730}";
}
);
layerId = "9E6B41AB-2970-4C41-8B35-4DBE0D296A43";
rightMetricsKey = "=H*.2";
paths = (
{
closed = 1;
nodes = (
"265 0 LINE",
"265 335 LINE",
"267 335 LINE",
"495 0 LINE",
"725 0 LINE",
"470 375 LINE",
"715 730 LINE",
"485 730 LINE",
"267 415 LINE",
"265 415 LINE",
"265 730 LINE",
"65 730 LINE",
"65 0 LINE"
);
}
);
width = 738;
}
);
leftKerningGroup = H;
leftMetricsKey = "=H";
rightKerningGroup = K;
rightMetricsKey = "=H*.2";
unicode = 004B;
},
{
color = 10;
glyphname = L;
lastChange = "2021-01-22 08:14:34 +0000";
layers = (
{
anchors = (
{
name = bottom;
position = "{322, 0}";
},
{
name = center;
position = "{322, 375}";
},
{
name = pdcenter;
position = "{525, 375}";
},
{
name = top;
position = "{322, 730}";
},
{
name = topright;
position = "{593, 730}";
}
);
layerId = "D65C9A1E-0FCA-4B2D-8EDF-9F36CA9182A1";
rightMetricsKey = "=H*.5";
paths = (
{
closed = 1;
nodes = (
"585 0 LINE",
"585 20 LINE",
"125 20 LINE",
"125 730 LINE",
"105 730 LINE",
"105 0 LINE"
);
}
);
width = 638;
},
{
anchors = (
{
name = bottom;
position = "{318, 0}";
},
{
name = center;
position = "{318, 375}";
},
{
name = pdcenter;
position = "{565, 375}";
},
{
name = top;
position = "{318, 730}";
},
{
name = topright;
position = "{611, 730}";
}
);
layerId = "9527F797-22C1-480E-A1FE-2CDBEBE1FD4C";
rightMetricsKey = "=H*.45";
paths = (
{
closed = 1;
nodes = (
"595 0 LINE",
"595 100 LINE",
"198 100 LINE",
"198 730 LINE",
"85 730 LINE",
"85 0 LINE"
);
}
);
width = 633;
},
{
anchors = (
{
name = bottom;
position = "{316, 0}";
},
{
name = center;
position = "{316, 375}";
},
{
name = pdcenter;
position = "{605, 375}";
},
{
name = top;
position = "{316, 730}";
},
{
name = topright;
position = "{611, 730}";
}
);
layerId = "9E6B41AB-2970-4C41-8B35-4DBE0D296A43";
rightMetricsKey = "=H*.4";
paths = (
{
closed = 1;
nodes = (
"605 0 LINE",
"605 170 LINE",
"270 170 LINE",
"270 730 LINE",
"65 730 LINE",
"65 0 LINE"
);
}
);
width = 631;
}
);
leftKerningGroup = H;
leftMetricsKey = "=H";
rightKerningGroup = L;
rightMetricsKey = "=H*.4";
unicode = 004C;
},
{
color = 11;
glyphname = Lslash;
lastChange = "2021-01-26 09:03:38 +0000";
layers = (
{
components = (
{
name = L;
transform = "{1, 0, 0, 1, 83, 0}";
}
);
layerId = "D65C9A1E-0FCA-4B2D-8EDF-9F36CA9182A1";
paths = (
{
closed = 1;
nodes = (
"357 431 LINE",
"349 449 LINE",
"19 299 LINE",
"27 281 LINE"
);
}
);
width = 721;
},
{
components = (
{
name = L;
transform = "{1, 0, 0, 1, 89, 0}";
}
);
layerId = "9527F797-22C1-480E-A1FE-2CDBEBE1FD4C";
paths = (
{
closed = 1;
nodes = (
"445 407 LINE",
"409 491 LINE",
"9 323 LINE",
"45 239 LINE"
);
}
);
width = 722;
},
{
components = (
{
name = L;
transform = "{1, 0, 0, 1, 99, 0}";
}
);
layerId = "9E6B41AB-2970-4C41-8B35-4DBE0D296A43";
paths = (
{
closed = 1;
nodes = (
"531 393 LINE",
"476 523 LINE",
"7 337 LINE",
"62 207 LINE"
);
}
);
width = 730;
}
);
leftKerningGroup = t;
leftMetricsKey = "=t*.5";
rightKerningGroup = L;
rightMetricsKey = "=L";
unicode = 0141;
},
{
color = 10;
glyphname = M;
lastChange = "2021-01-22 08:14:34 +0000";
layers = (
{
layerId = "D65C9A1E-0FCA-4B2D-8EDF-9F36CA9182A1";
paths = (
{
closed = 1;
nodes = (
"125 0 LINE",
"125 709 LINE",
"127 709 LINE",
"423 155 LINE",
"447 155 LINE",
"743 709 LINE",
"745 709 LINE",
"745 0 LINE",
"765 0 LINE",
"765 730 LINE",
"734 730 LINE",
"436 174 LINE",
"434 174 LINE",
"136 730 LINE",
"105 730 LINE",
"105 0 LINE"
);
}
);
width = 870;
},
{
layerId = "9527F797-22C1-480E-A1FE-2CDBEBE1FD4C";
paths = (
{
closed = 1;
nodes = (
"195 0 LINE",
"195 555 LINE",
"197 555 LINE",
"388 155 LINE",
"492 155 LINE",
"683 555 LINE",
"685 555 LINE",
"685 0 LINE",
"795 0 LINE",
"795 730 LINE",
"655 730 LINE",
"441 283 LINE",
"439 283 LINE",
"225 730 LINE",
"85 730 LINE",
"85 0 LINE"
);
}
);
width = 880;
},
{
layerId = "9E6B41AB-2970-4C41-8B35-4DBE0D296A43";
paths = (
{
closed = 1;
nodes = (
"265 0 LINE",
"265 420 LINE",
"267 420 LINE",
"355 155 LINE",
"535 155 LINE",
"623 420 LINE",
"625 420 LINE",
"625 0 LINE",
"825 0 LINE",
"825 730 LINE",
"577 730 LINE",
"446 340 LINE",
"444 340 LINE",
"313 730 LINE",
"65 730 LINE",
"65 0 LINE"
);
}
);
width = 890;
}
);
leftKerningGroup = H;
leftMetricsKey = "=H";
rightKerningGroup = H;
rightMetricsKey = "=|";
unicode = 004D;
},
{
color = 10;
glyphname = N;
lastChange = "2021-01-22 08:14:34 +0000";
layers = (
{
anchors = (
{
name = bottom;
position = "{375, 0}";
},
{
name = top;
position = "{375, 730}";
}
);
layerId = "D65C9A1E-0FCA-4B2D-8EDF-9F36CA9182A1";
paths = (
{
closed = 1;
nodes = (
"125 0 LINE",
"125 709 LINE",
"127 709 LINE",
"614 0 LINE",
"645 0 LINE",
"645 730 LINE",
"625 730 LINE",
"625 21 LINE",
"623 21 LINE",
"136 730 LINE",
"105 730 LINE",
"105 0 LINE"
);
}
);
width = 750;
},
{
anchors = (
{
name = bottom;
position = "{375, 0}";
},
{
name = top;
position = "{375, 730}";
}
);
layerId = "9527F797-22C1-480E-A1FE-2CDBEBE1FD4C";
paths = (
{
closed = 1;
nodes = (
"195 0 LINE",
"195 550 LINE",
"197 550 LINE",
"545 0 LINE",
"665 0 LINE",
"665 730 LINE",
"555 730 LINE",
"555 180 LINE",
"553 180 LINE",
"205 730 LINE",
"85 730 LINE",
"85 0 LINE"
);
}
);
width = 750;
},
{
anchors = (
{
name = bottom;
position = "{375, 0}";
},
{
name = top;
position = "{375, 730}";
}
);
layerId = "9E6B41AB-2970-4C41-8B35-4DBE0D296A43";
paths = (
{
closed = 1;
nodes = (
"265 0 LINE",
"265 390 LINE",
"267 390 LINE",
"485 0 LINE",
"685 0 LINE",
"685 730 LINE",
"485 730 LINE",
"485 340 LINE",
"483 340 LINE",
"265 730 LINE",
"65 730 LINE",
"65 0 LINE"
);
}
);
width = 750;
}
);
leftKerningGroup = H;
leftMetricsKey = "=H";
rightKerningGroup = H;
rightMetricsKey = "=|";
unicode = 004E;
},
{
color = 11;
glyphname = Eng;
lastChange = "2021-01-22 08:14:34 +0000";
layers = (
{
anchors = (
{
name = bottom;
position = "{375, 0}";
},
{
name = top;
position = "{375, 730}";
}
);
background = {
components = (
{
name = N;
transform = "{1, 0, 0, 1, 10, 0}";
}
);
};
layerId = "D65C9A1E-0FCA-4B2D-8EDF-9F36CA9182A1";
paths = (
{
closed = 1;
nodes = (
"602 -211 OFFCURVE",
"645 -164 OFFCURVE",
"645 -61 CURVE SMOOTH",
"645 730 LINE",
"625 730 LINE",
"625 21 LINE",
"623 21 LINE",
"136 730 LINE",
"105 730 LINE",
"105 0 LINE",
"125 0 LINE",
"125 709 LINE",
"127 709 LINE",
"636 -32 LINE",
"625 0 LINE",
"625 -61 LINE SMOOTH",
"625 -153 OFFCURVE",
"590 -191 OFFCURVE",
"505 -191 CURVE SMOOTH",
"480 -191 OFFCURVE",
"454 -186 OFFCURVE",
"432 -177 CURVE",
"425 -196 LINE",
"449 -205 OFFCURVE",
"478 -211 OFFCURVE",
"505 -211 CURVE SMOOTH"
);
}
);
width = 750;
},
{
anchors = (
{
name = bottom;
position = "{368, 0}";
},
{
name = top;
position = "{368, 730}";
}
);
background = {
components = (
{
name = N;
transform = "{1, 0, 0, 1, 5, 0}";
}
);
};
layerId = "9527F797-22C1-480E-A1FE-2CDBEBE1FD4C";
paths = (
{
closed = 1;
nodes = (
"613 -221 OFFCURVE",
"665 -163 OFFCURVE",
"665 -26 CURVE SMOOTH",
"665 730 LINE",
"555 730 LINE",
"555 180 LINE",
"553 180 LINE",
"205 730 LINE",
"85 730 LINE",
"85 0 LINE",
"195 0 LINE",
"195 550 LINE",
"197 550 LINE",
"571 -41 LINE",
"557 9 LINE",
"557 -26 LINE SMOOTH",
"557 -97 OFFCURVE",
"531 -126 OFFCURVE",
"467 -126 CURVE SMOOTH",
"442 -126 OFFCURVE",
"416 -122 OFFCURVE",
"392 -114 CURVE",
"375 -205 LINE",
"413 -216 OFFCURVE",
"451 -221 OFFCURVE",
"489 -221 CURVE SMOOTH"
);
}
);
width = 750;
},
{
anchors = (
{
name = bottom;
position = "{375, 0}";
},
{
name = top;
position = "{375, 730}";
}
);
background = {
components = (
{
name = N;
}
);
};
layerId = "9E6B41AB-2970-4C41-8B35-4DBE0D296A43";
paths = (
{
closed = 1;
nodes = (
"630 -229 OFFCURVE",
"685 -169 OFFCURVE",
"685 0 CURVE SMOOTH",
"685 730 LINE",
"485 730 LINE",
"485 340 LINE",
"483 340 LINE",
"265 730 LINE",
"65 730 LINE",
"65 0 LINE",
"265 0 LINE",
"265 390 LINE",
"267 390 LINE",
"529 -79 LINE",
"485 90 LINE",
"485 0 LINE",
"485 -55 OFFCURVE",
"473 -70 OFFCURVE",
"430 -70 CURVE SMOOTH",
"409 -70 OFFCURVE",
"375 -66 OFFCURVE",
"347 -59 CURVE",
"327 -214 LINE",
"375 -223 OFFCURVE",
"425 -229 OFFCURVE",
"473 -229 CURVE SMOOTH"
);
}
);
width = 750;
}
);
leftKerningGroup = H;
leftMetricsKey = "=N";
rightKerningGroup = H;
rightMetricsKey = "=N";
unicode = 014A;
},
{
color = 10;
glyphname = O;
lastChange = "2021-01-22 08:14:34 +0000";
layers = (
{
anchors = (
{
name = bottom;
position = "{423, 0}";
},
{
name = center;
position = "{422, 365}";
},
{
name = ogonek;
position = "{473, 0}";
},
{
name = top;
position = "{423, 730}";
},
{
name = topleft;
position = "{45, 730}";
},
{
name = topright;
position = "{620, 690}";
}
);
layerId = "D65C9A1E-0FCA-4B2D-8EDF-9F36CA9182A1";
paths = (
{
closed = 1;
nodes = (
"643 -10 OFFCURVE",
"793 142 OFFCURVE",
"793 365 CURVE SMOOTH",
"793 588 OFFCURVE",
"643 740 OFFCURVE",
"423 740 CURVE SMOOTH",
"203 740 OFFCURVE",
"53 588 OFFCURVE",
"53 365 CURVE SMOOTH",
"53 142 OFFCURVE",
"203 -10 OFFCURVE",
"423 -10 CURVE SMOOTH"
);
},
{
closed = 1;
nodes = (
"214 10 OFFCURVE",
"73 153 OFFCURVE",
"73 365 CURVE SMOOTH",
"73 577 OFFCURVE",
"214 720 OFFCURVE",
"423 720 CURVE SMOOTH",
"632 720 OFFCURVE",
"773 577 OFFCURVE",
"773 365 CURVE SMOOTH",
"773 153 OFFCURVE",
"632 10 OFFCURVE",
"423 10 CURVE SMOOTH"
);
}
);
width = 846;
},
{
anchors = (
{
name = bottom;
position = "{418, 0}";
},
{
name = center;
position = "{418, 365}";
},
{
name = ogonek;
position = "{485, 0}";
},
{
name = top;
position = "{418, 730}";
},
{
name = topleft;
position = "{36, 730}";
},
{
name = topright;
position = "{623, 690}";
}
);
layerId = "9527F797-22C1-480E-A1FE-2CDBEBE1FD4C";
paths = (
{
closed = 1;
nodes = (
"647 -10 OFFCURVE",
"793 136 OFFCURVE",
"793 365 CURVE SMOOTH",
"793 594 OFFCURVE",
"647 740 OFFCURVE",
"418 740 CURVE SMOOTH",
"189 740 OFFCURVE",
"43 594 OFFCURVE",
"43 365 CURVE SMOOTH",
"43 136 OFFCURVE",
"189 -10 OFFCURVE",
"418 -10 CURVE SMOOTH"
);
},
{
closed = 1;
nodes = (
"255 90 OFFCURVE",
"156 195 OFFCURVE",
"156 365 CURVE SMOOTH",
"156 535 OFFCURVE",
"255 640 OFFCURVE",
"418 640 CURVE SMOOTH",
"580 640 OFFCURVE",
"680 535 OFFCURVE",
"680 365 CURVE SMOOTH",
"680 195 OFFCURVE",
"580 90 OFFCURVE",
"418 90 CURVE SMOOTH"
);
}
);
width = 836;
},
{
anchors = (
{
name = bottom;
position = "{413, 0}";
},
{
name = center;
position = "{413, 365}";
},
{
name = ogonek;
position = "{496, 0}";
},
{
name = top;
position = "{413, 730}";
},
{
name = topleft;
position = "{26, 730}";
},
{
name = topright;
position = "{625, 690}";
}
);
layerId = "9E6B41AB-2970-4C41-8B35-4DBE0D296A43";
paths = (
{
closed = 1;
nodes = (
"652 -10 OFFCURVE",
"793 129 OFFCURVE",
"793 365 CURVE SMOOTH",
"793 601 OFFCURVE",
"652 740 OFFCURVE",
"413 740 CURVE SMOOTH",
"174 740 OFFCURVE",
"33 601 OFFCURVE",
"33 365 CURVE SMOOTH",
"33 129 OFFCURVE",
"174 -10 OFFCURVE",
"413 -10 CURVE SMOOTH"
);
},
{
closed = 1;
nodes = (
"297 160 OFFCURVE",
"238 229 OFFCURVE",
"238 365 CURVE SMOOTH",
"238 501 OFFCURVE",
"297 570 OFFCURVE",
"413 570 CURVE SMOOTH",
"529 570 OFFCURVE",
"588 501 OFFCURVE",
"588 365 CURVE SMOOTH",
"588 229 OFFCURVE",
"529 160 OFFCURVE",
"413 160 CURVE SMOOTH"
);
}
);
width = 826;
}
);
leftKerningGroup = O;
leftMetricsKey = "=H*.5";
rightKerningGroup = O;
rightMetricsKey = "=|";
unicode = 004F;
},
{
color = 11;
glyphname = Oslash;
lastChange = "2020-12-14 03:36:41 +0000";
layers = (
{
anchors = (
{
name = bottom;
position = "{418, 0}";
},
{
name = top;
position = "{418, 730}";
}
);
components = (
{
name = O;
}
);
layerId = "D65C9A1E-0FCA-4B2D-8EDF-9F36CA9182A1";
paths = (
{
closed = 1;
nodes = (
"205 63 LINE",
"205 63 LINE",
"647 655 LINE",
"647 655 LINE",
"706 734 LINE",
"690 746 LINE",
"631 667 LINE",
"631 667 LINE",
"189 75 LINE",
"189 75 LINE",
"130 -4 LINE",
"146 -16 LINE"
);
}
);
width = 794;
},
{
anchors = (
{
name = bottom;
position = "{415, 0}";
},
{
name = top;
position = "{415, 730}";
}
);
components = (
{
alignment = -1;
name = O;
}
);
layerId = "9527F797-22C1-480E-A1FE-2CDBEBE1FD4C";
paths = (
{
closed = 1;
nodes = (
"230 41 LINE",
"230 41 LINE",
"670 629 LINE",
"670 629 LINE",
"732 713 LINE",
"659 768 LINE",
"601 689 LINE",
"601 689 LINE",
"161 101 LINE",
"161 101 LINE",
"98 18 LINE",
"171 -38 LINE"
);
}
);
width = 804;
},
{
anchors = (
{
name = bottom;
position = "{413, 0}";
},
{
name = top;
position = "{413, 730}";
}
);
components = (
{
name = O;
}
);
layerId = "9E6B41AB-2970-4C41-8B35-4DBE0D296A43";
paths = (
{
closed = 1;
nodes = (
"255 28 LINE",
"243 37 LINE",
"679 621 LINE",
"691 612 LINE",
"753 695 LINE",
"633 785 LINE",
"571 702 LINE",
"583 693 LINE",
"147 109 LINE",
"135 118 LINE",
"73 35 LINE",
"193 -55 LINE"
);
}
);
width = 814;
}
);
leftKerningGroup = O;
rightKerningGroup = O;
unicode = 00D8;
},
{
color = 11;
glyphname = OE;
lastChange = "2021-01-22 08:14:34 +0000";
layers = (
{
components = (
{
name = E;
transform = "{1, 0, 0, 1, 453, 0}";
}
);
layerId = "D65C9A1E-0FCA-4B2D-8EDF-9F36CA9182A1";
paths = (
{
closed = 1;
nodes = (
"457 -10 OFFCURVE",
"527 -4 OFFCURVE",
"573 4 CURVE",
"559 33 LINE",
"575 25 LINE",
"530 16 OFFCURVE",
"458 10 OFFCURVE",
"411 10 CURVE SMOOTH",
"200 10 OFFCURVE",
"73 144 OFFCURVE",
"73 365 CURVE SMOOTH",
"73 586 OFFCURVE",
"200 720 OFFCURVE",
"411 720 CURVE SMOOTH",
"458 720 OFFCURVE",
"530 714 OFFCURVE",
"575 705 CURVE",
"559 697 LINE",
"573 726 LINE",
"527 734 OFFCURVE",
"457 740 OFFCURVE",
"411 740 CURVE SMOOTH",
"189 740 OFFCURVE",
"53 597 OFFCURVE",
"53 365 CURVE SMOOTH",
"53 133 OFFCURVE",
"189 -10 OFFCURVE",
"411 -10 CURVE SMOOTH"
);
}
);
width = 1117;
},
{
components = (
{
alignment = -1;
name = E;
transform = "{1, 0, 0, 1, 427, 0}";
}
);
layerId = "9527F797-22C1-480E-A1FE-2CDBEBE1FD4C";
paths = (
{
closed = 1;
nodes = (
"493 -10 OFFCURVE",
"577 12 OFFCURVE",
"632 50 CURVE",
"523 166 LINE",
"573 165 LINE",
"542 116 OFFCURVE",
"479 90 OFFCURVE",
"409 90 CURVE SMOOTH",
"248 90 OFFCURVE",
"156 190 OFFCURVE",
"156 365 CURVE SMOOTH",
"156 541 OFFCURVE",
"248 640 OFFCURVE",
"409 640 CURVE SMOOTH",
"479 640 OFFCURVE",
"542 614 OFFCURVE",
"573 565 CURVE",
"523 565 LINE",
"632 680 LINE",
"577 719 OFFCURVE",
"493 740 OFFCURVE",
"409 740 CURVE SMOOTH",
"180 740 OFFCURVE",
"43 599 OFFCURVE",
"43 365 CURVE SMOOTH",
"43 131 OFFCURVE",
"180 -10 OFFCURVE",
"409 -10 CURVE SMOOTH"
);
}
);
width = 1090;
},
{
components = (
{
name = E;
transform = "{1, 0, 0, 1, 446, 0}";
}
);
layerId = "9E6B41AB-2970-4C41-8B35-4DBE0D296A43";
paths = (
{
closed = 1;
nodes = (
"530 -10 OFFCURVE",
"627 27 OFFCURVE",
"691 96 CURVE",
"487 298 LINE",
"572 297 LINE",
"555 206 OFFCURVE",
"500 160 OFFCURVE",
"408 160 CURVE SMOOTH",
"295 160 OFFCURVE",
"238 229 OFFCURVE",
"238 365 CURVE SMOOTH",
"238 501 OFFCURVE",
"295 570 OFFCURVE",
"408 570 CURVE SMOOTH",
"500 570 OFFCURVE",
"555 524 OFFCURVE",
"572 433 CURVE",
"487 432 LINE",
"691 634 LINE",
"627 703 OFFCURVE",
"530 740 OFFCURVE",
"408 740 CURVE SMOOTH",
"172 740 OFFCURVE",
"33 601 OFFCURVE",
"33 365 CURVE SMOOTH",
"33 129 OFFCURVE",
"172 -10 OFFCURVE",
"408 -10 CURVE SMOOTH"
);
}
);
width = 1106;
},
{
associatedMasterId = "9527F797-22C1-480E-A1FE-2CDBEBE1FD4C";
components = (
{
name = E;
transform = "{1, 0, 0, 1, 419, 0}";
}
);
layerId = "98E51C1D-8AF7-4854-9D9A-43A5CE2B2063";
name = "Dec 30 20, 15:23";
paths = (
{
closed = 1;
nodes = (
"473 -10 OFFCURVE",
"534 4 OFFCURVE",
"586 31 CURVE",
"534 121 LINE",
"497 101 OFFCURVE",
"453 90 OFFCURVE",
"403 90 CURVE SMOOTH",
"247 90 OFFCURVE",
"153 193 OFFCURVE",
"153 365 CURVE SMOOTH",
"153 537 OFFCURVE",
"247 640 OFFCURVE",
"403 640 CURVE SMOOTH",
"453 640 OFFCURVE",
"497 629 OFFCURVE",
"534 609 CURVE",
"586 699 LINE",
"534 726 OFFCURVE",
"473 740 OFFCURVE",
"403 740 CURVE SMOOTH",
"180 740 OFFCURVE",
"40 595 OFFCURVE",
"40 365 CURVE SMOOTH",
"40 135 OFFCURVE",
"180 -10 OFFCURVE",
"403 -10 CURVE SMOOTH"
);
}
);
width = 1073;
}
);
leftKerningGroup = O;
leftMetricsKey = "=O";
rightKerningGroup = E;
rightMetricsKey = "=E";
unicode = 0152;
},
{
color = 10;
glyphname = P;
lastChange = "2021-01-22 08:14:34 +0000";
layers = (
{
layerId = "D65C9A1E-0FCA-4B2D-8EDF-9F36CA9182A1";
rightMetricsKey = "=H*.3";
paths = (
{
closed = 1;
nodes = (
"125 0 LINE",
"125 710 LINE",
"282 710 LINE SMOOTH",
"510 710 OFFCURVE",
"605 650 OFFCURVE",
"605 510 CURVE SMOOTH",
"605 370 OFFCURVE",
"510 310 OFFCURVE",
"282 310 CURVE SMOOTH",
"115 310 LINE",
"115 290 LINE",
"282 290 LINE SMOOTH",
"521 290 OFFCURVE",
"625 357 OFFCURVE",
"625 510 CURVE SMOOTH",
"625 663 OFFCURVE",
"521 730 OFFCURVE",
"282 730 CURVE SMOOTH",
"105 730 LINE",
"105 0 LINE"
);
}
);
width = 657;
},
{
layerId = "9527F797-22C1-480E-A1FE-2CDBEBE1FD4C";
rightMetricsKey = "=H*.35";
paths = (
{
closed = 1;
nodes = (
"195 0 LINE",
"195 630 LINE",
"297 630 LINE SMOOTH",
"462 630 OFFCURVE",
"533 587 OFFCURVE",
"533 487 CURVE SMOOTH",
"533 387 OFFCURVE",
"462 344 OFFCURVE",
"297 344 CURVE SMOOTH",
"140 344 LINE",
"140 244 LINE",
"310 244 LINE SMOOTH",
"536 244 OFFCURVE",
"645 323 OFFCURVE",
"645 487 CURVE SMOOTH",
"645 653 OFFCURVE",
"533 730 OFFCURVE",
"295 730 CURVE SMOOTH",
"85 730 LINE",
"85 0 LINE"
);
}
);
width = 675;
},
{
layerId = "9E6B41AB-2970-4C41-8B35-4DBE0D296A43";
rightMetricsKey = "=H*.4";
paths = (
{
closed = 1;
nodes = (
"265 0 LINE",
"265 570 LINE",
"312 570 LINE SMOOTH",
"414 570 OFFCURVE",
"460 537 OFFCURVE",
"460 465 CURVE SMOOTH",
"460 393 OFFCURVE",
"414 360 OFFCURVE",
"312 360 CURVE SMOOTH",
"165 360 LINE",
"165 200 LINE",
"338 200 LINE SMOOTH",
"550 200 OFFCURVE",
"665 293 OFFCURVE",
"665 465 CURVE SMOOTH",
"665 641 OFFCURVE",
"545 730 OFFCURVE",
"307 730 CURVE SMOOTH",
"65 730 LINE",
"65 0 LINE"
);
}
);
width = 691;
}
);
leftKerningGroup = H;
leftMetricsKey = "=H";
rightKerningGroup = P;
rightMetricsKey = "=H*.4";
unicode = 0050;
},
{
color = 11;
glyphname = Thorn;
lastChange = "2021-01-22 08:14:34 +0000";
layers = (
{
background = {
components = (
{
name = P;
transform = "{1, 0, 0, 1, 10, 0}";
}
);
};
layerId = "D65C9A1E-0FCA-4B2D-8EDF-9F36CA9182A1";
paths = (
{
closed = 1;
nodes = (
"282 155 LINE SMOOTH",
"521 155 OFFCURVE",
"625 222 OFFCURVE",
"625 375 CURVE SMOOTH",
"625 528 OFFCURVE",
"521 595 OFFCURVE",
"282 595 CURVE SMOOTH",
"115 595 LINE",
"115 575 LINE",
"282 575 LINE SMOOTH",
"510 575 OFFCURVE",
"605 515 OFFCURVE",
"605 375 CURVE SMOOTH",
"605 235 OFFCURVE",
"510 175 OFFCURVE",
"282 175 CURVE SMOOTH",
"115 175 LINE",
"115 155 LINE"
);
},
{
closed = 1;
nodes = (
"125 0 LINE",
"125 730 LINE",
"105 730 LINE",
"105 0 LINE"
);
}
);
width = 657;
},
{
background = {
components = (
{
name = P;
transform = "{1, 0, 0, 1, 5, 0}";
}
);
};
layerId = "9527F797-22C1-480E-A1FE-2CDBEBE1FD4C";
paths = (
{
closed = 1;
nodes = (
"310 132 LINE SMOOTH",
"536 132 OFFCURVE",
"645 211 OFFCURVE",
"645 375 CURVE SMOOTH",
"645 541 OFFCURVE",
"533 618 OFFCURVE",
"295 618 CURVE SMOOTH",
"140 618 LINE",
"140 518 LINE",
"297 518 LINE SMOOTH",
"462 518 OFFCURVE",
"533 475 OFFCURVE",
"533 375 CURVE SMOOTH",
"533 275 OFFCURVE",
"462 232 OFFCURVE",
"297 232 CURVE SMOOTH",
"140 232 LINE",
"140 132 LINE"
);
},
{
closed = 1;
nodes = (
"195 0 LINE",
"195 730 LINE",
"85 730 LINE",
"85 0 LINE"
);
}
);
width = 675;
},
{
background = {
components = (
{
name = P;
}
);
};
layerId = "9E6B41AB-2970-4C41-8B35-4DBE0D296A43";
paths = (
{
closed = 1;
nodes = (
"338 110 LINE SMOOTH",
"550 110 OFFCURVE",
"665 203 OFFCURVE",
"665 375 CURVE SMOOTH",
"665 551 OFFCURVE",
"545 640 OFFCURVE",
"307 640 CURVE SMOOTH",
"165 640 LINE",
"165 480 LINE",
"312 480 LINE SMOOTH",
"414 480 OFFCURVE",
"460 447 OFFCURVE",
"460 375 CURVE SMOOTH",
"460 303 OFFCURVE",
"414 270 OFFCURVE",
"312 270 CURVE SMOOTH",
"165 270 LINE",
"165 110 LINE"
);
},
{
closed = 1;
nodes = (
"265 0 LINE",
"265 730 LINE",
"65 730 LINE",
"65 0 LINE"
);
}
);
width = 691;
}
);
leftKerningGroup = H;
leftMetricsKey = "=P";
rightKerningGroup = O;
rightMetricsKey = "=P";
unicode = 00DE;
},
{
color = 10;
glyphname = Q;
lastChange = "2021-01-22 08:14:34 +0000";
layers = (
{
background = {
paths = (
{
closed = 1;
nodes = (
"796 -71 LINE",
"748 -19 OFFCURVE",
"682 17 OFFCURVE",
"601 36 CURVE",
"601 38 LINE",
"721 90 OFFCURVE",
"793 209 OFFCURVE",
"793 365 CURVE SMOOTH",
"793 595 OFFCURVE",
"648 740 OFFCURVE",
"418 740 CURVE SMOOTH",
"189 740 OFFCURVE",
"44 595 OFFCURVE",
"44 365 CURVE SMOOTH",
"44 136 OFFCURVE",
"189 -10 OFFCURVE",
"418 -10 CURVE SMOOTH",
"553 -10 OFFCURVE",
"638 -44 OFFCURVE",
"708 -133 CURVE"
);
},
{
closed = 1;
nodes = (
"256 85 OFFCURVE",
"156 191 OFFCURVE",
"156 365 CURVE SMOOTH",
"156 539 OFFCURVE",
"256 645 OFFCURVE",
"419 645 CURVE SMOOTH",
"581 645 OFFCURVE",
"681 539 OFFCURVE",
"681 365 CURVE SMOOTH",
"681 191 OFFCURVE",
"581 85 OFFCURVE",
"419 85 CURVE SMOOTH"
);
}
);
};
layerId = "9527F797-22C1-480E-A1FE-2CDBEBE1FD4C";
rightMetricsKey = "=O-11";
paths = (
{
closed = 1;
nodes = (
"795 -71 LINE",
"751 -24 OFFCURVE",
"692 13 OFFCURVE",
"621 37 CURVE",
"621 39 LINE",
"732 100 OFFCURVE",
"793 216 OFFCURVE",
"793 365 CURVE SMOOTH",
"793 594 OFFCURVE",
"647 740 OFFCURVE",
"418 740 CURVE SMOOTH",
"189 740 OFFCURVE",
"43 594 OFFCURVE",
"43 365 CURVE SMOOTH",
"43 136 OFFCURVE",
"189 -10 OFFCURVE",
"418 -10 CURVE SMOOTH",
"542 -10 OFFCURVE",
"646 -54 OFFCURVE",
"708 -133 CURVE"
);
},
{
closed = 1;
nodes = (
"255 90 OFFCURVE",
"156 195 OFFCURVE",
"156 365 CURVE SMOOTH",
"156 535 OFFCURVE",
"255 640 OFFCURVE",
"418 640 CURVE SMOOTH",
"580 640 OFFCURVE",
"680 535 OFFCURVE",
"680 365 CURVE SMOOTH",
"680 195 OFFCURVE",
"580 90 OFFCURVE",
"418 90 CURVE SMOOTH"
);
}
);
width = 827;
},
{
layerId = "D65C9A1E-0FCA-4B2D-8EDF-9F36CA9182A1";
rightMetricsKey = "=O";
paths = (
{
closed = 1;
nodes = (
"788 -102 LINE",
"728 -46 OFFCURVE",
"640 -11 OFFCURVE",
"528 2 CURVE",
"528 4 LINE",
"689 44 OFFCURVE",
"792 180 OFFCURVE",
"792 365 CURVE SMOOTH",
"792 588 OFFCURVE",
"643 740 OFFCURVE",
"422 740 CURVE SMOOTH",
"203 740 OFFCURVE",
"53 588 OFFCURVE",
"53 365 CURVE SMOOTH",
"53 142 OFFCURVE",
"203 -10 OFFCURVE",
"422 -10 CURVE SMOOTH",
"580 -10 OFFCURVE",
"699 -46 OFFCURVE",
"772 -116 CURVE"
);
},
{
closed = 1;
nodes = (
"213 10 OFFCURVE",
"73 153 OFFCURVE",
"73 365 CURVE SMOOTH",
"73 577 OFFCURVE",
"213 720 OFFCURVE",
"423 720 CURVE SMOOTH",
"632 720 OFFCURVE",
"773 577 OFFCURVE",
"773 365 CURVE SMOOTH",
"773 153 OFFCURVE",
"632 10 OFFCURVE",
"423 10 CURVE SMOOTH"
);
}
);
width = 845;
},
{
layerId = "9E6B41AB-2970-4C41-8B35-4DBE0D296A43";
rightMetricsKey = "=O-12";
paths = (
{
closed = 1;
nodes = (
"803 -40 LINE",
"766 8 OFFCURVE",
"723 44 OFFCURVE",
"672 69 CURVE",
"672 71 LINE",
"751 135 OFFCURVE",
"793 237 OFFCURVE",
"793 365 CURVE SMOOTH",
"793 601 OFFCURVE",
"652 740 OFFCURVE",
"413 740 CURVE SMOOTH",
"174 740 OFFCURVE",
"33 601 OFFCURVE",
"33 365 CURVE SMOOTH",
"33 129 OFFCURVE",
"174 -10 OFFCURVE",
"413 -10 CURVE SMOOTH",
"524 -10 OFFCURVE",
"575 -41 OFFCURVE",
"643 -150 CURVE"
);
},
{
closed = 1;
nodes = (
"297 160 OFFCURVE",
"238 229 OFFCURVE",
"238 365 CURVE SMOOTH",
"238 501 OFFCURVE",
"297 570 OFFCURVE",
"413 570 CURVE SMOOTH",
"529 570 OFFCURVE",
"588 501 OFFCURVE",
"588 365 CURVE SMOOTH",
"588 229 OFFCURVE",
"529 160 OFFCURVE",
"413 160 CURVE SMOOTH"
);
}
);
width = 824;
}
);
leftKerningGroup = O;
leftMetricsKey = "=O";
rightKerningGroup = O;
rightMetricsKey = "=O-12";
unicode = 0051;
},
{
color = 10;
glyphname = R;
lastChange = "2021-01-22 08:14:34 +0000";
layers = (
{
anchors = (
{
name = bottom;
position = "{340, 0}";
},
{
name = top;
position = "{340, 730}";
}
);
layerId = "D65C9A1E-0FCA-4B2D-8EDF-9F36CA9182A1";
paths = (
{
closed = 1;
nodes = (
"125 0 LINE",
"125 710 LINE",
"308 710 LINE SMOOTH",
"520 710 OFFCURVE",
"605 657 OFFCURVE",
"605 530 CURVE SMOOTH",
"605 403 OFFCURVE",
"520 350 OFFCURVE",
"308 350 CURVE SMOOTH",
"115 350 LINE",
"115 330 LINE",
"308 330 LINE SMOOTH",
"530 330 OFFCURVE",
"625 390 OFFCURVE",
"625 530 CURVE SMOOTH",
"625 670 OFFCURVE",
"530 730 OFFCURVE",
"308 730 CURVE SMOOTH",
"105 730 LINE",
"105 0 LINE"
);
},
{
closed = 1;
nodes = (
"645 0 LINE",
"198 340 LINE",
"165 340 LINE",
"612 0 LINE"
);
}
);
width = 687;
},
{
anchors = (
{
name = bottom;
position = "{340, 0}";
},
{
name = top;
position = "{340, 730}";
}
);
layerId = "9E6B41AB-2970-4C41-8B35-4DBE0D296A43";
paths = (
{
closed = 1;
nodes = (
"265 0 LINE",
"265 570 LINE",
"324 570 LINE SMOOTH",
"418 570 OFFCURVE",
"460 544 OFFCURVE",
"460 485 CURVE SMOOTH",
"460 426 OFFCURVE",
"418 400 OFFCURVE",
"324 400 CURVE SMOOTH",
"165 400 LINE",
"165 254 LINE",
"355 254 LINE SMOOTH",
"556 254 OFFCURVE",
"665 339 OFFCURVE",
"665 495 CURVE SMOOTH",
"665 654 OFFCURVE",
"551 730 OFFCURVE",
"314 730 CURVE SMOOTH",
"65 730 LINE",
"65 0 LINE"
);
},
{
closed = 1;
nodes = (
"685 0 LINE",
"428 327 LINE",
"210 327 LINE",
"465 0 LINE"
);
}
);
width = 711;
},
{
anchors = (
{
name = bottom;
position = "{340, 0}";
},
{
name = top;
position = "{340, 730}";
}
);
layerId = "9527F797-22C1-480E-A1FE-2CDBEBE1FD4C";
paths = (
{
closed = 1;
nodes = (
"195 0 LINE",
"195 630 LINE",
"316 630 LINE SMOOTH",
"468 630 OFFCURVE",
"533 594 OFFCURVE",
"533 509 CURVE SMOOTH",
"533 424 OFFCURVE",
"468 388 OFFCURVE",
"316 388 CURVE SMOOTH",
"140 388 LINE",
"140 292 LINE",
"332 292 LINE SMOOTH",
"542 292 OFFCURVE",
"645 365 OFFCURVE",
"645 513 CURVE SMOOTH",
"645 662 OFFCURVE",
"541 730 OFFCURVE",
"311 730 CURVE SMOOTH",
"85 730 LINE",
"85 0 LINE"
);
},
{
closed = 1;
nodes = (
"665 0 LINE",
"325 340 LINE",
"181 340 LINE",
"519 0 LINE"
);
}
);
width = 699;
}
);
leftKerningGroup = H;
leftMetricsKey = "=H";
rightKerningGroup = R;
rightMetricsKey = "=H*.4";
unicode = 0052;
},
{
color = 10;
glyphname = S;
lastChange = "2021-01-22 08:14:34 +0000";
layers = (
{
anchors = (
{
name = bottom;
position = "{321, 0}";
},
{
name = cedi;
position = "{263, 0}";
},
{
name = top;
position = "{321, 730}";
}
);
background = {
paths = (
{
closed = 0;
nodes = (
"79 57 LINE",
"147 20 OFFCURVE",
"234 0 OFFCURVE",
"318 0 CURVE SMOOTH",
"472 0 OFFCURVE",
"564 68 OFFCURVE",
"564 183 CURVE SMOOTH",
"564 445 OFFCURVE",
"85 313 OFFCURVE",
"85 561 CURVE SMOOTH",
"85 667 OFFCURVE",
"172 730 OFFCURVE",
"318 730 CURVE SMOOTH",
"402 730 OFFCURVE",
"499 709 OFFCURVE",
"551 681 CURVE"
);
}
);
};
layerId = "D65C9A1E-0FCA-4B2D-8EDF-9F36CA9182A1";
leftMetricsKey = "=H*.7";
paths = (
{
closed = 1;
nodes = (
"477 -10 OFFCURVE",
"574 62 OFFCURVE",
"574 183 CURVE SMOOTH",
"574 324 OFFCURVE",
"443 357 OFFCURVE",
"322 388 CURVE SMOOTH",
"203 419 OFFCURVE",
"95 446 OFFCURVE",
"95 561 CURVE SMOOTH",
"95 661 OFFCURVE",
"177 720 OFFCURVE",
"318 720 CURVE SMOOTH",
"399 720 OFFCURVE",
"495 700 OFFCURVE",
"546 672 CURVE",
"555 690 LINE",
"501 719 OFFCURVE",
"401 740 OFFCURVE",
"318 740 CURVE SMOOTH",
"166 740 OFFCURVE",
"75 673 OFFCURVE",
"74 561 CURVE SMOOTH",
"74 431 OFFCURVE",
"198 399 OFFCURVE",
"317 369 CURVE SMOOTH",
"438 338 OFFCURVE",
"553 308 OFFCURVE",
"553 183 CURVE SMOOTH",
"554 74 OFFCURVE",
"467 10 OFFCURVE",
"318 10 CURVE SMOOTH",
"233 10 OFFCURVE",
"148 30 OFFCURVE",
"83 66 CURVE",
"74 48 LINE",
"142 11 OFFCURVE",
"231 -10 OFFCURVE",
"318 -10 CURVE SMOOTH"
);
}
);
width = 648;
},
{
anchors = (
{
name = bottom;
position = "{327, 0}";
},
{
name = cedi;
position = "{258, 0}";
},
{
name = top;
position = "{327, 730}";
}
);
background = {
paths = (
{
closed = 1;
nodes = (
"503 -10 OFFCURVE",
"610 66 OFFCURVE",
"610 197 CURVE SMOOTH",
"610 306 OFFCURVE",
"540 366 OFFCURVE",
"360 415 CURVE SMOOTH",
"209 457 OFFCURVE",
"165 486 OFFCURVE",
"165 542 CURVE SMOOTH",
"165 606 OFFCURVE",
"221 640 OFFCURVE",
"329 640 CURVE SMOOTH",
"411 640 OFFCURVE",
"497 621 OFFCURVE",
"560 589 CURVE",
"586 691 LINE",
"524 721 OFFCURVE",
"423 740 OFFCURVE",
"331 740 CURVE SMOOTH",
"153 740 OFFCURVE",
"50 668 OFFCURVE",
"50 543 CURVE SMOOTH",
"50 437 OFFCURVE",
"121 375 OFFCURVE",
"293 329 CURVE SMOOTH",
"448 288 OFFCURVE",
"495 258 OFFCURVE",
"495 198 CURVE SMOOTH",
"495 129 OFFCURVE",
"435 90 OFFCURVE",
"327 90 CURVE SMOOTH",
"243 90 OFFCURVE",
"147 114 OFFCURVE",
"79 153 CURVE",
"53 51 LINE",
"122 12 OFFCURVE",
"220 -10 OFFCURVE",
"320 -10 CURVE SMOOTH"
);
}
);
};
layerId = "9527F797-22C1-480E-A1FE-2CDBEBE1FD4C";
leftMetricsKey = "=H*.65";
paths = (
{
closed = 1;
nodes = (
"500 -10 OFFCURVE",
"605 66 OFFCURVE",
"605 197 CURVE SMOOTH",
"605 306 OFFCURVE",
"536 366 OFFCURVE",
"359 415 CURVE SMOOTH",
"213 457 OFFCURVE",
"170 486 OFFCURVE",
"170 542 CURVE SMOOTH",
"170 606 OFFCURVE",
"224 640 OFFCURVE",
"329 640 CURVE SMOOTH",
"410 640 OFFCURVE",
"494 621 OFFCURVE",
"556 589 CURVE",
"581 691 LINE",
"521 721 OFFCURVE",
"421 740 OFFCURVE",
"331 740 CURVE SMOOTH",
"156 740 OFFCURVE",
"55 668 OFFCURVE",
"55 543 CURVE SMOOTH",
"55 437 OFFCURVE",
"125 375 OFFCURVE",
"294 329 CURVE SMOOTH",
"444 288 OFFCURVE",
"490 258 OFFCURVE",
"490 198 CURVE SMOOTH",
"490 129 OFFCURVE",
"432 90 OFFCURVE",
"327 90 CURVE SMOOTH",
"245 90 OFFCURVE",
"150 114 OFFCURVE",
"83 153 CURVE",
"58 51 LINE",
"126 12 OFFCURVE",
"222 -10 OFFCURVE",
"320 -10 CURVE SMOOTH"
);
}
);
width = 660;
},
{
anchors = (
{
name = bottom;
position = "{336, 0}";
},
{
name = cedi;
position = "{255, 0}";
},
{
name = top;
position = "{336, 730}";
}
);
layerId = "9E6B41AB-2970-4C41-8B35-4DBE0D296A43";
leftMetricsKey = "=H*.6";
paths = (
{
closed = 1;
nodes = (
"526 -10 OFFCURVE",
"639 69 OFFCURVE",
"639 210 CURVE SMOOTH",
"639 320 OFFCURVE",
"571 384 OFFCURVE",
"401 434 CURVE SMOOTH",
"278 470 OFFCURVE",
"249 488 OFFCURVE",
"249 526 CURVE SMOOTH",
"249 560 OFFCURVE",
"279 575 OFFCURVE",
"344 575 CURVE SMOOTH",
"417 575 OFFCURVE",
"500 555 OFFCURVE",
"568 522 CURVE",
"610 692 LINE",
"541 722 OFFCURVE",
"442 740 OFFCURVE",
"347 740 CURVE SMOOTH",
"149 740 OFFCURVE",
"39 663 OFFCURVE",
"39 525 CURVE SMOOTH",
"39 410 OFFCURVE",
"109 342 OFFCURVE",
"273 297 CURVE SMOOTH",
"402 261 OFFCURVE",
"429 246 OFFCURVE",
"429 210 CURVE SMOOTH",
"429 175 OFFCURVE",
"396 155 OFFCURVE",
"339 155 CURVE SMOOTH",
"267 155 OFFCURVE",
"154 186 OFFCURVE",
"87 224 CURVE",
"45 54 LINE",
"110 14 OFFCURVE",
"213 -10 OFFCURVE",
"326 -10 CURVE SMOOTH"
);
}
);
width = 678;
},
{
anchors = (
{
name = bottom;
position = "{323, 0}";
},
{
name = cedi;
position = "{265, 0}";
},
{
name = top;
position = "{323, 730}";
}
);
associatedMasterId = "D65C9A1E-0FCA-4B2D-8EDF-9F36CA9182A1";
background = {
paths = (
{
closed = 0;
nodes = (
"71 57 LINE",
"142 20 OFFCURVE",
"232 0 OFFCURVE",
"320 0 CURVE SMOOTH",
"480 0 OFFCURVE",
"576 68 OFFCURVE",
"576 183 CURVE SMOOTH",
"576 445 OFFCURVE",
"77 313 OFFCURVE",
"77 561 CURVE SMOOTH",
"77 667 OFFCURVE",
"168 730 OFFCURVE",
"320 730 CURVE SMOOTH",
"407 730 OFFCURVE",
"508 709 OFFCURVE",
"562 681 CURVE"
);
}
);
};
layerId = "7169C470-F6A3-419B-8CE3-30F113AF60AE";
leftMetricsKey = "=H*.7";
name = "Dec 30 20, 19:35";
paths = (
{
closed = 1;
nodes = (
"486 -10 OFFCURVE",
"586 62 OFFCURVE",
"586 183 CURVE SMOOTH",
"586 324 OFFCURVE",
"450 357 OFFCURVE",
"324 388 CURVE SMOOTH",
"201 419 OFFCURVE",
"87 447 OFFCURVE",
"87 561 CURVE SMOOTH",
"87 661 OFFCURVE",
"173 720 OFFCURVE",
"320 720 CURVE SMOOTH",
"404 720 OFFCURVE",
"504 700 OFFCURVE",
"557 672 CURVE",
"567 690 LINE",
"510 719 OFFCURVE",
"407 740 OFFCURVE",
"320 740 CURVE SMOOTH",
"162 740 OFFCURVE",
"67 673 OFFCURVE",
"67 561 CURVE SMOOTH",
"67 431 OFFCURVE",
"196 399 OFFCURVE",
"319 369 CURVE SMOOTH",
"445 338 OFFCURVE",
"566 308 OFFCURVE",
"566 183 CURVE SMOOTH",
"566 74 OFFCURVE",
"475 10 OFFCURVE",
"320 10 CURVE SMOOTH",
"232 10 OFFCURVE",
"144 30 OFFCURVE",
"76 66 CURVE",
"66 48 LINE",
"138 11 OFFCURVE",
"229 -10 OFFCURVE",
"320 -10 CURVE SMOOTH"
);
}
);
width = 652;
},
{
anchors = (
{
name = bottom;
position = "{329, 0}";
},
{
name = cedi;
position = "{260, 0}";
},
{
name = top;
position = "{329, 730}";
}
);
associatedMasterId = "9527F797-22C1-480E-A1FE-2CDBEBE1FD4C";
layerId = "9D1F873A-193B-4E41-8E22-97BC499EDB51";
leftMetricsKey = "=H*.65";
name = "Dec 30 20, 19:36";
paths = (
{
closed = 1;
nodes = (
"505 -10 OFFCURVE",
"612 66 OFFCURVE",
"612 197 CURVE SMOOTH",
"612 306 OFFCURVE",
"542 366 OFFCURVE",
"362 415 CURVE SMOOTH",
"211 457 OFFCURVE",
"167 486 OFFCURVE",
"167 542 CURVE SMOOTH",
"167 606 OFFCURVE",
"223 640 OFFCURVE",
"331 640 CURVE SMOOTH",
"413 640 OFFCURVE",
"499 621 OFFCURVE",
"562 589 CURVE",
"588 691 LINE",
"526 721 OFFCURVE",
"425 740 OFFCURVE",
"333 740 CURVE SMOOTH",
"155 740 OFFCURVE",
"52 668 OFFCURVE",
"52 543 CURVE SMOOTH",
"52 437 OFFCURVE",
"123 375 OFFCURVE",
"295 329 CURVE SMOOTH",
"450 288 OFFCURVE",
"497 258 OFFCURVE",
"497 198 CURVE SMOOTH",
"497 129 OFFCURVE",
"437 90 OFFCURVE",
"329 90 CURVE SMOOTH",
"245 90 OFFCURVE",
"149 114 OFFCURVE",
"81 153 CURVE",
"55 51 LINE",
"124 12 OFFCURVE",
"222 -10 OFFCURVE",
"322 -10 CURVE SMOOTH"
);
}
);
width = 664;
}
);
leftKerningGroup = S;
leftMetricsKey = "=H*.6";
rightKerningGroup = S;
rightMetricsKey = "=|";
unicode = 0053;
},
{
color = 11;
glyphname = Germandbls;
lastChange = "2021-01-22 08:14:34 +0000";
layers = (
{
layerId = "D65C9A1E-0FCA-4B2D-8EDF-9F36CA9182A1";
paths = (
{
closed = 1;
nodes = (
"536 -10 OFFCURVE",
"625 58 OFFCURVE",
"625 180 CURVE SMOOTH",
"625 302 OFFCURVE",
"537 370 OFFCURVE",
"379 370 CURVE",
"379 372 LINE",
"538 565 LINE",
"538 681 OFFCURVE",
"469 740 OFFCURVE",
"333 740 CURVE SMOOTH",
"179 740 OFFCURVE",
"105 664 OFFCURVE",
"105 505 CURVE SMOOTH",
"105 0 LINE",
"125 0 LINE",
"125 505 LINE SMOOTH",
"125 653 OFFCURVE",
"190 720 OFFCURVE",
"333 720 CURVE SMOOTH",
"455 720 OFFCURVE",
"515 672 OFFCURVE",
"518 572 CURVE",
"359 379 LINE",
"359 350 LINE",
"379 350 LINE SMOOTH",
"526 350 OFFCURVE",
"605 290 OFFCURVE",
"605 180 CURVE SMOOTH",
"605 70 OFFCURVE",
"525 10 OFFCURVE",
"376 10 CURVE SMOOTH",
"332 10 OFFCURVE",
"294 15 OFFCURVE",
"257 26 CURVE",
"251 7 LINE",
"292 -5 OFFCURVE",
"333 -10 OFFCURVE",
"376 -10 CURVE SMOOTH"
);
}
);
width = 654;
},
{
layerId = "9527F797-22C1-480E-A1FE-2CDBEBE1FD4C";
paths = (
{
closed = 1;
nodes = (
"573 -10 OFFCURVE",
"660 63 OFFCURVE",
"660 195 CURVE SMOOTH",
"660 307 OFFCURVE",
"597 373 OFFCURVE",
"479 383 CURVE",
"479 385 LINE",
"587 533 LINE",
"587 670 OFFCURVE",
"505 740 OFFCURVE",
"342 740 CURVE SMOOTH",
"169 740 OFFCURVE",
"85 662 OFFCURVE",
"85 503 CURVE SMOOTH",
"85 0 LINE",
"195 0 LINE",
"195 503 LINE SMOOTH",
"195 602 OFFCURVE",
"236 640 OFFCURVE",
"342 640 CURVE SMOOTH",
"429 640 OFFCURVE",
"475 613 OFFCURVE",
"477 561 CURVE",
"360 400 LINE",
"360 300 LINE",
"370 300 LINE SMOOTH",
"492 300 OFFCURVE",
"548 267 OFFCURVE",
"548 195 CURVE SMOOTH",
"548 128 OFFCURVE",
"495 90 OFFCURVE",
"401 90 CURVE SMOOTH",
"367 90 OFFCURVE",
"338 95 OFFCURVE",
"298 111 CURVE",
"283 11 LINE",
"326 -3 OFFCURVE",
"369 -10 OFFCURVE",
"416 -10 CURVE SMOOTH"
);
}
);
width = 687;
},
{
layerId = "9E6B41AB-2970-4C41-8B35-4DBE0D296A43";
paths = (
{
closed = 1;
nodes = (
"610 -10 OFFCURVE",
"695 68 OFFCURVE",
"695 210 CURVE SMOOTH",
"695 313 OFFCURVE",
"645 376 OFFCURVE",
"548 395 CURVE",
"548 397 LINE",
"635 500 LINE",
"635 660 OFFCURVE",
"540 740 OFFCURVE",
"350 740 CURVE SMOOTH",
"160 740 OFFCURVE",
"65 660 OFFCURVE",
"65 500 CURVE",
"65 0 LINE",
"265 0 LINE",
"265 500 LINE",
"265 550 OFFCURVE",
"289 570 OFFCURVE",
"350 570 CURVE SMOOTH",
"411 570 OFFCURVE",
"435 550 OFFCURVE",
"435 500 CURVE",
"360 400 LINE",
"360 280 LINE",
"360 280 LINE",
"461 280 OFFCURVE",
"490 267 OFFCURVE",
"490 220 CURVE SMOOTH",
"490 180 OFFCURVE",
"469 160 OFFCURVE",
"425 160 CURVE SMOOTH",
"401 160 OFFCURVE",
"374 166 OFFCURVE",
"340 180 CURVE",
"315 15 LINE",
"357 -1 OFFCURVE",
"405 -10 OFFCURVE",
"455 -10 CURVE SMOOTH"
);
}
);
width = 718;
}
);
leftKerningGroup = H;
leftMetricsKey = "=B";
rightKerningGroup = B;
rightMetricsKey = "=B*.7";
unicode = 1E9E;
},
{
color = 11;
glyphname = Schwa;
lastChange = "2021-01-22 08:14:34 +0000";
layers = (
{
background = {
paths = (
{
closed = 1;
nodes = (
"506 -10 OFFCURVE",
"604 14 OFFCURVE",
"680 54 CURVE",
"671 72 LINE",
"596 32 OFFCURVE",
"501 10 OFFCURVE",
"410 10 CURVE SMOOTH",
"190 10 OFFCURVE",
"70 134 OFFCURVE",
"70 365 CURVE",
"70 365 LINE",
"70 591 OFFCURVE",
"184 720 OFFCURVE",
"380 720 CURVE SMOOTH",
"576 720 OFFCURVE",
"690 591 OFFCURVE",
"690 365 CURVE",
"705 382 LINE",
"60 382 LINE",
"60 362 LINE",
"710 362 LINE",
"710 364 OFFCURVE",
"710 364 OFFCURVE",
"710 365 CURVE SMOOTH",
"710 601 OFFCURVE",
"588 740 OFFCURVE",
"380 740 CURVE SMOOTH",
"172 740 OFFCURVE",
"50 601 OFFCURVE",
"50 365 CURVE SMOOTH",
"50 124 OFFCURVE",
"178 -10 OFFCURVE",
"410 -10 CURVE SMOOTH"
);
}
);
};
layerId = "D65C9A1E-0FCA-4B2D-8EDF-9F36CA9182A1";
paths = (
{
closed = 1;
nodes = (
"254 740 OFFCURVE",
"156 716 OFFCURVE",
"80 676 CURVE",
"89 658 LINE",
"164 698 OFFCURVE",
"259 720 OFFCURVE",
"350 720 CURVE SMOOTH",
"570 720 OFFCURVE",
"690 596 OFFCURVE",
"690 365 CURVE",
"690 365 LINE",
"690 139 OFFCURVE",
"576 10 OFFCURVE",
"380 10 CURVE SMOOTH",
"184 10 OFFCURVE",
"70 139 OFFCURVE",
"70 365 CURVE",
"55 348 LINE",
"700 348 LINE",
"700 368 LINE",
"50 368 LINE",
"50 366 OFFCURVE",
"50 366 OFFCURVE",
"50 365 CURVE SMOOTH",
"50 129 OFFCURVE",
"172 -10 OFFCURVE",
"380 -10 CURVE SMOOTH",
"588 -10 OFFCURVE",
"710 129 OFFCURVE",
"710 365 CURVE SMOOTH",
"710 606 OFFCURVE",
"582 740 OFFCURVE",
"350 740 CURVE SMOOTH"
);
}
);
width = 763;
},
{
background = {
paths = (
{
closed = 1;
nodes = (
"517 -10 OFFCURVE",
"611 10 OFFCURVE",
"680 42 CURVE",
"658 137 LINE",
"585 107 OFFCURVE",
"502 90 OFFCURVE",
"419 90 CURVE SMOOTH",
"238 90 OFFCURVE",
"151 171 OFFCURVE",
"151 334 CURVE",
"151 376 LINE",
"151 550 OFFCURVE",
"231 640 OFFCURVE",
"381 640 CURVE SMOOTH",
"531 640 OFFCURVE",
"611 550 OFFCURVE",
"611 376 CURVE",
"652 416 LINE",
"119 416 LINE",
"119 317 LINE",
"718 317 LINE",
"720 327 OFFCURVE",
"721 353 OFFCURVE",
"721 372 CURVE SMOOTH",
"721 604 OFFCURVE",
"596 740 OFFCURVE",
"384 740 CURVE SMOOTH",
"169 740 OFFCURVE",
"41 600 OFFCURVE",
"41 365 CURVE SMOOTH",
"41 124 OFFCURVE",
"178 -10 OFFCURVE",
"426 -10 CURVE SMOOTH"
);
}
);
};
layerId = "9527F797-22C1-480E-A1FE-2CDBEBE1FD4C";
paths = (
{
closed = 1;
nodes = (
"245 740 OFFCURVE",
"151 720 OFFCURVE",
"82 688 CURVE",
"107 588 LINE",
"181 622 OFFCURVE",
"263 640 OFFCURVE",
"343 640 CURVE SMOOTH",
"524 640 OFFCURVE",
"611 559 OFFCURVE",
"611 396 CURVE",
"611 354 LINE",
"611 180 OFFCURVE",
"531 90 OFFCURVE",
"381 90 CURVE SMOOTH",
"231 90 OFFCURVE",
"151 180 OFFCURVE",
"151 354 CURVE",
"110 314 LINE",
"643 314 LINE",
"643 413 LINE",
"44 413 LINE",
"42 403 OFFCURVE",
"41 377 OFFCURVE",
"41 358 CURVE SMOOTH",
"41 126 OFFCURVE",
"166 -10 OFFCURVE",
"378 -10 CURVE SMOOTH",
"593 -10 OFFCURVE",
"721 130 OFFCURVE",
"721 365 CURVE SMOOTH",
"721 606 OFFCURVE",
"584 740 OFFCURVE",
"336 740 CURVE SMOOTH"
);
}
);
width = 764;
},
{
background = {
paths = (
{
closed = 1;
nodes = (
"528 -10 OFFCURVE",
"618 5 OFFCURVE",
"679 29 CURVE",
"645 194 LINE",
"574 171 OFFCURVE",
"503 160 OFFCURVE",
"428 160 CURVE SMOOTH",
"286 160 OFFCURVE",
"231 199 OFFCURVE",
"231 300 CURVE SMOOTH",
"231 387 LINE SMOOTH",
"231 515 OFFCURVE",
"277 570 OFFCURVE",
"381 570 CURVE SMOOTH",
"485 570 OFFCURVE",
"531 515 OFFCURVE",
"531 387 CURVE",
"598 440 LINE",
"177 440 LINE",
"177 282 LINE",
"726 282 LINE",
"729 297 OFFCURVE",
"731 346 OFFCURVE",
"731 379 CURVE SMOOTH",
"731 607 OFFCURVE",
"604 740 OFFCURVE",
"388 740 CURVE SMOOTH",
"166 740 OFFCURVE",
"31 599 OFFCURVE",
"31 365 CURVE SMOOTH",
"31 124 OFFCURVE",
"178 -10 OFFCURVE",
"441 -10 CURVE SMOOTH"
);
}
);
};
layerId = "9E6B41AB-2970-4C41-8B35-4DBE0D296A43";
paths = (
{
closed = 1;
nodes = (
"234 740 OFFCURVE",
"144 725 OFFCURVE",
"83 701 CURVE",
"118 536 LINE",
"189 559 OFFCURVE",
"259 570 OFFCURVE",
"334 570 CURVE SMOOTH",
"476 570 OFFCURVE",
"531 531 OFFCURVE",
"531 430 CURVE SMOOTH",
"531 343 LINE SMOOTH",
"531 215 OFFCURVE",
"485 160 OFFCURVE",
"381 160 CURVE SMOOTH",
"277 160 OFFCURVE",
"231 215 OFFCURVE",
"231 343 CURVE",
"164 290 LINE",
"585 290 LINE",
"585 448 LINE",
"36 448 LINE",
"33 433 OFFCURVE",
"31 384 OFFCURVE",
"31 351 CURVE SMOOTH",
"31 123 OFFCURVE",
"158 -10 OFFCURVE",
"374 -10 CURVE SMOOTH",
"596 -10 OFFCURVE",
"731 131 OFFCURVE",
"731 365 CURVE SMOOTH",
"731 606 OFFCURVE",
"584 740 OFFCURVE",
"321 740 CURVE SMOOTH"
);
}
);
width = 764;
}
);
leftKerningGroup = O;
leftMetricsKey = "=O*.95";
rightKerningGroup = O;
rightMetricsKey = "=O";
unicode = 018F;
},
{
color = 10;
glyphname = T;
lastChange = "2021-01-22 08:14:34 +0000";
layers = (
{
anchors = (
{
name = bottom;
position = "{332, 0}";
},
{
name = cedi;
position = "{322, 0}";
},
{
name = center;
position = "{332, 365}";
},
{
name = top;
position = "{332, 730}";
}
);
layerId = "D65C9A1E-0FCA-4B2D-8EDF-9F36CA9182A1";
leftMetricsKey = "=H*.3";
paths = (
{
closed = 1;
nodes = (
"342 0 LINE",
"342 710 LINE",
"632 710 LINE",
"632 730 LINE",
"32 730 LINE",
"32 710 LINE",
"322 710 LINE",
"322 0 LINE"
);
}
);
width = 664;
},
{
anchors = (
{
name = bottom;
position = "{335, 0}";
},
{
name = cedi;
position = "{278, 0}";
},
{
name = center;
position = "{335, 365}";
},
{
name = top;
position = "{335, 730}";
}
);
layerId = "9527F797-22C1-480E-A1FE-2CDBEBE1FD4C";
leftMetricsKey = "=H*.35";
paths = (
{
closed = 1;
nodes = (
"392 0 LINE",
"392 630 LINE",
"640 630 LINE",
"640 730 LINE",
"30 730 LINE",
"30 630 LINE",
"278 630 LINE",
"278 0 LINE"
);
}
);
width = 670;
},
{
anchors = (
{
name = bottom;
position = "{336, 0}";
},
{
name = cedi;
position = "{233, 0}";
},
{
name = center;
position = "{336, 365}";
},
{
name = top;
position = "{336, 730}";
}
);
layerId = "9E6B41AB-2970-4C41-8B35-4DBE0D296A43";
leftMetricsKey = "=H*.4";
paths = (
{
closed = 1;
nodes = (
"439 0 LINE",
"439 560 LINE",
"646 560 LINE",
"646 730 LINE",
"26 730 LINE",
"26 560 LINE",
"233 560 LINE",
"233 0 LINE"
);
}
);
width = 672;
}
);
leftKerningGroup = T;
leftMetricsKey = "=H*0.4";
rightKerningGroup = T;
rightMetricsKey = "=|";
unicode = 0054;
},
{
color = 11;
glyphname = Tbar;
lastChange = "2021-01-22 08:14:34 +0000";
layers = (
{
components = (
{
name = T;
transform = "{1, 0, 0, 1, 32, 0}";
}
);
layerId = "D65C9A1E-0FCA-4B2D-8EDF-9F36CA9182A1";
paths = (
{
closed = 1;
nodes = (
"570 305 LINE",
"570 325 LINE",
"150 325 LINE",
"150 305 LINE"
);
}
);
width = 728;
},
{
components = (
{
alignment = -1;
name = T;
transform = "{1, 0, 0, 1, 30, 0}";
}
);
layerId = "9527F797-22C1-480E-A1FE-2CDBEBE1FD4C";
paths = (
{
closed = 1;
nodes = (
"593 270 LINE",
"593 360 LINE",
"133 360 LINE",
"133 270 LINE"
);
}
);
width = 730;
},
{
components = (
{
name = T;
transform = "{1, 0, 0, 1, 26, 0}";
}
);
layerId = "9E6B41AB-2970-4C41-8B35-4DBE0D296A43";
paths = (
{
closed = 1;
nodes = (
"612 245 LINE",
"612 385 LINE",
"112 385 LINE",
"112 245 LINE"
);
}
);
width = 724;
}
);
leftKerningGroup = W;
leftMetricsKey = "=T*2";
rightKerningGroup = W;
rightMetricsKey = "=|";
unicode = 0166;
},
{
color = 10;
glyphname = U;
lastChange = "2021-01-22 08:14:34 +0000";
layers = (
{
anchors = (
{
name = bottom;
position = "{365, 0}";
},
{
name = ogonek;
position = "{478, 10}";
},
{
name = top;
position = "{365, 730}";
},
{
name = top_ring;
position = "{365, 700}";
},
{
name = topright;
position = "{635, 690}";
}
);
layerId = "D65C9A1E-0FCA-4B2D-8EDF-9F36CA9182A1";
paths = (
{
closed = 1;
nodes = (
"544 -10 OFFCURVE",
"635 85 OFFCURVE",
"635 270 CURVE SMOOTH",
"635 730 LINE",
"615 730 LINE",
"615 270 LINE SMOOTH",
"615 96 OFFCURVE",
"532 10 OFFCURVE",
"365 10 CURVE SMOOTH",
"198 10 OFFCURVE",
"115 96 OFFCURVE",
"115 270 CURVE SMOOTH",
"115 730 LINE",
"95 730 LINE",
"95 270 LINE SMOOTH",
"95 85 OFFCURVE",
"186 -10 OFFCURVE",
"365 -10 CURVE SMOOTH"
);
}
);
width = 730;
},
{
anchors = (
{
name = bottom;
position = "{367, 0}";
},
{
name = ogonek;
position = "{489, 10}";
},
{
name = top;
position = "{367, 730}";
},
{
name = top_ring;
position = "{367, 710}";
},
{
name = topright;
position = "{643, 690}";
}
);
layerId = "9527F797-22C1-480E-A1FE-2CDBEBE1FD4C";
paths = (
{
closed = 1;
nodes = (
"557 -10 OFFCURVE",
"657 87 OFFCURVE",
"657 270 CURVE SMOOTH",
"657 730 LINE",
"547 730 LINE",
"547 283 LINE SMOOTH",
"547 149 OFFCURVE",
"492 90 OFFCURVE",
"367 90 CURVE SMOOTH",
"242 90 OFFCURVE",
"187 149 OFFCURVE",
"187 283 CURVE SMOOTH",
"187 730 LINE",
"77 730 LINE",
"77 270 LINE SMOOTH",
"77 87 OFFCURVE",
"177 -10 OFFCURVE",
"367 -10 CURVE SMOOTH"
);
}
);
width = 734;
},
{
anchors = (
{
name = bottom;
position = "{369, 0}";
},
{
name = ogonek;
position = "{499, 10}";
},
{
name = top;
position = "{369, 730}";
},
{
name = top_ring;
position = "{369, 720}";
},
{
name = topright;
position = "{649, 690}";
}
);
layerId = "9E6B41AB-2970-4C41-8B35-4DBE0D296A43";
paths = (
{
closed = 1;
nodes = (
"570 -10 OFFCURVE",
"679 88 OFFCURVE",
"679 270 CURVE SMOOTH",
"679 730 LINE",
"479 730 LINE",
"479 295 LINE SMOOTH",
"479 194 OFFCURVE",
"451 160 OFFCURVE",
"369 160 CURVE SMOOTH",
"287 160 OFFCURVE",
"259 194 OFFCURVE",
"259 295 CURVE SMOOTH",
"259 730 LINE",
"59 730 LINE",
"59 270 LINE SMOOTH",
"59 88 OFFCURVE",
"167 -10 OFFCURVE",
"369 -10 CURVE SMOOTH"
);
}
);
width = 738;
}
);
leftKerningGroup = U;
leftMetricsKey = "=H*.9";
rightKerningGroup = U;
rightMetricsKey = "=|";
unicode = 0055;
},
{
color = 10;
glyphname = V;
lastChange = "2021-01-22 08:14:34 +0000";
layers = (
{
layerId = "D65C9A1E-0FCA-4B2D-8EDF-9F36CA9182A1";
paths = (
{
closed = 1;
nodes = (
"356 0 LINE",
"661 730 LINE",
"639 730 LINE",
"342 18 LINE",
"340 18 LINE",
"43 730 LINE",
"21 730 LINE",
"326 0 LINE"
);
}
);
width = 682;
},
{
layerId = "9527F797-22C1-480E-A1FE-2CDBEBE1FD4C";
paths = (
{
closed = 1;
nodes = (
"420 0 LINE",
"683 730 LINE",
"562 730 LINE",
"349 110 LINE",
"347 110 LINE",
"134 730 LINE",
"13 730 LINE",
"276 0 LINE"
);
}
);
width = 696;
},
{
layerId = "9E6B41AB-2970-4C41-8B35-4DBE0D296A43";
paths = (
{
closed = 1;
nodes = (
"487 0 LINE",
"707 730 LINE",
"487 730 LINE",
"358 200 LINE",
"356 200 LINE",
"227 730 LINE",
"7 730 LINE",
"227 0 LINE"
);
}
);
width = 714;
}
);
leftKerningGroup = V;
leftMetricsKey = "=A";
rightKerningGroup = V;
rightMetricsKey = "=|";
unicode = 0056;
},
{
color = 10;
glyphname = W;
lastChange = "2021-01-22 08:14:34 +0000";
layers = (
{
anchors = (
{
name = bottom;
position = "{449, 0}";
},
{
name = top;
position = "{449, 730}";
}
);
layerId = "D65C9A1E-0FCA-4B2D-8EDF-9F36CA9182A1";
leftMetricsKey = "=V*1.6";
paths = (
{
closed = 1;
nodes = (
"255 0 LINE",
"448 650 LINE",
"450 650 LINE",
"643 0 LINE",
"675 0 LINE",
"864 730 LINE",
"843 730 LINE",
"660 20 LINE",
"658 20 LINE",
"465 670 LINE",
"433 670 LINE",
"240 20 LINE",
"238 20 LINE",
"55 730 LINE",
"34 730 LINE",
"223 0 LINE"
);
}
);
width = 898;
},
{
anchors = (
{
name = bottom;
position = "{468, 0}";
},
{
name = top;
position = "{468, 730}";
}
);
layerId = "9527F797-22C1-480E-A1FE-2CDBEBE1FD4C";
leftMetricsKey = "=V*2.3";
paths = (
{
closed = 1;
nodes = (
"336 0 LINE",
"467 525 LINE",
"469 525 LINE",
"600 0 LINE",
"736 0 LINE",
"906 730 LINE",
"793 730 LINE",
"667 145 LINE",
"665 145 LINE",
"536 670 LINE",
"400 670 LINE",
"271 145 LINE",
"269 145 LINE",
"143 730 LINE",
"30 730 LINE",
"200 0 LINE"
);
}
);
width = 936;
},
{
anchors = (
{
name = bottom;
position = "{488, 0}";
},
{
name = top;
position = "{488, 730}";
}
);
layerId = "9E6B41AB-2970-4C41-8B35-4DBE0D296A43";
leftMetricsKey = "=V*4";
paths = (
{
closed = 1;
nodes = (
"418 0 LINE",
"487 460 LINE",
"489 460 LINE",
"558 0 LINE",
"798 0 LINE",
"948 730 LINE",
"743 730 LINE",
"674 210 LINE",
"672 210 LINE",
"608 670 LINE",
"368 670 LINE",
"304 210 LINE",
"302 210 LINE",
"233 730 LINE",
"28 730 LINE",
"178 0 LINE"
);
}
);
width = 976;
}
);
leftKerningGroup = W;
leftMetricsKey = "=V*3";
rightKerningGroup = W;
rightMetricsKey = "=|";
unicode = 0057;
},
{
color = 10;
glyphname = X;
lastChange = "2021-01-22 08:14:34 +0000";
layers = (
{
layerId = "D65C9A1E-0FCA-4B2D-8EDF-9F36CA9182A1";
paths = (
{
closed = 1;
nodes = (
"95 0 LINE",
"359 351 LINE",
"361 351 LINE",
"625 0 LINE",
"650 0 LINE",
"372 369 LINE",
"644 730 LINE",
"619 730 LINE",
"361 387 LINE",
"359 387 LINE",
"101 730 LINE",
"76 730 LINE",
"348 369 LINE",
"70 0 LINE"
);
}
);
width = 720;
},
{
layerId = "9527F797-22C1-480E-A1FE-2CDBEBE1FD4C";
paths = (
{
closed = 1;
nodes = (
"171 0 LINE",
"355 304 LINE",
"357 304 LINE",
"541 0 LINE",
"666 0 LINE",
"437 367 LINE",
"663 730 LINE",
"538 730 LINE",
"357 431 LINE",
"355 431 LINE",
"174 730 LINE",
"49 730 LINE",
"275 367 LINE",
"46 0 LINE"
);
}
);
width = 712;
},
{
layerId = "9E6B41AB-2970-4C41-8B35-4DBE0D296A43";
paths = (
{
closed = 1;
nodes = (
"254 0 LINE",
"358 255 LINE",
"360 255 LINE",
"464 0 LINE",
"689 0 LINE",
"509 365 LINE",
"689 730 LINE",
"464 730 LINE",
"360 475 LINE",
"358 475 LINE",
"254 730 LINE",
"29 730 LINE",
"209 365 LINE",
"29 0 LINE"
);
}
);
width = 718;
}
);
leftKerningGroup = X;
leftMetricsKey = "=|K*2.2";
rightKerningGroup = X;
rightMetricsKey = "=|";
unicode = 0058;
},
{
color = 10;
glyphname = Y;
lastChange = "2021-01-22 08:14:34 +0000";
layers = (
{
anchors = (
{
name = bottom;
position = "{333, 0}";
},
{
name = top;
position = "{333, 730}";
},
{
name = topleft;
position = "{41, 730}";
}
);
layerId = "D65C9A1E-0FCA-4B2D-8EDF-9F36CA9182A1";
paths = (
{
closed = 1;
nodes = (
"343 0 LINE",
"343 297 LINE",
"653 730 LINE",
"628 730 LINE",
"334 318 LINE",
"332 318 LINE",
"38 730 LINE",
"13 730 LINE",
"323 297 LINE",
"323 0 LINE"
);
}
);
width = 666;
},
{
anchors = (
{
name = bottom;
position = "{343, 0}";
},
{
name = top;
position = "{343, 730}";
},
{
name = topleft;
position = "{30, 730}";
}
);
layerId = "9527F797-22C1-480E-A1FE-2CDBEBE1FD4C";
paths = (
{
closed = 1;
nodes = (
"400 0 LINE",
"400 274 LINE",
"678 730 LINE",
"552 730 LINE",
"344 373 LINE",
"342 373 LINE",
"134 730 LINE",
"8 730 LINE",
"286 274 LINE",
"286 0 LINE"
);
}
);
width = 686;
},
{
anchors = (
{
name = bottom;
position = "{354, 0}";
},
{
name = top;
position = "{354, 730}";
},
{
name = topleft;
position = "{20, 730}";
}
);
layerId = "9E6B41AB-2970-4C41-8B35-4DBE0D296A43";
paths = (
{
closed = 1;
nodes = (
"459 0 LINE",
"459 250 LINE",
"704 730 LINE",
"484 730 LINE",
"355 420 LINE",
"353 420 LINE",
"224 730 LINE",
"4 730 LINE",
"249 250 LINE",
"249 0 LINE"
);
}
);
width = 708;
}
);
leftKerningGroup = Y;
leftMetricsKey = "=V*.6";
rightKerningGroup = Y;
rightMetricsKey = "=|";
unicode = 0059;
},
{
color = 10;
glyphname = Z;
lastChange = "2021-01-22 08:14:34 +0000";
layers = (
{
anchors = (
{
name = bottom;
position = "{334, 0}";
},
{
name = center;
position = "{334, 365}";
},
{
name = top;
position = "{334, 730}";
}
);
layerId = "D65C9A1E-0FCA-4B2D-8EDF-9F36CA9182A1";
paths = (
{
closed = 1;
nodes = (
"584 0 LINE",
"584 20 LINE",
"109 20 LINE",
"109 22 LINE",
"584 710 LINE",
"584 730 LINE",
"84 730 LINE",
"84 710 LINE",
"559 710 LINE",
"559 708 LINE",
"84 20 LINE",
"84 0 LINE"
);
}
);
width = 668;
},
{
anchors = (
{
name = bottom;
position = "{328, 0}";
},
{
name = center;
position = "{328, 365}";
},
{
name = top;
position = "{328, 730}";
}
);
layerId = "9527F797-22C1-480E-A1FE-2CDBEBE1FD4C";
paths = (
{
closed = 1;
nodes = (
"588 0 LINE",
"588 100 LINE",
"203 100 LINE",
"203 102 LINE",
"588 630 LINE",
"588 730 LINE",
"68 730 LINE",
"68 630 LINE",
"453 630 LINE",
"453 628 LINE",
"68 100 LINE",
"68 0 LINE"
);
}
);
width = 656;
},
{
anchors = (
{
name = bottom;
position = "{322, 0}";
},
{
name = center;
position = "{322, 365}";
},
{
name = top;
position = "{322, 730}";
}
);
layerId = "9E6B41AB-2970-4C41-8B35-4DBE0D296A43";
paths = (
{
closed = 1;
nodes = (
"592 0 LINE",
"592 165 LINE",
"287 165 LINE",
"287 167 LINE",
"592 565 LINE",
"592 730 LINE",
"52 730 LINE",
"52 565 LINE",
"357 565 LINE",
"357 563 LINE",
"52 165 LINE",
"52 0 LINE"
);
}
);
width = 644;
}
);
leftKerningGroup = Z;
leftMetricsKey = "=H*.8";
rightKerningGroup = Z;
rightMetricsKey = "=|";
unicode = 005A;
},
{
color = 9;
glyphname = R.001;
lastChange = "2021-01-22 08:15:33 +0000";
layers = (
{
anchors = (
{
name = bottom;
position = "{340, 0}";
},
{
name = top;
position = "{340, 730}";
}
);
layerId = "9527F797-22C1-480E-A1FE-2CDBEBE1FD4C";
paths = (
{
closed = 1;
nodes = (
"195 0 LINE",
"195 630 LINE",
"316 630 LINE SMOOTH",
"468 630 OFFCURVE",
"533 592 OFFCURVE",
"533 504 CURVE SMOOTH",
"533 416 OFFCURVE",
"468 378 OFFCURVE",
"316 378 CURVE SMOOTH",
"140 378 LINE",
"140 282 LINE",
"332 282 LINE SMOOTH",
"542 282 OFFCURVE",
"645 356 OFFCURVE",
"645 508 CURVE SMOOTH",
"645 661 OFFCURVE",
"541 730 OFFCURVE",
"311 730 CURVE SMOOTH",
"85 730 LINE",
"85 0 LINE"
);
},
{
closed = 1;
nodes = (
"665 0 LINE",
"370 330 LINE",
"232 330 LINE",
"525 0 LINE"
);
}
);
width = 699;
},
{
anchors = (
{
name = bottom;
position = "{340, 0}";
},
{
name = top;
position = "{340, 730}";
}
);
associatedMasterId = "9527F797-22C1-480E-A1FE-2CDBEBE1FD4C";
layerId = "7FAAC43C-2BE6-4DB8-A2A6-2B62B2F8933B";
name = "Medium [500]";
paths = (
{
closed = 1;
nodes = (
"195 0 LINE",
"195 630 LINE",
"316 630 LINE SMOOTH",
"468 630 OFFCURVE",
"533 592 OFFCURVE",
"533 504 CURVE SMOOTH",
"533 416 OFFCURVE",
"468 378 OFFCURVE",
"316 378 CURVE SMOOTH",
"140 378 LINE",
"140 282 LINE",
"332 282 LINE SMOOTH",
"542 282 OFFCURVE",
"645 356 OFFCURVE",
"645 508 CURVE SMOOTH",
"645 661 OFFCURVE",
"541 730 OFFCURVE",
"311 730 CURVE SMOOTH",
"85 730 LINE",
"85 0 LINE"
);
},
{
closed = 1;
nodes = (
"665 0 LINE",
"293 330 LINE",
"143 330 LINE",
"513 0 LINE"
);
}
);
width = 699;
},
{
anchors = (
{
name = bottom;
position = "{340, 0}";
},
{
name = top;
position = "{340, 730}";
}
);
layerId = "9E6B41AB-2970-4C41-8B35-4DBE0D296A43";
paths = (
{
closed = 1;
nodes = (
"265 0 LINE",
"265 570 LINE",
"324 570 LINE SMOOTH",
"417 570 OFFCURVE",
"460 542 OFFCURVE",
"460 480 CURVE SMOOTH",
"460 418 OFFCURVE",
"417 390 OFFCURVE",
"324 390 CURVE SMOOTH",
"165 390 LINE",
"165 244 LINE",
"355 244 LINE SMOOTH",
"556 244 OFFCURVE",
"665 330 OFFCURVE",
"665 490 CURVE SMOOTH",
"665 652 OFFCURVE",
"551 730 OFFCURVE",
"314 730 CURVE SMOOTH",
"65 730 LINE",
"65 0 LINE"
);
},
{
closed = 1;
nodes = (
"685 0 LINE",
"481 317 LINE",
"263 317 LINE",
"465 0 LINE"
);
}
);
width = 711;
},
{
anchors = (
{
name = bottom;
position = "{340, 0}";
},
{
name = top;
position = "{340, 730}";
}
);
associatedMasterId = "9E6B41AB-2970-4C41-8B35-4DBE0D296A43";
layerId = "A0CD4DB6-9549-4527-815B-AA5EA254ECA0";
name = "Black [500]";
paths = (
{
closed = 1;
nodes = (
"265 0 LINE",
"265 570 LINE",
"324 570 LINE SMOOTH",
"417 570 OFFCURVE",
"460 542 OFFCURVE",
"460 480 CURVE SMOOTH",
"460 418 OFFCURVE",
"417 390 OFFCURVE",
"324 390 CURVE SMOOTH",
"165 390 LINE",
"165 244 LINE",
"355 244 LINE SMOOTH",
"556 244 OFFCURVE",
"665 330 OFFCURVE",
"665 490 CURVE SMOOTH",
"665 652 OFFCURVE",
"551 730 OFFCURVE",
"314 730 CURVE SMOOTH",
"65 730 LINE",
"65 0 LINE"
);
},
{
closed = 1;
nodes = (
"685 0 LINE",
"426 317 LINE",
"208 317 LINE",
"465 0 LINE"
);
}
);
width = 711;
},
{
anchors = (
{
name = bottom;
position = "{340, 0}";
},
{
name = top;
position = "{340, 730}";
}
);
associatedMasterId = "D65C9A1E-0FCA-4B2D-8EDF-9F36CA9182A1";
layerId = "9D907E83-DDF0-4699-AFF8-E452C4DC2A5B";
name = "Thin [500]";
paths = (
{
closed = 1;
nodes = (
"125 0 LINE",
"125 710 LINE",
"308 710 LINE SMOOTH",
"519 710 OFFCURVE",
"605 655 OFFCURVE",
"605 525 CURVE SMOOTH",
"605 395 OFFCURVE",
"519 340 OFFCURVE",
"308 340 CURVE SMOOTH",
"115 340 LINE",
"115 320 LINE",
"308 320 LINE SMOOTH",
"529 320 OFFCURVE",
"625 382 OFFCURVE",
"625 525 CURVE SMOOTH",
"625 668 OFFCURVE",
"529 730 OFFCURVE",
"308 730 CURVE SMOOTH",
"105 730 LINE",
"105 0 LINE"
);
},
{
closed = 1;
nodes = (
"645 0 LINE",
"258 331 LINE",
"228 331 LINE",
"614 0 LINE"
);
}
);
width = 687;
},
{
anchors = (
{
name = bottom;
position = "{340, 0}";
},
{
name = top;
position = "{340, 730}";
}
);
layerId = "D65C9A1E-0FCA-4B2D-8EDF-9F36CA9182A1";
paths = (
{
closed = 1;
nodes = (
"125 0 LINE",
"125 710 LINE",
"308 710 LINE SMOOTH",
"519 710 OFFCURVE",
"605 655 OFFCURVE",
"605 525 CURVE SMOOTH",
"605 395 OFFCURVE",
"519 340 OFFCURVE",
"308 340 CURVE SMOOTH",
"115 340 LINE",
"115 320 LINE",
"308 320 LINE SMOOTH",
"529 320 OFFCURVE",
"625 382 OFFCURVE",
"625 525 CURVE SMOOTH",
"625 668 OFFCURVE",
"529 730 OFFCURVE",
"308 730 CURVE SMOOTH",
"105 730 LINE",
"105 0 LINE"
);
},
{
closed = 1;
nodes = (
"645 0 LINE",
"258 331 LINE",
"228 331 LINE",
"614 0 LINE"
);
}
);
width = 687;
}
);
leftKerningGroup = H;
leftMetricsKey = "=H";
rightKerningGroup = R;
rightMetricsKey = "=H*.4";
},
{
color = 9;
glyphname = S.001;
lastChange = "2021-01-22 08:14:34 +0000";
layers = (
{
anchors = (
{
name = bottom;
position = "{331, 0}";
},
{
name = cedi;
position = "{273, 0}";
},
{
name = top;
position = "{331, 730}";
}
);
background = {
paths = (
{
closed = 0;
nodes = (
"79 57 LINE",
"150 20 OFFCURVE",
"240 0 OFFCURVE",
"328 0 CURVE SMOOTH",
"488 0 OFFCURVE",
"584 68 OFFCURVE",
"584 183 CURVE SMOOTH",
"584 445 OFFCURVE",
"85 313 OFFCURVE",
"85 561 CURVE SMOOTH",
"85 667 OFFCURVE",
"176 730 OFFCURVE",
"328 730 CURVE SMOOTH",
"415 730 OFFCURVE",
"516 709 OFFCURVE",
"570 681 CURVE"
);
}
);
};
layerId = "D65C9A1E-0FCA-4B2D-8EDF-9F36CA9182A1";
leftMetricsKey = "=H*.7";
paths = (
{
closed = 1;
nodes = (
"494 -10 OFFCURVE",
"594 62 OFFCURVE",
"594 183 CURVE SMOOTH",
"594 324 OFFCURVE",
"458 357 OFFCURVE",
"332 388 CURVE SMOOTH",
"209 419 OFFCURVE",
"95 447 OFFCURVE",
"95 561 CURVE SMOOTH",
"95 661 OFFCURVE",
"181 720 OFFCURVE",
"328 720 CURVE SMOOTH",
"412 720 OFFCURVE",
"512 700 OFFCURVE",
"565 672 CURVE",
"575 690 LINE",
"518 719 OFFCURVE",
"415 740 OFFCURVE",
"328 740 CURVE SMOOTH",
"170 740 OFFCURVE",
"75 673 OFFCURVE",
"75 561 CURVE SMOOTH",
"75 431 OFFCURVE",
"204 399 OFFCURVE",
"327 369 CURVE SMOOTH",
"453 338 OFFCURVE",
"574 308 OFFCURVE",
"574 183 CURVE SMOOTH",
"574 74 OFFCURVE",
"483 10 OFFCURVE",
"328 10 CURVE SMOOTH",
"240 10 OFFCURVE",
"152 30 OFFCURVE",
"84 66 CURVE",
"74 48 LINE",
"146 11 OFFCURVE",
"237 -10 OFFCURVE",
"328 -10 CURVE SMOOTH"
);
}
);
width = 668;
},
{
anchors = (
{
name = bottom;
position = "{332, 0}";
},
{
name = cedi;
position = "{263, 0}";
},
{
name = top;
position = "{332, 730}";
}
);
layerId = "9527F797-22C1-480E-A1FE-2CDBEBE1FD4C";
leftMetricsKey = "=H*.65";
paths = (
{
closed = 1;
nodes = (
"508 -10 OFFCURVE",
"615 66 OFFCURVE",
"615 197 CURVE SMOOTH",
"615 306 OFFCURVE",
"545 366 OFFCURVE",
"365 415 CURVE SMOOTH",
"214 457 OFFCURVE",
"170 486 OFFCURVE",
"170 542 CURVE SMOOTH",
"170 606 OFFCURVE",
"226 640 OFFCURVE",
"334 640 CURVE SMOOTH",
"416 640 OFFCURVE",
"502 621 OFFCURVE",
"565 589 CURVE",
"591 691 LINE",
"529 721 OFFCURVE",
"428 740 OFFCURVE",
"336 740 CURVE SMOOTH",
"158 740 OFFCURVE",
"55 668 OFFCURVE",
"55 543 CURVE SMOOTH",
"55 437 OFFCURVE",
"126 375 OFFCURVE",
"298 329 CURVE SMOOTH",
"453 288 OFFCURVE",
"500 258 OFFCURVE",
"500 198 CURVE SMOOTH",
"500 129 OFFCURVE",
"440 90 OFFCURVE",
"332 90 CURVE SMOOTH",
"248 90 OFFCURVE",
"152 114 OFFCURVE",
"84 153 CURVE",
"58 51 LINE",
"127 12 OFFCURVE",
"225 -10 OFFCURVE",
"325 -10 CURVE SMOOTH"
);
}
);
width = 670;
},
{
anchors = (
{
name = bottom;
position = "{336, 0}";
},
{
name = cedi;
position = "{255, 0}";
},
{
name = top;
position = "{336, 730}";
}
);
layerId = "9E6B41AB-2970-4C41-8B35-4DBE0D296A43";
leftMetricsKey = "=H*.6";
paths = (
{
closed = 1;
nodes = (
"526 -10 OFFCURVE",
"639 69 OFFCURVE",
"639 210 CURVE SMOOTH",
"639 320 OFFCURVE",
"571 384 OFFCURVE",
"401 434 CURVE SMOOTH",
"278 470 OFFCURVE",
"249 488 OFFCURVE",
"249 526 CURVE SMOOTH",
"249 560 OFFCURVE",
"279 575 OFFCURVE",
"344 575 CURVE SMOOTH",
"417 575 OFFCURVE",
"500 555 OFFCURVE",
"568 522 CURVE",
"610 692 LINE",
"541 722 OFFCURVE",
"442 740 OFFCURVE",
"347 740 CURVE SMOOTH",
"149 740 OFFCURVE",
"39 663 OFFCURVE",
"39 525 CURVE SMOOTH",
"39 410 OFFCURVE",
"109 342 OFFCURVE",
"273 297 CURVE SMOOTH",
"402 261 OFFCURVE",
"429 246 OFFCURVE",
"429 210 CURVE SMOOTH",
"429 175 OFFCURVE",
"396 155 OFFCURVE",
"339 155 CURVE SMOOTH",
"267 155 OFFCURVE",
"154 186 OFFCURVE",
"87 224 CURVE",
"45 54 LINE",
"110 14 OFFCURVE",
"213 -10 OFFCURVE",
"326 -10 CURVE SMOOTH"
);
}
);
width = 678;
}
);
leftKerningGroup = S;
leftMetricsKey = "=H*.6";
rightKerningGroup = S;
rightMetricsKey = "=|";
},
{
color = 9;
glyphname = R.002;
lastChange = "2021-01-22 08:14:34 +0000";
layers = (
{
anchors = (
{
name = bottom;
position = "{340, 0}";
},
{
name = top;
position = "{340, 730}";
}
);
layerId = "D65C9A1E-0FCA-4B2D-8EDF-9F36CA9182A1";
paths = (
{
closed = 1;
nodes = (
"125 0 LINE",
"125 710 LINE",
"308 710 LINE SMOOTH",
"520 710 OFFCURVE",
"605 657 OFFCURVE",
"605 530 CURVE SMOOTH",
"605 403 OFFCURVE",
"520 350 OFFCURVE",
"308 350 CURVE SMOOTH",
"115 350 LINE",
"115 330 LINE",
"308 330 LINE SMOOTH",
"530 330 OFFCURVE",
"625 390 OFFCURVE",
"625 530 CURVE SMOOTH",
"625 670 OFFCURVE",
"530 730 OFFCURVE",
"308 730 CURVE SMOOTH",
"105 730 LINE",
"105 0 LINE"
);
},
{
closed = 1;
nodes = (
"645 0 LINE",
"148 340 LINE",
"112 340 LINE",
"609 0 LINE"
);
}
);
width = 687;
},
{
anchors = (
{
name = bottom;
position = "{340, 0}";
},
{
name = top;
position = "{340, 730}";
}
);
layerId = "9E6B41AB-2970-4C41-8B35-4DBE0D296A43";
paths = (
{
closed = 1;
nodes = (
"265 0 LINE",
"265 570 LINE",
"324 570 LINE SMOOTH",
"418 570 OFFCURVE",
"460 544 OFFCURVE",
"460 485 CURVE SMOOTH",
"460 426 OFFCURVE",
"418 400 OFFCURVE",
"324 400 CURVE SMOOTH",
"165 400 LINE",
"165 254 LINE",
"355 254 LINE SMOOTH",
"556 254 OFFCURVE",
"665 339 OFFCURVE",
"665 495 CURVE SMOOTH",
"665 654 OFFCURVE",
"551 730 OFFCURVE",
"314 730 CURVE SMOOTH",
"65 730 LINE",
"65 0 LINE"
);
},
{
closed = 1;
nodes = (
"685 0 LINE",
"428 327 LINE",
"210 327 LINE",
"465 0 LINE"
);
}
);
width = 711;
},
{
anchors = (
{
name = bottom;
position = "{340, 0}";
},
{
name = top;
position = "{340, 730}";
}
);
layerId = "9527F797-22C1-480E-A1FE-2CDBEBE1FD4C";
paths = (
{
closed = 1;
nodes = (
"195 0 LINE",
"195 630 LINE",
"316 630 LINE SMOOTH",
"468 630 OFFCURVE",
"533 594 OFFCURVE",
"533 509 CURVE SMOOTH",
"533 424 OFFCURVE",
"468 388 OFFCURVE",
"316 388 CURVE SMOOTH",
"140 388 LINE",
"140 292 LINE",
"332 292 LINE SMOOTH",
"542 292 OFFCURVE",
"645 365 OFFCURVE",
"645 513 CURVE SMOOTH",
"645 662 OFFCURVE",
"541 730 OFFCURVE",
"311 730 CURVE SMOOTH",
"85 730 LINE",
"85 0 LINE"
);
},
{
closed = 1;
nodes = (
"665 0 LINE",
"295 340 LINE",
"145 340 LINE",
"513 0 LINE"
);
}
);
width = 699;
}
);
leftKerningGroup = H;
leftMetricsKey = "=H";
rightKerningGroup = R;
rightMetricsKey = "=H*.4";
},
{
color = 10;
glyphname = a;
lastChange = "2021-01-24 11:31:25 +0000";
layers = (
{
anchors = (
{
name = bottom;
position = "{248, 0}";
},
{
name = ogonek;
position = "{452, 0}";
},
{
name = top;
position = "{248, 520}";
}
);
layerId = "D65C9A1E-0FCA-4B2D-8EDF-9F36CA9182A1";
paths = (
{
closed = 1;
nodes = (
"306 -10 OFFCURVE",
"390 35 OFFCURVE",
"427 104 CURVE",
"428 104 LINE",
"428 0 LINE",
"448 0 LINE",
"448 325 LINE SMOOTH",
"448 477 OFFCURVE",
"401 530 OFFCURVE",
"265 530 CURVE SMOOTH",
"189 530 OFFCURVE",
"117 513 OFFCURVE",
"51 480 CURVE",
"60 462 LINE",
"124 494 OFFCURVE",
"192 510 OFFCURVE",
"265 510 CURVE SMOOTH",
"389 510 OFFCURVE",
"428 466 OFFCURVE",
"428 325 CURVE",
"332 325 LINE SMOOTH",
"141 325 OFFCURVE",
"38 262 OFFCURVE",
"38 145 CURVE SMOOTH",
"38 50 OFFCURVE",
"106 -10 OFFCURVE",
"214 -10 CURVE SMOOTH"
);
},
{
closed = 1;
nodes = (
"116 10 OFFCURVE",
"58 62 OFFCURVE",
"58 145 CURVE SMOOTH",
"58 249 OFFCURVE",
"152 305 OFFCURVE",
"332 305 CURVE SMOOTH",
"428 305 LINE",
"428 190 LINE SMOOTH",
"428 89 OFFCURVE",
"334 10 OFFCURVE",
"214 10 CURVE SMOOTH"
);
}
);
width = 524;
},
{
anchors = (
{
name = bottom;
position = "{266, 0}";
},
{
name = ogonek;
position = "{493, 0}";
},
{
name = top;
position = "{266, 520}";
}
);
background = {
anchors = (
{
name = bottom;
position = "{264, 0}";
},
{
name = ogonek;
position = "{491, 0}";
},
{
name = top;
position = "{264, 520}";
}
);
paths = (
{
closed = 1;
nodes = (
"281 -10 OFFCURVE",
"350 17 OFFCURVE",
"385 60 CURVE",
"387 60 LINE",
"388 0 LINE",
"491 0 LINE",
"491 338 LINE SMOOTH",
"491 480 OFFCURVE",
"436 530 OFFCURVE",
"283 530 CURVE SMOOTH",
"197 530 OFFCURVE",
"111 515 OFFCURVE",
"40 486 CURVE",
"55 396 LINE",
"122 425 OFFCURVE",
"199 440 OFFCURVE",
"269 440 CURVE SMOOTH",
"358 440 OFFCURVE",
"383 417 OFFCURVE",
"383 338 CURVE",
"306 338 LINE SMOOTH",
"128 338 OFFCURVE",
"26 269 OFFCURVE",
"26 148 CURVE SMOOTH",
"26 50 OFFCURVE",
"94 -10 OFFCURVE",
"206 -10 CURVE SMOOTH"
);
},
{
closed = 1;
nodes = (
"170 78 OFFCURVE",
"134 108 OFFCURVE",
"134 158 CURVE SMOOTH",
"134 223 OFFCURVE",
"196 256 OFFCURVE",
"321 256 CURVE SMOOTH",
"383 256 LINE",
"383 188 LINE SMOOTH",
"383 132 OFFCURVE",
"308 78 OFFCURVE",
"229 78 CURVE SMOOTH"
);
}
);
};
layerId = "9527F797-22C1-480E-A1FE-2CDBEBE1FD4C";
paths = (
{
closed = 1;
nodes = (
"271 -10 OFFCURVE",
"349 19 OFFCURVE",
"385 60 CURVE",
"387 60 LINE",
"388 0 LINE",
"491 0 LINE",
"491 328 LINE SMOOTH",
"491 478 OFFCURVE",
"438 530 OFFCURVE",
"285 530 CURVE SMOOTH",
"200 530 OFFCURVE",
"113 514 OFFCURVE",
"45 486 CURVE",
"59 397 LINE",
"124 425 OFFCURVE",
"200 440 OFFCURVE",
"271 440 CURVE SMOOTH",
"357 440 OFFCURVE",
"383 417 OFFCURVE",
"383 338 CURVE",
"308 338 LINE SMOOTH",
"131 338 OFFCURVE",
"31 269 OFFCURVE",
"31 148 CURVE SMOOTH",
"31 51 OFFCURVE",
"95 -10 OFFCURVE",
"199 -10 CURVE SMOOTH"
);
},
{
closed = 1;
nodes = (
"174 78 OFFCURVE",
"139 108 OFFCURVE",
"139 158 CURVE SMOOTH",
"139 223 OFFCURVE",
"200 256 OFFCURVE",
"323 256 CURVE SMOOTH",
"383 256 LINE",
"383 188 LINE SMOOTH",
"383 127 OFFCURVE",
"318 78 OFFCURVE",
"237 78 CURVE SMOOTH"
);
}
);
width = 553;
},
{
anchors = (
{
name = bottom;
position = "{285, 0}";
},
{
name = ogonek;
position = "{534, 0}";
},
{
name = top;
position = "{285, 520}";
}
);
layerId = "9E6B41AB-2970-4C41-8B35-4DBE0D296A43";
paths = (
{
closed = 1;
nodes = (
"246 -10 OFFCURVE",
"305 16 OFFCURVE",
"344 60 CURVE",
"346 60 LINE",
"348 0 LINE",
"534 0 LINE",
"534 330 LINE SMOOTH",
"534 476 OFFCURVE",
"472 530 OFFCURVE",
"305 530 CURVE SMOOTH",
"211 530 OFFCURVE",
"113 516 OFFCURVE",
"39 491 CURVE",
"59 351 LINE",
"127 375 OFFCURVE",
"211 390 OFFCURVE",
"278 390 CURVE SMOOTH",
"328 390 OFFCURVE",
"338 380 OFFCURVE",
"338 330 CURVE",
"284 330 LINE SMOOTH",
"118 330 OFFCURVE",
"24 265 OFFCURVE",
"24 150 CURVE SMOOTH",
"24 53 OFFCURVE",
"87 -10 OFFCURVE",
"184 -10 CURVE SMOOTH"
);
},
{
closed = 1;
nodes = (
"221 125 OFFCURVE",
"200 141 OFFCURVE",
"200 170 CURVE SMOOTH",
"200 208 OFFCURVE",
"235 225 OFFCURVE",
"314 225 CURVE SMOOTH",
"338 225 LINE",
"338 185 LINE SMOOTH",
"338 148 OFFCURVE",
"307 125 OFFCURVE",
"260 125 CURVE SMOOTH"
);
}
);
width = 581;
},
{
anchors = (
{
name = bottom;
position = "{258, 0}";
},
{
name = ogonek;
position = "{470, 0}";
},
{
name = top;
position = "{258, 520}";
}
);
associatedMasterId = "D65C9A1E-0FCA-4B2D-8EDF-9F36CA9182A1";
layerId = "37E9DD48-F59F-412B-917A-B9493104890B";
name = "Light {232";
paths = (
{
closed = 1;
nodes = (
"301 -10 OFFCURVE",
"380 26 OFFCURVE",
"420 82 CURVE",
"422 82 LINE",
"422 0 LINE",
"470 0 LINE",
"470 329 LINE SMOOTH",
"470 478 OFFCURVE",
"419 530 OFFCURVE",
"276 530 CURVE SMOOTH",
"195 530 OFFCURVE",
"117 514 OFFCURVE",
"48 482 CURVE",
"59 440 LINE",
"125 471 OFFCURVE",
"198 487 OFFCURVE",
"271 487 CURVE SMOOTH",
"385 487 OFFCURVE",
"421 450 OFFCURVE",
"421 329 CURVE",
"329 329 LINE SMOOTH",
"139 329 OFFCURVE",
"35 264 OFFCURVE",
"35 146 CURVE SMOOTH",
"35 50 OFFCURVE",
"104 -10 OFFCURVE",
"215 -10 CURVE SMOOTH"
);
},
{
closed = 1;
nodes = (
"136 32 OFFCURVE",
"84 77 OFFCURVE",
"84 149 CURVE SMOOTH",
"84 240 OFFCURVE",
"169 289 OFFCURVE",
"334 289 CURVE SMOOTH",
"421 289 LINE",
"421 189 LINE SMOOTH",
"421 103 OFFCURVE",
"331 32 OFFCURVE",
"222 32 CURVE SMOOTH"
);
}
);
width = 540;
}
);
leftKerningGroup = a;
leftMetricsKey = "=h*.4";
rightKerningGroup = h;
rightMetricsKey = "=h";
unicode = 0061;
},
{
color = 11;
glyphname = ae;
lastChange = "2021-01-24 11:31:25 +0000";
layers = (
{
anchors = (
{
name = bottom;
position = "{462, 0}";
},
{
name = top;
position = "{462, 520}";
}
);
layerId = "D65C9A1E-0FCA-4B2D-8EDF-9F36CA9182A1";
paths = (
{
closed = 1;
nodes = (
"745 -10 OFFCURVE",
"803 4 OFFCURVE",
"848 30 CURVE",
"838 47 LINE",
"796 23 OFFCURVE",
"742 10 OFFCURVE",
"684 10 CURVE SMOOTH",
"537 10 OFFCURVE",
"458 96 OFFCURVE",
"458 260 CURVE",
"458 260 LINE",
"458 419 OFFCURVE",
"533 510 OFFCURVE",
"663 510 CURVE SMOOTH",
"790 510 OFFCURVE",
"858 424 OFFCURVE",
"858 260 CURVE",
"868 278 LINE",
"448 278 LINE",
"448 258 LINE",
"878 258 LINE",
"878 259 OFFCURVE",
"878 259 OFFCURVE",
"878 260 CURVE SMOOTH",
"878 434 OFFCURVE",
"802 530 OFFCURVE",
"663 530 CURVE SMOOTH",
"522 530 OFFCURVE",
"438 430 OFFCURVE",
"438 260 CURVE SMOOTH",
"438 86 OFFCURVE",
"525 -10 OFFCURVE",
"684 -10 CURVE SMOOTH"
);
},
{
closed = 1;
nodes = (
"118 10 OFFCURVE",
"58 62 OFFCURVE",
"58 145 CURVE SMOOTH",
"58 249 OFFCURVE",
"154 305 OFFCURVE",
"339 305 CURVE SMOOTH",
"438 305 LINE",
"438 210 LINE SMOOTH",
"438 95 OFFCURVE",
"344 10 OFFCURVE",
"218 10 CURVE SMOOTH"
);
},
{
closed = 1;
nodes = (
"355 -10 OFFCURVE",
"458 84 OFFCURVE",
"458 210 CURVE SMOOTH",
"458 330 LINE SMOOTH",
"458 477 OFFCURVE",
"409 530 OFFCURVE",
"271 530 CURVE SMOOTH",
"193 530 OFFCURVE",
"119 513 OFFCURVE",
"51 480 CURVE",
"60 462 LINE",
"125 494 OFFCURVE",
"196 510 OFFCURVE",
"271 510 CURVE SMOOTH",
"397 510 OFFCURVE",
"438 465 OFFCURVE",
"438 325 CURVE",
"339 325 LINE SMOOTH",
"144 325 OFFCURVE",
"38 262 OFFCURVE",
"38 145 CURVE SMOOTH",
"38 50 OFFCURVE",
"108 -10 OFFCURVE",
"218 -10 CURVE SMOOTH"
);
}
);
width = 924;
},
{
anchors = (
{
name = bottom;
position = "{454, 0}";
},
{
name = top;
position = "{454, 520}";
}
);
layerId = "9527F797-22C1-480E-A1FE-2CDBEBE1FD4C";
paths = (
{
closed = 1;
nodes = (
"728 -10 OFFCURVE",
"789 2 OFFCURVE",
"836 24 CURVE",
"821 114 LINE",
"778 93 OFFCURVE",
"716 80 OFFCURVE",
"660 80 CURVE SMOOTH",
"547 80 OFFCURVE",
"492 133 OFFCURVE",
"492 240 CURVE",
"492 270 LINE",
"492 383 OFFCURVE",
"541 442 OFFCURVE",
"633 442 CURVE SMOOTH",
"724 442 OFFCURVE",
"770 385 OFFCURVE",
"770 270 CURVE",
"786 300 LINE",
"446 300 LINE",
"446 215 LINE",
"869 215 LINE",
"870 223 OFFCURVE",
"871 248 OFFCURVE",
"871 265 CURVE SMOOTH",
"871 434 OFFCURVE",
"785 530 OFFCURVE",
"633 530 CURVE SMOOTH",
"479 530 OFFCURVE",
"386 429 OFFCURVE",
"386 260 CURVE SMOOTH",
"386 86 OFFCURVE",
"484 -10 OFFCURVE",
"664 -10 CURVE SMOOTH"
);
},
{
closed = 1;
nodes = (
"174 78 OFFCURVE",
"139 107 OFFCURVE",
"139 158 CURVE SMOOTH",
"139 224 OFFCURVE",
"200 256 OFFCURVE",
"324 256 CURVE SMOOTH",
"386 256 LINE",
"386 203 LINE SMOOTH",
"386 131 OFFCURVE",
"323 78 OFFCURVE",
"237 78 CURVE SMOOTH"
);
},
{
closed = 1;
nodes = (
"382 -10 OFFCURVE",
"491 90 OFFCURVE",
"491 250 CURVE SMOOTH",
"491 325 LINE SMOOTH",
"491 475 OFFCURVE",
"436 530 OFFCURVE",
"286 530 CURVE SMOOTH",
"201 530 OFFCURVE",
"116 515 OFFCURVE",
"45 486 CURVE",
"60 397 LINE",
"123 424 OFFCURVE",
"202 440 OFFCURVE",
"272 440 CURVE SMOOTH",
"358 440 OFFCURVE",
"386 415 OFFCURVE",
"386 338 CURVE",
"309 338 LINE SMOOTH",
"126 338 OFFCURVE",
"31 273 OFFCURVE",
"31 148 CURVE SMOOTH",
"31 47 OFFCURVE",
"95 -10 OFFCURVE",
"209 -10 CURVE SMOOTH"
);
}
);
width = 908;
},
{
anchors = (
{
name = bottom;
position = "{448, 0}";
},
{
name = top;
position = "{448, 520}";
}
);
layerId = "9E6B41AB-2970-4C41-8B35-4DBE0D296A43";
paths = (
{
closed = 1;
nodes = (
"708 -10 OFFCURVE",
"778 1 OFFCURVE",
"823 18 CURVE",
"803 158 LINE",
"759 142 OFFCURVE",
"689 130 OFFCURVE",
"635 130 CURVE SMOOTH",
"557 130 OFFCURVE",
"525 156 OFFCURVE",
"525 220 CURVE SMOOTH",
"525 280 LINE SMOOTH",
"525 367 OFFCURVE",
"549 405 OFFCURVE",
"603 405 CURVE SMOOTH",
"657 405 OFFCURVE",
"681 367 OFFCURVE",
"681 280 CURVE",
"704 315 LINE",
"443 315 LINE",
"443 200 LINE",
"859 200 LINE",
"861 211 OFFCURVE",
"863 246 OFFCURVE",
"863 270 CURVE SMOOTH",
"863 434 OFFCURVE",
"767 530 OFFCURVE",
"603 530 CURVE SMOOTH",
"435 530 OFFCURVE",
"333 428 OFFCURVE",
"333 260 CURVE SMOOTH",
"333 86 OFFCURVE",
"443 -10 OFFCURVE",
"643 -10 CURVE SMOOTH"
);
},
{
closed = 1;
nodes = (
"219 125 OFFCURVE",
"200 141 OFFCURVE",
"200 170 CURVE SMOOTH",
"200 208 OFFCURVE",
"233 225 OFFCURVE",
"309 225 CURVE SMOOTH",
"333 225 LINE",
"333 195 LINE SMOOTH",
"333 153 OFFCURVE",
"302 125 OFFCURVE",
"255 125 CURVE SMOOTH"
);
},
{
closed = 1;
nodes = (
"426 -10 OFFCURVE",
"525 101 OFFCURVE",
"525 310 CURVE SMOOTH",
"525 320 LINE SMOOTH",
"525 473 OFFCURVE",
"464 530 OFFCURVE",
"300 530 CURVE SMOOTH",
"208 530 OFFCURVE",
"112 516 OFFCURVE",
"39 491 CURVE",
"59 351 LINE",
"125 375 OFFCURVE",
"208 390 OFFCURVE",
"273 390 CURVE SMOOTH",
"323 390 OFFCURVE",
"333 380 OFFCURVE",
"333 330 CURVE",
"279 330 LINE SMOOTH",
"116 330 OFFCURVE",
"24 265 OFFCURVE",
"24 150 CURVE SMOOTH",
"24 48 OFFCURVE",
"102 -10 OFFCURVE",
"239 -10 CURVE SMOOTH"
);
}
);
width = 891;
}
);
leftKerningGroup = a;
leftMetricsKey = "=a";
rightKerningGroup = o;
rightMetricsKey = "=e";
unicode = 00E6;
},
{
color = 10;
glyphname = b;
lastChange = "2021-01-24 11:31:25 +0000";
layers = (
{
layerId = "D65C9A1E-0FCA-4B2D-8EDF-9F36CA9182A1";
paths = (
{
closed = 1;
nodes = (
"456 -10 OFFCURVE",
"535 91 OFFCURVE",
"535 260 CURVE SMOOTH",
"535 429 OFFCURVE",
"456 530 OFFCURVE",
"321 530 CURVE SMOOTH",
"231 530 OFFCURVE",
"152 485 OFFCURVE",
"117 412 CURVE",
"115 412 LINE",
"115 730 LINE",
"95 730 LINE",
"95 0 LINE",
"115 0 LINE",
"115 108 LINE",
"117 108 LINE",
"152 35 OFFCURVE",
"231 -10 OFFCURVE",
"321 -10 CURVE SMOOTH"
);
},
{
closed = 1;
nodes = (
"204 10 OFFCURVE",
"115 92 OFFCURVE",
"115 200 CURVE SMOOTH",
"115 320 LINE SMOOTH",
"115 428 OFFCURVE",
"204 510 OFFCURVE",
"321 510 CURVE SMOOTH",
"444 510 OFFCURVE",
"515 419 OFFCURVE",
"515 260 CURVE SMOOTH",
"515 101 OFFCURVE",
"444 10 OFFCURVE",
"321 10 CURVE SMOOTH"
);
}
);
width = 583;
},
{
layerId = "9527F797-22C1-480E-A1FE-2CDBEBE1FD4C";
paths = (
{
closed = 1;
nodes = (
"494 -10 OFFCURVE",
"577 91 OFFCURVE",
"577 260 CURVE SMOOTH",
"577 429 OFFCURVE",
"494 530 OFFCURVE",
"355 530 CURVE SMOOTH",
"285 530 OFFCURVE",
"224 504 OFFCURVE",
"187 458 CURVE",
"185 458 LINE",
"185 730 LINE",
"77 730 LINE",
"77 0 LINE",
"180 0 LINE",
"181 62 LINE",
"183 62 LINE",
"221 16 OFFCURVE",
"284 -10 OFFCURVE",
"355 -10 CURVE SMOOTH"
);
},
{
closed = 1;
nodes = (
"247 80 OFFCURVE",
"185 136 OFFCURVE",
"185 211 CURVE SMOOTH",
"185 309 LINE SMOOTH",
"185 384 OFFCURVE",
"247 440 OFFCURVE",
"330 440 CURVE SMOOTH",
"420 440 OFFCURVE",
"471 375 OFFCURVE",
"471 260 CURVE SMOOTH",
"471 145 OFFCURVE",
"420 80 OFFCURVE",
"330 80 CURVE SMOOTH"
);
}
);
width = 616;
},
{
layerId = "9E6B41AB-2970-4C41-8B35-4DBE0D296A43";
paths = (
{
closed = 1;
nodes = (
"545 -10 OFFCURVE",
"619 85 OFFCURVE",
"619 260 CURVE SMOOTH",
"619 435 OFFCURVE",
"545 530 OFFCURVE",
"410 530 CURVE SMOOTH",
"348 530 OFFCURVE",
"305 510 OFFCURVE",
"257 460 CURVE",
"255 460 LINE",
"255 730 LINE",
"59 730 LINE",
"59 0 LINE",
"245 0 LINE",
"247 60 LINE",
"249 60 LINE",
"298 11 OFFCURVE",
"346 -10 OFFCURVE",
"410 -10 CURVE SMOOTH"
);
},
{
closed = 1;
nodes = (
"289 140 OFFCURVE",
"255 172 OFFCURVE",
"255 220 CURVE SMOOTH",
"255 300 LINE SMOOTH",
"255 348 OFFCURVE",
"289 380 OFFCURVE",
"339 380 CURVE SMOOTH",
"396 380 OFFCURVE",
"427 338 OFFCURVE",
"427 260 CURVE SMOOTH",
"427 182 OFFCURVE",
"396 140 OFFCURVE",
"339 140 CURVE SMOOTH"
);
}
);
width = 648;
},
{
associatedMasterId = "D65C9A1E-0FCA-4B2D-8EDF-9F36CA9182A1";
layerId = "4577C09C-2268-4FDD-969E-4BC558CAFA0A";
name = "Light {232}";
paths = (
{
closed = 1;
nodes = (
"469 -10 OFFCURVE",
"548 88 OFFCURVE",
"548 260 CURVE SMOOTH",
"548 432 OFFCURVE",
"469 530 OFFCURVE",
"331 530 CURVE SMOOTH",
"249 530 OFFCURVE",
"175 495 OFFCURVE",
"139 441 CURVE",
"137 441 LINE",
"137 730 LINE",
"88 730 LINE",
"88 0 LINE",
"135 0 LINE",
"136 79 LINE",
"138 79 LINE",
"174 25 OFFCURVE",
"249 -10 OFFCURVE",
"331 -10 CURVE SMOOTH"
);
},
{
closed = 1;
nodes = (
"217 33 OFFCURVE",
"137 107 OFFCURVE",
"137 204 CURVE SMOOTH",
"137 316 LINE SMOOTH",
"137 413 OFFCURVE",
"217 487 OFFCURVE",
"323 487 CURVE SMOOTH",
"435 487 OFFCURVE",
"499 404 OFFCURVE",
"499 260 CURVE SMOOTH",
"499 116 OFFCURVE",
"435 33 OFFCURVE",
"323 33 CURVE SMOOTH"
);
}
);
width = 593;
}
);
leftKerningGroup = b;
leftMetricsKey = "=h";
rightKerningGroup = o;
rightMetricsKey = "=o";
unicode = 0062;
},
{
color = 10;
glyphname = c;
lastChange = "2021-01-24 11:31:25 +0000";
layers = (
{
anchors = (
{
name = bottom;
position = "{297, 0}";
},
{
name = bottom_cd;
position = "{312, 0}";
},
{
name = top;
position = "{297, 520}";
}
);
layerId = "9E6B41AB-2970-4C41-8B35-4DBE0D296A43";
paths = (
{
closed = 1;
nodes = (
"402 -10 OFFCURVE",
"455 2 OFFCURVE",
"509 30 CURVE",
"479 170 LINE",
"431 143 OFFCURVE",
"391 130 OFFCURVE",
"349 130 CURVE SMOOTH",
"271 130 OFFCURVE",
"229 175 OFFCURVE",
"229 260 CURVE SMOOTH",
"229 345 OFFCURVE",
"271 390 OFFCURVE",
"349 390 CURVE SMOOTH",
"391 390 OFFCURVE",
"431 377 OFFCURVE",
"479 350 CURVE",
"509 490 LINE",
"455 518 OFFCURVE",
"402 530 OFFCURVE",
"334 530 CURVE SMOOTH",
"139 530 OFFCURVE",
"29 433 OFFCURVE",
"29 260 CURVE SMOOTH",
"29 87 OFFCURVE",
"139 -10 OFFCURVE",
"334 -10 CURVE SMOOTH"
);
}
);
width = 556;
},
{
anchors = (
{
name = bottom;
position = "{287, 0}";
},
{
name = bottom_cd;
position = "{297, 0}";
},
{
name = top;
position = "{287, 520}";
}
);
layerId = "9527F797-22C1-480E-A1FE-2CDBEBE1FD4C";
paths = (
{
closed = 1;
nodes = (
"379 -10 OFFCURVE",
"429 1 OFFCURVE",
"479 27 CURVE",
"460 114 LINE",
"414 90 OFFCURVE",
"371 80 OFFCURVE",
"327 80 CURVE SMOOTH",
"214 80 OFFCURVE",
"149 146 OFFCURVE",
"149 260 CURVE SMOOTH",
"149 374 OFFCURVE",
"214 440 OFFCURVE",
"327 440 CURVE SMOOTH",
"371 440 OFFCURVE",
"414 430 OFFCURVE",
"460 406 CURVE",
"479 493 LINE",
"429 519 OFFCURVE",
"379 530 OFFCURVE",
"320 530 CURVE SMOOTH",
"143 530 OFFCURVE",
"39 430 OFFCURVE",
"39 260 CURVE SMOOTH",
"39 90 OFFCURVE",
"143 -10 OFFCURVE",
"320 -10 CURVE SMOOTH"
);
}
);
width = 541;
},
{
anchors = (
{
name = bottom;
position = "{275, 0}";
},
{
name = bottom_cd;
position = "{280, 0}";
},
{
name = top;
position = "{275, 520}";
}
);
layerId = "D65C9A1E-0FCA-4B2D-8EDF-9F36CA9182A1";
paths = (
{
closed = 1;
nodes = (
"355 -10 OFFCURVE",
"401 1 OFFCURVE",
"448 25 CURVE",
"439 43 LINE",
"395 20 OFFCURVE",
"352 10 OFFCURVE",
"304 10 CURVE SMOOTH",
"157 10 OFFCURVE",
"68 105 OFFCURVE",
"68 260 CURVE SMOOTH",
"68 415 OFFCURVE",
"157 510 OFFCURVE",
"304 510 CURVE SMOOTH",
"352 510 OFFCURVE",
"395 500 OFFCURVE",
"439 477 CURVE",
"448 495 LINE",
"401 519 OFFCURVE",
"355 530 OFFCURVE",
"304 530 CURVE SMOOTH",
"146 530 OFFCURVE",
"48 426 OFFCURVE",
"48 260 CURVE SMOOTH",
"48 94 OFFCURVE",
"146 -10 OFFCURVE",
"304 -10 CURVE SMOOTH"
);
}
);
width = 524;
}
);
leftKerningGroup = o;
leftMetricsKey = "=o";
rightKerningGroup = c;
rightMetricsKey = "=h";
unicode = 0063;
},
{
color = 11;
glyphname = eth;
lastChange = "2021-01-24 11:31:24 +0000";
layers = (
{
layerId = "D65C9A1E-0FCA-4B2D-8EDF-9F36CA9182A1";
rightMetricsKey = "=d*.3";
paths = (
{
closed = 1;
nodes = (
"428 -10 OFFCURVE",
"518 84 OFFCURVE",
"518 235 CURVE SMOOTH",
"518 445 OFFCURVE",
"339 735 OFFCURVE",
"175 790 CURVE",
"168 772 LINE",
"284 733 OFFCURVE",
"412 566 OFFCURVE",
"469 399 CURVE",
"467 398 LINE",
"426 451 OFFCURVE",
"363 480 OFFCURVE",
"283 480 CURVE SMOOTH",
"138 480 OFFCURVE",
"48 386 OFFCURVE",
"48 235 CURVE SMOOTH",
"48 84 OFFCURVE",
"138 -10 OFFCURVE",
"283 -10 CURVE SMOOTH"
);
},
{
closed = 1;
nodes = (
"149 10 OFFCURVE",
"68 95 OFFCURVE",
"68 235 CURVE SMOOTH",
"68 375 OFFCURVE",
"149 460 OFFCURVE",
"283 460 CURVE SMOOTH",
"417 460 OFFCURVE",
"498 375 OFFCURVE",
"498 235 CURVE SMOOTH",
"498 95 OFFCURVE",
"417 10 OFFCURVE",
"283 10 CURVE SMOOTH"
);
},
{
closed = 1;
nodes = (
"549 697 LINE",
"541 715 LINE",
"101 540 LINE",
"109 522 LINE"
);
}
);
width = 578;
},
{
layerId = "9527F797-22C1-480E-A1FE-2CDBEBE1FD4C";
rightMetricsKey = "=d*.5";
paths = (
{
closed = 1;
nodes = (
"458 -10 OFFCURVE",
"549 88 OFFCURVE",
"549 263 CURVE SMOOTH",
"549 544 OFFCURVE",
"384 758 OFFCURVE",
"144 790 CURVE",
"124 700 LINE",
"262 681 OFFCURVE",
"375 579 OFFCURVE",
"418 435 CURVE",
"416 434 LINE",
"383 465 OFFCURVE",
"338 480 OFFCURVE",
"279 480 CURVE SMOOTH",
"130 480 OFFCURVE",
"39 391 OFFCURVE",
"39 243 CURVE SMOOTH",
"39 84 OFFCURVE",
"134 -10 OFFCURVE",
"294 -10 CURVE SMOOTH"
);
},
{
closed = 1;
nodes = (
"201 80 OFFCURVE",
"147 140 OFFCURVE",
"147 243 CURVE SMOOTH",
"147 341 OFFCURVE",
"196 390 OFFCURVE",
"294 390 CURVE SMOOTH",
"392 390 OFFCURVE",
"441 341 OFFCURVE",
"441 243 CURVE SMOOTH",
"441 140 OFFCURVE",
"387 80 OFFCURVE",
"294 80 CURVE SMOOTH"
);
},
{
closed = 1;
nodes = (
"559 665 LINE",
"523 749 LINE",
"83 574 LINE",
"119 490 LINE"
);
}
);
width = 598;
},
{
layerId = "9E6B41AB-2970-4C41-8B35-4DBE0D296A43";
rightMetricsKey = "=d*.7";
paths = (
{
closed = 1;
nodes = (
"490 -10 OFFCURVE",
"579 84 OFFCURVE",
"579 280 CURVE SMOOTH",
"579 601 OFFCURVE",
"421 776 OFFCURVE",
"119 790 CURVE",
"79 660 LINE",
"243 652 OFFCURVE",
"360 575 OFFCURVE",
"366 471 CURVE",
"364 470 LINE",
"340 476 OFFCURVE",
"308 480 OFFCURVE",
"274 480 CURVE SMOOTH",
"118 480 OFFCURVE",
"29 397 OFFCURVE",
"29 250 CURVE SMOOTH",
"29 89 OFFCURVE",
"133 -10 OFFCURVE",
"304 -10 CURVE SMOOTH"
);
},
{
closed = 1;
nodes = (
"248 125 OFFCURVE",
"223 163 OFFCURVE",
"223 250 CURVE SMOOTH",
"223 337 OFFCURVE",
"248 375 OFFCURVE",
"304 375 CURVE SMOOTH",
"360 375 OFFCURVE",
"385 337 OFFCURVE",
"385 250 CURVE SMOOTH",
"385 163 OFFCURVE",
"360 125 OFFCURVE",
"304 125 CURVE SMOOTH"
);
},
{
closed = 1;
nodes = (
"564 643 LINE",
"509 773 LINE",
"69 598 LINE",
"124 468 LINE"
);
}
);
width = 620;
},
{
associatedMasterId = "D65C9A1E-0FCA-4B2D-8EDF-9F36CA9182A1";
layerId = "7EB7DD1D-0E67-4B53-AED1-36A39ED50BF4";
rightMetricsKey = "=d*.3";
name = "Light {232}";
paths = (
{
closed = 1;
nodes = (
"438 -10 OFFCURVE",
"528 85 OFFCURVE",
"528 244 CURVE SMOOTH",
"528 478 OFFCURVE",
"354 743 OFFCURVE",
"164 790 CURVE",
"149 749 LINE",
"271 720 OFFCURVE",
"394 578 OFFCURVE",
"449 423 CURVE",
"447 422 LINE",
"408 459 OFFCURVE",
"352 480 OFFCURVE",
"281 480 CURVE SMOOTH",
"135 480 OFFCURVE",
"45 388 OFFCURVE",
"45 238 CURVE SMOOTH",
"45 84 OFFCURVE",
"136 -10 OFFCURVE",
"286 -10 CURVE SMOOTH"
);
},
{
closed = 1;
nodes = (
"166 33 OFFCURVE",
"94 110 OFFCURVE",
"94 238 CURVE SMOOTH",
"94 364 OFFCURVE",
"164 437 OFFCURVE",
"286 437 CURVE SMOOTH",
"408 437 OFFCURVE",
"479 364 OFFCURVE",
"479 238 CURVE SMOOTH",
"479 110 OFFCURVE",
"407 33 OFFCURVE",
"286 33 CURVE SMOOTH"
);
},
{
closed = 1;
nodes = (
"552 686 LINE",
"535 726 LINE",
"95 551 LINE",
"112 511 LINE"
);
}
);
width = 578;
}
);
leftKerningGroup = o;
leftMetricsKey = "=o";
rightKerningGroup = o;
rightMetricsKey = "=d*.6";
unicode = 00F0;
},
{
color = 11;
glyphname = dcroat;
lastChange = "2021-01-23 10:49:56 +0000";
layers = (
{
components = (
{
name = d;
}
);
layerId = "D65C9A1E-0FCA-4B2D-8EDF-9F36CA9182A1";
paths = (
{
closed = 1;
nodes = (
"587 605 LINE",
"587 625 LINE",
"167 625 LINE",
"167 605 LINE"
);
}
);
width = 621;
},
{
components = (
{
alignment = -1;
name = d;
}
);
layerId = "9527F797-22C1-480E-A1FE-2CDBEBE1FD4C";
paths = (
{
closed = 1;
nodes = (
"633 570 LINE",
"633 660 LINE",
"213 660 LINE",
"213 570 LINE"
);
}
);
width = 663;
},
{
components = (
{
name = d;
}
);
layerId = "9E6B41AB-2970-4C41-8B35-4DBE0D296A43";
paths = (
{
closed = 1;
nodes = (
"679 545 LINE",
"679 685 LINE",
"259 685 LINE",
"259 545 LINE"
);
}
);
width = 707;
}
);
leftKerningGroup = o;
leftMetricsKey = "=d";
rightKerningGroup = W;
rightMetricsKey = "=W";
unicode = 0111;
},
{
color = 10;
glyphname = e;
lastChange = "2021-01-23 09:26:03 +0000";
layers = (
{
anchors = (
{
name = bottom;
position = "{287, 0}";
},
{
name = ogonek;
position = "{502, 24}";
},
{
name = top;
position = "{287, 520}";
}
);
layerId = "9527F797-22C1-480E-A1FE-2CDBEBE1FD4C";
paths = (
{
closed = 1;
nodes = (
"385 -10 OFFCURVE",
"453 3 OFFCURVE",
"504 24 CURVE",
"490 111 LINE",
"441 92 OFFCURVE",
"372 80 OFFCURVE",
"316 80 CURVE SMOOTH",
"201 80 OFFCURVE",
"145 132 OFFCURVE",
"145 240 CURVE",
"145 270 LINE",
"145 382 OFFCURVE",
"196 442 OFFCURVE",
"292 442 CURVE SMOOTH",
"383 442 OFFCURVE",
"428 387 OFFCURVE",
"428 274 CURVE",
"445 300 LINE",
"99 300 LINE",
"99 215 LINE",
"527 215 LINE",
"528 227 OFFCURVE",
"529 251 OFFCURVE",
"529 269 CURVE SMOOTH",
"529 436 OFFCURVE",
"444 530 OFFCURVE",
"292 530 CURVE SMOOTH",
"134 530 OFFCURVE",
"39 428 OFFCURVE",
"39 260 CURVE SMOOTH",
"39 87 OFFCURVE",
"140 -10 OFFCURVE",
"320 -10 CURVE SMOOTH"
);
}
);
width = 566;
},
{
anchors = (
{
name = bottom;
position = "{299, 0}";
},
{
name = ogonek;
position = "{529, 18}";
},
{
name = top;
position = "{299, 520}";
}
);
layerId = "9E6B41AB-2970-4C41-8B35-4DBE0D296A43";
paths = (
{
closed = 1;
nodes = (
"408 -10 OFFCURVE",
"482 1 OFFCURVE",
"529 18 CURVE",
"509 158 LINE",
"462 142 OFFCURVE",
"388 130 OFFCURVE",
"331 130 CURVE SMOOTH",
"253 130 OFFCURVE",
"221 156 OFFCURVE",
"221 220 CURVE SMOOTH",
"221 280 LINE SMOOTH",
"221 367 OFFCURVE",
"245 405 OFFCURVE",
"299 405 CURVE SMOOTH",
"353 405 OFFCURVE",
"377 367 OFFCURVE",
"377 280 CURVE",
"400 315 LINE",
"139 315 LINE",
"139 200 LINE",
"555 200 LINE",
"557 211 OFFCURVE",
"559 246 OFFCURVE",
"559 270 CURVE SMOOTH",
"559 434 OFFCURVE",
"463 530 OFFCURVE",
"299 530 CURVE SMOOTH",
"131 530 OFFCURVE",
"29 428 OFFCURVE",
"29 260 CURVE SMOOTH",
"29 86 OFFCURVE",
"139 -10 OFFCURVE",
"339 -10 CURVE SMOOTH"
);
}
);
width = 587;
},
{
anchors = (
{
name = bottom;
position = "{274, 0}";
},
{
name = ogonek;
position = "{473, 30}";
},
{
name = top;
position = "{274, 520}";
}
);
layerId = "D65C9A1E-0FCA-4B2D-8EDF-9F36CA9182A1";
paths = (
{
closed = 1;
nodes = (
"362 -10 OFFCURVE",
"426 4 OFFCURVE",
"478 30 CURVE",
"469 48 LINE",
"420 24 OFFCURVE",
"360 10 OFFCURVE",
"300 10 CURVE SMOOTH",
"150 10 OFFCURVE",
"68 97 OFFCURVE",
"68 260 CURVE",
"68 260 LINE",
"68 418 OFFCURVE",
"148 510 OFFCURVE",
"283 510 CURVE SMOOTH",
"411 510 OFFCURVE",
"478 428 OFFCURVE",
"478 268 CURVE",
"488 278 LINE",
"58 278 LINE",
"58 258 LINE",
"498 258 LINE",
"498 263 OFFCURVE",
"498 263 OFFCURVE",
"498 268 CURVE SMOOTH",
"498 438 OFFCURVE",
"423 530 OFFCURVE",
"283 530 CURVE SMOOTH",
"136 530 OFFCURVE",
"48 428 OFFCURVE",
"48 260 CURVE SMOOTH",
"48 87 OFFCURVE",
"138 -10 OFFCURVE",
"300 -10 CURVE SMOOTH"
);
}
);
width = 544;
}
);
leftKerningGroup = o;
leftMetricsKey = "=o";
rightKerningGroup = o;
rightMetricsKey = "=o*.95";
unicode = 0065;
},
{
color = 10;
glyphname = f;
lastChange = "2021-01-25 12:30:20 +0000";
layers = (
{
layerId = "9527F797-22C1-480E-A1FE-2CDBEBE1FD4C";
paths = (
{
closed = 1;
nodes = (
"270 0 LINE",
"270 430 LINE",
"440 430 LINE",
"440 520 LINE",
"270 520 LINE",
"270 577 LINE SMOOTH",
"270 650 OFFCURVE",
"294 677 OFFCURVE",
"359 677 CURVE SMOOTH",
"384 677 OFFCURVE",
"407 673 OFFCURVE",
"430 665 CURVE",
"443 755 LINE",
"416 764 OFFCURVE",
"379 770 OFFCURVE",
"342 770 CURVE SMOOTH",
"222 770 OFFCURVE",
"161 708 OFFCURVE",
"161 585 CURVE SMOOTH",
"161 520 LINE",
"23 520 LINE",
"23 430 LINE",
"161 430 LINE",
"161 0 LINE"
);
}
);
width = 466;
},
{
layerId = "9E6B41AB-2970-4C41-8B35-4DBE0D296A43";
paths = (
{
closed = 1;
nodes = (
"327 0 LINE",
"327 380 LINE",
"463 380 LINE",
"463 520 LINE",
"327 520 LINE",
"327 550 LINE SMOOTH",
"327 605 OFFCURVE",
"340 620 OFFCURVE",
"382 620 CURVE SMOOTH",
"401 620 OFFCURVE",
"423 617 OFFCURVE",
"448 610 CURVE",
"468 755 LINE",
"428 765 OFFCURVE",
"383 770 OFFCURVE",
"347 770 CURVE SMOOTH",
"205 770 OFFCURVE",
"129 693 OFFCURVE",
"129 550 CURVE SMOOTH",
"129 520 LINE",
"18 520 LINE",
"18 380 LINE",
"129 380 LINE",
"129 0 LINE"
);
}
);
width = 486;
},
{
layerId = "D65C9A1E-0FCA-4B2D-8EDF-9F36CA9182A1";
paths = (
{
closed = 1;
nodes = (
"212 0 LINE",
"212 500 LINE",
"416 500 LINE",
"416 520 LINE",
"212 520 LINE",
"212 620 LINE SMOOTH",
"212 711 OFFCURVE",
"249 750 OFFCURVE",
"336 750 CURVE SMOOTH",
"363 750 OFFCURVE",
"384 746 OFFCURVE",
"411 736 CURVE",
"418 755 LINE",
"388 766 OFFCURVE",
"364 770 OFFCURVE",
"336 770 CURVE SMOOTH",
"238 770 OFFCURVE",
"192 722 OFFCURVE",
"192 620 CURVE SMOOTH",
"192 520 LINE",
"28 520 LINE",
"28 500 LINE",
"192 500 LINE",
"192 0 LINE"
);
}
);
width = 447;
}
);
leftKerningGroup = f;
leftMetricsKey = "=h*.3";
rightKerningGroup = f;
rightMetricsKey = "=d*.3";
unicode = 0066;
},
{
color = 10;
glyphname = g;
lastChange = "2021-01-24 11:31:25 +0000";
layers = (
{
anchors = (
{
name = bottom;
position = "{290, -140}";
},
{
name = top;
position = "{290, 520}";
}
);
layerId = "D65C9A1E-0FCA-4B2D-8EDF-9F36CA9182A1";
paths = (
{
closed = 1;
nodes = (
"421 -220 OFFCURVE",
"488 -141 OFFCURVE",
"488 40 CURVE SMOOTH",
"488 520 LINE",
"468 520 LINE",
"468 416 LINE",
"466 416 LINE",
"431 487 OFFCURVE",
"355 530 OFFCURVE",
"263 530 CURVE SMOOTH",
"128 530 OFFCURVE",
"48 435 OFFCURVE",
"48 275 CURVE SMOOTH",
"48 115 OFFCURVE",
"128 20 OFFCURVE",
"263 20 CURVE SMOOTH",
"355 20 OFFCURVE",
"431 63 OFFCURVE",
"466 134 CURVE",
"468 134 LINE",
"468 40 LINE SMOOTH",
"468 -130 OFFCURVE",
"409 -200 OFFCURVE",
"269 -200 CURVE SMOOTH",
"203 -200 OFFCURVE",
"138 -184 OFFCURVE",
"81 -154 CURVE",
"72 -172 LINE",
"131 -203 OFFCURVE",
"199 -220 OFFCURVE",
"269 -220 CURVE SMOOTH"
);
},
{
closed = 1;
nodes = (
"139 40 OFFCURVE",
"68 126 OFFCURVE",
"68 275 CURVE SMOOTH",
"68 424 OFFCURVE",
"139 510 OFFCURVE",
"263 510 CURVE SMOOTH",
"381 510 OFFCURVE",
"468 434 OFFCURVE",
"468 331 CURVE SMOOTH",
"468 219 LINE SMOOTH",
"468 116 OFFCURVE",
"381 40 OFFCURVE",
"263 40 CURVE SMOOTH"
);
}
);
width = 583;
},
{
anchors = (
{
name = bottom;
position = "{307, -140}";
},
{
name = top;
position = "{307, 520}";
}
);
layerId = "9527F797-22C1-480E-A1FE-2CDBEBE1FD4C";
paths = (
{
closed = 1;
nodes = (
"451 -220 OFFCURVE",
"539 -129 OFFCURVE",
"539 55 CURVE SMOOTH",
"539 520 LINE",
"436 520 LINE",
"435 462 LINE",
"433 462 LINE",
"395 505 OFFCURVE",
"332 530 OFFCURVE",
"261 530 CURVE SMOOTH",
"122 530 OFFCURVE",
"39 435 OFFCURVE",
"39 275 CURVE SMOOTH",
"39 115 OFFCURVE",
"122 20 OFFCURVE",
"261 20 CURVE SMOOTH",
"330 20 OFFCURVE",
"391 44 OFFCURVE",
"429 88 CURVE",
"431 88 LINE",
"431 55 LINE SMOOTH",
"431 -75 OFFCURVE",
"382 -130 OFFCURVE",
"269 -130 CURVE SMOOTH",
"212 -130 OFFCURVE",
"145 -116 OFFCURVE",
"81 -90 CURVE",
"67 -179 LINE",
"131 -205 OFFCURVE",
"208 -220 OFFCURVE",
"278 -220 CURVE SMOOTH"
);
},
{
closed = 1;
nodes = (
"196 110 OFFCURVE",
"145 170 OFFCURVE",
"145 275 CURVE SMOOTH",
"145 380 OFFCURVE",
"196 440 OFFCURVE",
"286 440 CURVE SMOOTH",
"369 440 OFFCURVE",
"431 391 OFFCURVE",
"431 325 CURVE SMOOTH",
"431 225 LINE SMOOTH",
"431 159 OFFCURVE",
"369 110 OFFCURVE",
"286 110 CURVE SMOOTH"
);
}
);
width = 616;
},
{
anchors = (
{
name = bottom;
position = "{324, -140}";
},
{
name = top;
position = "{324, 520}";
}
);
layerId = "9E6B41AB-2970-4C41-8B35-4DBE0D296A43";
paths = (
{
closed = 1;
nodes = (
"480 -220 OFFCURVE",
"589 -116 OFFCURVE",
"589 70 CURVE SMOOTH",
"589 520 LINE",
"403 520 LINE",
"401 464 LINE",
"399 464 LINE",
"350 510 OFFCURVE",
"301 530 OFFCURVE",
"238 530 CURVE SMOOTH",
"103 530 OFFCURVE",
"29 440 OFFCURVE",
"29 275 CURVE SMOOTH",
"29 110 OFFCURVE",
"103 20 OFFCURVE",
"238 20 CURVE SMOOTH",
"300 20 OFFCURVE",
"342 38 OFFCURVE",
"391 86 CURVE",
"393 86 LINE",
"393 70 LINE",
"393 -33 OFFCURVE",
"354 -80 OFFCURVE",
"268 -80 CURVE SMOOTH",
"223 -80 OFFCURVE",
"152 -67 OFFCURVE",
"81 -46 CURVE",
"61 -186 LINE",
"130 -207 OFFCURVE",
"218 -220 OFFCURVE",
"287 -220 CURVE SMOOTH"
);
},
{
closed = 1;
nodes = (
"253 170 OFFCURVE",
"221 208 OFFCURVE",
"221 275 CURVE SMOOTH",
"221 342 OFFCURVE",
"253 380 OFFCURVE",
"309 380 CURVE SMOOTH",
"358 380 OFFCURVE",
"393 351 OFFCURVE",
"393 310 CURVE SMOOTH",
"393 240 LINE SMOOTH",
"393 199 OFFCURVE",
"358 170 OFFCURVE",
"309 170 CURVE SMOOTH"
);
}
);
width = 648;
},
{
anchors = (
{
name = bottom;
position = "{296, -140}";
},
{
name = top;
position = "{296, 520}";
}
);
associatedMasterId = "D65C9A1E-0FCA-4B2D-8EDF-9F36CA9182A1";
layerId = "2CB2E316-DF26-4020-8926-4C268D4E13F3";
name = "Light {232}";
paths = (
{
closed = 1;
nodes = (
"431 -220 OFFCURVE",
"505 -137 OFFCURVE",
"505 45 CURVE SMOOTH",
"505 520 LINE",
"457 520 LINE",
"457 445 LINE",
"455 445 LINE",
"420 497 OFFCURVE",
"345 530 OFFCURVE",
"262 530 CURVE SMOOTH",
"124 530 OFFCURVE",
"45 437 OFFCURVE",
"45 275 CURVE SMOOTH",
"45 113 OFFCURVE",
"124 20 OFFCURVE",
"262 20 CURVE SMOOTH",
"344 20 OFFCURVE",
"419 53 OFFCURVE",
"454 105 CURVE",
"456 105 LINE",
"456 45 LINE SMOOTH",
"456 -112 OFFCURVE",
"400 -177 OFFCURVE",
"269 -177 CURVE SMOOTH",
"206 -177 OFFCURVE",
"140 -162 OFFCURVE",
"81 -133 CURVE",
"70 -174 LINE",
"131 -204 OFFCURVE",
"202 -220 OFFCURVE",
"272 -220 CURVE SMOOTH"
);
},
{
closed = 1;
nodes = (
"158 63 OFFCURVE",
"93 140 OFFCURVE",
"93 275 CURVE SMOOTH",
"93 410 OFFCURVE",
"158 487 OFFCURVE",
"271 487 CURVE SMOOTH",
"377 487 OFFCURVE",
"456 419 OFFCURVE",
"456 329 CURVE SMOOTH",
"456 221 LINE SMOOTH",
"456 131 OFFCURVE",
"377 63 OFFCURVE",
"271 63 CURVE SMOOTH"
);
}
);
width = 593;
}
);
leftKerningGroup = o;
leftMetricsKey = "=d";
rightKerningGroup = g;
rightMetricsKey = "=u";
unicode = 0067;
},
{
color = 10;
glyphname = h;
lastChange = "2021-01-24 11:41:00 +0000";
layers = (
{
anchors = (
{
name = bottom;
position = "{290, 0}";
},
{
name = center;
position = "{290, 430}";
},
{
name = top;
position = "{290, 730}";
}
);
layerId = "D65C9A1E-0FCA-4B2D-8EDF-9F36CA9182A1";
paths = (
{
closed = 1;
nodes = (
"115 0 LINE",
"115 320 LINE SMOOTH",
"115 432 OFFCURVE",
"201 510 OFFCURVE",
"325 510 CURVE SMOOTH",
"434 510 OFFCURVE",
"485 449 OFFCURVE",
"485 320 CURVE SMOOTH",
"485 0 LINE",
"505 0 LINE",
"505 320 LINE SMOOTH",
"505 460 OFFCURVE",
"446 530 OFFCURVE",
"325 530 CURVE SMOOTH",
"230 530 OFFCURVE",
"153 487 OFFCURVE",
"117 412 CURVE",
"115 412 LINE",
"115 730 LINE",
"95 730 LINE",
"95 0 LINE"
);
}
);
width = 581;
},
{
anchors = (
{
name = bottom;
position = "{303, 0}";
},
{
name = center;
position = "{303, 430}";
},
{
name = top;
position = "{303, 730}";
}
);
layerId = "9527F797-22C1-480E-A1FE-2CDBEBE1FD4C";
paths = (
{
closed = 1;
nodes = (
"185 0 LINE",
"185 309 LINE SMOOTH",
"185 385 OFFCURVE",
"246 440 OFFCURVE",
"330 440 CURVE SMOOTH",
"405 440 OFFCURVE",
"439 396 OFFCURVE",
"439 300 CURVE SMOOTH",
"439 0 LINE",
"547 0 LINE",
"547 320 LINE SMOOTH",
"547 464 OFFCURVE",
"488 530 OFFCURVE",
"360 530 CURVE SMOOTH",
"284 530 OFFCURVE",
"227 506 OFFCURVE",
"187 458 CURVE",
"185 458 LINE",
"185 730 LINE",
"77 730 LINE",
"77 0 LINE"
);
}
);
width = 609;
},
{
anchors = (
{
name = bottom;
position = "{315, 0}";
},
{
name = center;
position = "{315, 430}";
},
{
name = top;
position = "{315, 730}";
}
);
layerId = "9E6B41AB-2970-4C41-8B35-4DBE0D296A43";
paths = (
{
closed = 1;
nodes = (
"255 0 LINE",
"255 300 LINE SMOOTH",
"255 341 OFFCURVE",
"288 370 OFFCURVE",
"334 370 CURVE SMOOTH",
"376 370 OFFCURVE",
"393 345 OFFCURVE",
"393 280 CURVE SMOOTH",
"393 0 LINE",
"589 0 LINE",
"589 320 LINE SMOOTH",
"589 466 OFFCURVE",
"535 530 OFFCURVE",
"414 530 CURVE SMOOTH",
"346 530 OFFCURVE",
"303 511 OFFCURVE",
"257 460 CURVE",
"255 460 LINE",
"255 730 LINE",
"59 730 LINE",
"59 0 LINE"
);
}
);
width = 636;
},
{
anchors = (
{
name = bottom;
position = "{293, 0}";
},
{
name = center;
position = "{293, 430}";
},
{
name = top;
position = "{293, 730}";
}
);
associatedMasterId = "D65C9A1E-0FCA-4B2D-8EDF-9F36CA9182A1";
layerId = "02FE662A-EEF6-4625-B8CE-6C497DD97EB0";
name = "Light {232}";
paths = (
{
closed = 1;
nodes = (
"137 0 LINE",
"137 316 LINE SMOOTH",
"137 416 OFFCURVE",
"215 487 OFFCURVE",
"326 487 CURVE SMOOTH",
"423 487 OFFCURVE",
"469 432 OFFCURVE",
"469 313 CURVE SMOOTH",
"469 0 LINE",
"518 0 LINE",
"518 320 LINE SMOOTH",
"518 463 OFFCURVE",
"460 530 OFFCURVE",
"336 530 CURVE SMOOTH",
"249 530 OFFCURVE",
"176 497 OFFCURVE",
"139 441 CURVE",
"137 441 LINE",
"137 730 LINE",
"88 730 LINE",
"88 0 LINE"
);
}
);
width = 588;
}
);
leftKerningGroup = b;
leftMetricsKey = "=H*.9";
rightKerningGroup = h;
rightMetricsKey = "=|*.8";
unicode = 0068;
},
{
color = 11;
glyphname = hbar;
lastChange = "2021-01-24 11:31:24 +0000";
layers = (
{
anchors = (
{
name = bottom;
position = "{339, 0}";
},
{
name = center;
position = "{339, 430}";
},
{
name = top;
position = "{339, 750}";
}
);
components = (
{
name = h;
transform = "{1, 0, 0, 1, 69, 0}";
}
);
layerId = "D65C9A1E-0FCA-4B2D-8EDF-9F36CA9182A1";
paths = (
{
closed = 1;
nodes = (
"454 625 LINE",
"34 625 LINE",
"34 605 LINE",
"454 605 LINE"
);
}
);
width = 640;
},
{
anchors = (
{
name = bottom;
position = "{358, 0}";
},
{
name = center;
position = "{358, 430}";
},
{
name = top;
position = "{358, 750}";
}
);
components = (
{
alignment = -1;
name = h;
transform = "{1, 0, 0, 1, 68, 0}";
}
);
layerId = "9527F797-22C1-480E-A1FE-2CDBEBE1FD4C";
paths = (
{
closed = 1;
nodes = (
"450 660 LINE",
"30 660 LINE",
"30 570 LINE",
"450 570 LINE"
);
}
);
width = 667;
},
{
anchors = (
{
name = bottom;
position = "{379, 0}";
},
{
name = center;
position = "{379, 430}";
},
{
name = top;
position = "{379, 750}";
}
);
components = (
{
name = h;
transform = "{1, 0, 0, 1, 69, 0}";
}
);
layerId = "9E6B41AB-2970-4C41-8B35-4DBE0D296A43";
paths = (
{
closed = 1;
nodes = (
"448 685 LINE",
"28 685 LINE",
"28 545 LINE",
"448 545 LINE"
);
}
);
width = 705;
}
);
leftKerningGroup = W;
leftMetricsKey = "=W";
rightKerningGroup = h;
rightMetricsKey = "=h";
unicode = 0127;
},
{
color = 10;
glyphname = i;
lastChange = "2021-01-24 11:31:25 +0000";
layers = (
{
layerId = "9527F797-22C1-480E-A1FE-2CDBEBE1FD4C";
paths = (
{
closed = 1;
nodes = (
"195 620 LINE",
"195 730 LINE",
"85 730 LINE",
"85 620 LINE"
);
},
{
closed = 1;
nodes = (
"195 0 LINE",
"195 520 LINE",
"85 520 LINE",
"85 0 LINE"
);
}
);
width = 280;
},
{
layerId = "9E6B41AB-2970-4C41-8B35-4DBE0D296A43";
paths = (
{
closed = 1;
nodes = (
"265 570 LINE",
"265 730 LINE",
"65 730 LINE",
"65 570 LINE"
);
},
{
closed = 1;
nodes = (
"265 0 LINE",
"265 500 LINE",
"65 500 LINE",
"65 0 LINE"
);
}
);
width = 330;
},
{
layerId = "D65C9A1E-0FCA-4B2D-8EDF-9F36CA9182A1";
paths = (
{
closed = 1;
nodes = (
"165 670 LINE",
"165 730 LINE",
"105 730 LINE",
"105 670 LINE"
);
},
{
closed = 1;
nodes = (
"145 0 LINE",
"145 520 LINE",
"125 520 LINE",
"125 0 LINE"
);
}
);
width = 270;
}
);
leftKerningGroup = l;
leftMetricsKey = "=l";
rightKerningGroup = l;
rightMetricsKey = "=|";
unicode = 0069;
},
{
color = 11;
glyphname = idotless;
lastChange = "2021-01-24 11:31:25 +0000";
layers = (
{
anchors = (
{
name = bottom;
position = "{115, 0}";
},
{
name = ogonek;
position = "{125, 0}";
},
{
name = top;
position = "{115, 520}";
}
);
layerId = "D65C9A1E-0FCA-4B2D-8EDF-9F36CA9182A1";
paths = (
{
closed = 1;
nodes = (
"125 0 LINE",
"125 520 LINE",
"105 520 LINE",
"105 0 LINE"
);
}
);
width = 230;
},
{
anchors = (
{
name = bottom;
position = "{140, 0}";
},
{
name = ogonek;
position = "{195, 0}";
},
{
name = top;
position = "{140, 520}";
}
);
layerId = "9527F797-22C1-480E-A1FE-2CDBEBE1FD4C";
paths = (
{
closed = 1;
nodes = (
"195 0 LINE",
"195 520 LINE",
"85 520 LINE",
"85 0 LINE"
);
}
);
width = 280;
},
{
anchors = (
{
name = bottom;
position = "{165, 0}";
},
{
name = ogonek;
position = "{265, 0}";
},
{
name = top;
position = "{165, 520}";
}
);
layerId = "9E6B41AB-2970-4C41-8B35-4DBE0D296A43";
paths = (
{
closed = 1;
nodes = (
"265 0 LINE",
"265 500 LINE",
"65 500 LINE",
"65 0 LINE"
);
}
);
width = 330;
}
);
leftKerningGroup = l;
leftMetricsKey = "=l";
rightKerningGroup = l;
rightMetricsKey = "=|";
unicode = 0131;
},
{
color = 10;
glyphname = j;
lastChange = "2021-01-25 12:51:12 +0000";
layers = (
{
layerId = "9527F797-22C1-480E-A1FE-2CDBEBE1FD4C";
leftMetricsKey = "=l-170";
paths = (
{
closed = 1;
nodes = (
"160 -199 OFFCURVE",
"225 -139 OFFCURVE",
"225 53 CURVE SMOOTH",
"225 510 LINE",
"115 510 LINE",
"115 53 LINE SMOOTH",
"115 -79 OFFCURVE",
"81 -109 OFFCURVE",
"-85 -126 CURVE",
"-69 -220 LINE"
);
},
{
closed = 1;
nodes = (
"235 620 LINE",
"235 730 LINE",
"105 730 LINE",
"105 620 LINE"
);
}
);
width = 320;
},
{
layerId = "9E6B41AB-2970-4C41-8B35-4DBE0D296A43";
leftMetricsKey = "=l-140";
paths = (
{
closed = 1;
nodes = (
"220 -200 OFFCURVE",
"295 -136 OFFCURVE",
"295 70 CURVE SMOOTH",
"295 500 LINE",
"95 500 LINE",
"95 70 LINE SMOOTH",
"95 -39 OFFCURVE",
"75 -56 OFFCURVE",
"-75 -70 CURVE",
"-45 -220 LINE"
);
},
{
closed = 1;
nodes = (
"295 570 LINE",
"295 730 LINE",
"95 730 LINE",
"95 570 LINE"
);
}
);
width = 360;
},
{
layerId = "D65C9A1E-0FCA-4B2D-8EDF-9F36CA9182A1";
leftMetricsKey = "=l-200";
paths = (
{
closed = 1;
nodes = (
"100 -198 OFFCURVE",
"155 -142 OFFCURVE",
"155 35 CURVE SMOOTH",
"155 520 LINE",
"135 520 LINE",
"135 35 LINE SMOOTH",
"135 -131 OFFCURVE",
"88 -179 OFFCURVE",
"-95 -200 CURVE",
"-93 -220 LINE"
);
},
{
closed = 1;
nodes = (
"175 670 LINE",
"175 730 LINE",
"115 730 LINE",
"115 670 LINE"
);
}
);
width = 280;
}
);
leftKerningGroup = l;
leftMetricsKey = "=-150";
rightKerningGroup = g;
rightMetricsKey = "=l";
unicode = 006A;
},
{
color = 11;
glyphname = jdotless;
lastChange = "2021-01-24 11:31:25 +0000";
layers = (
{
anchors = (
{
name = bottom;
position = "{115, -160}";
},
{
name = top;
position = "{115, 520}";
}
);
layerId = "D65C9A1E-0FCA-4B2D-8EDF-9F36CA9182A1";
paths = (
{
closed = 1;
nodes = (
"106 -220 OFFCURVE",
"160 -172 OFFCURVE",
"160 10 CURVE SMOOTH",
"160 520 LINE",
"140 520 LINE",
"140 10 LINE SMOOTH",
"140 -160 OFFCURVE",
"96 -200 OFFCURVE",
"-95 -200 CURVE",
"-95 -220 LINE"
);
}
);
width = 265;
},
{
anchors = (
{
name = bottom;
position = "{144, -160}";
},
{
name = top;
position = "{144, 520}";
}
);
layerId = "9527F797-22C1-480E-A1FE-2CDBEBE1FD4C";
paths = (
{
closed = 1;
nodes = (
"160 -220 OFFCURVE",
"228 -165 OFFCURVE",
"228 30 CURVE SMOOTH",
"228 520 LINE",
"118 520 LINE",
"118 30 LINE SMOOTH",
"118 -106 OFFCURVE",
"87 -130 OFFCURVE",
"-85 -130 CURVE",
"-80 -220 LINE"
);
}
);
width = 313;
},
{
anchors = (
{
name = bottom;
position = "{173, -160}";
},
{
name = top;
position = "{173, 520}";
}
);
layerId = "9E6B41AB-2970-4C41-8B35-4DBE0D296A43";
paths = (
{
closed = 1;
nodes = (
"212 -220 OFFCURVE",
"295 -158 OFFCURVE",
"295 50 CURVE SMOOTH",
"295 500 LINE",
"95 500 LINE",
"95 50 LINE SMOOTH",
"95 -63 OFFCURVE",
"78 -75 OFFCURVE",
"-75 -75 CURVE",
"-65 -220 LINE"
);
}
);
width = 360;
}
);
leftKerningGroup = l;
leftMetricsKey = "=j";
rightKerningGroup = g;
rightMetricsKey = "=j";
unicode = 0237;
},
{
color = 10;
glyphname = k;
lastChange = "2021-01-24 11:31:24 +0000";
layers = (
{
anchors = (
{
name = bottom;
position = "{245, 0}";
},
{
name = top;
position = "{245, 730}";
}
);
layerId = "D65C9A1E-0FCA-4B2D-8EDF-9F36CA9182A1";
rightMetricsKey = "=d*.4";
paths = (
{
closed = 1;
nodes = (
"117 0 LINE",
"117 262 LINE",
"119 262 LINE",
"481 0 LINE",
"515 0 LINE",
"142 270 LINE",
"498 520 LINE",
"464 520 LINE",
"119 278 LINE",
"117 278 LINE",
"117 730 LINE",
"95 730 LINE",
"95 0 LINE"
);
}
);
width = 553;
},
{
anchors = (
{
name = bottom;
position = "{273, 0}";
},
{
name = top;
position = "{273, 730}";
}
);
layerId = "9527F797-22C1-480E-A1FE-2CDBEBE1FD4C";
rightMetricsKey = "=d*.3";
paths = (
{
closed = 1;
nodes = (
"186 0 LINE",
"186 235 LINE",
"188 235 LINE",
"428 0 LINE",
"567 0 LINE",
"281 270 LINE",
"556 520 LINE",
"417 520 LINE",
"188 306 LINE",
"186 306 LINE",
"186 730 LINE",
"77 730 LINE",
"77 0 LINE"
);
}
);
width = 590;
},
{
anchors = (
{
name = bottom;
position = "{300, 0}";
},
{
name = top;
position = "{300, 730}";
}
);
layerId = "9E6B41AB-2970-4C41-8B35-4DBE0D296A43";
rightMetricsKey = "=d*.2";
paths = (
{
closed = 1;
nodes = (
"255 0 LINE",
"255 215 LINE",
"257 215 LINE",
"394 0 LINE",
"619 0 LINE",
"419 270 LINE",
"614 520 LINE",
"389 520 LINE",
"257 325 LINE",
"255 325 LINE",
"255 730 LINE",
"59 730 LINE",
"59 0 LINE"
);
}
);
width = 631;
}
);
leftKerningGroup = b;
leftMetricsKey = "=h";
rightKerningGroup = x;
rightMetricsKey = "=d*.2";
unicode = 006B;
},
{
color = 11;
glyphname = kgreenlandic;
lastChange = "2021-01-24 11:31:24 +0000";
layers = (
{
anchors = (
{
name = bottom;
position = "{245, 0}";
},
{
name = top;
position = "{245, 520}";
}
);
layerId = "D65C9A1E-0FCA-4B2D-8EDF-9F36CA9182A1";
paths = (
{
closed = 1;
nodes = (
"117 0 LINE",
"117 262 LINE",
"119 262 LINE",
"481 0 LINE",
"515 0 LINE",
"142 270 LINE",
"498 520 LINE",
"464 520 LINE",
"119 278 LINE",
"117 278 LINE",
"117 520 LINE",
"95 520 LINE",
"95 0 LINE"
);
}
);
width = 553;
},
{
anchors = (
{
name = bottom;
position = "{273, 0}";
},
{
name = top;
position = "{273, 520}";
}
);
layerId = "9527F797-22C1-480E-A1FE-2CDBEBE1FD4C";
paths = (
{
closed = 1;
nodes = (
"186 0 LINE",
"186 235 LINE",
"188 235 LINE",
"428 0 LINE",
"567 0 LINE",
"281 270 LINE",
"556 520 LINE",
"417 520 LINE",
"188 306 LINE",
"186 306 LINE",
"186 520 LINE",
"77 520 LINE",
"77 0 LINE"
);
}
);
width = 590;
},
{
anchors = (
{
name = bottom;
position = "{300, 0}";
},
{
name = top;
position = "{300, 520}";
}
);
layerId = "9E6B41AB-2970-4C41-8B35-4DBE0D296A43";
paths = (
{
closed = 1;
nodes = (
"255 0 LINE",
"255 215 LINE",
"257 215 LINE",
"394 0 LINE",
"619 0 LINE",
"419 270 LINE",
"614 520 LINE",
"389 520 LINE",
"257 325 LINE",
"255 325 LINE",
"255 520 LINE",
"59 520 LINE",
"59 0 LINE"
);
}
);
width = 631;
}
);
leftKerningGroup = n;
leftMetricsKey = "=k";
rightKerningGroup = x;
rightMetricsKey = "=k";
unicode = 0138;
},
{
color = 10;
glyphname = l;
lastChange = "2021-01-24 11:31:24 +0000";
layers = (
{
anchors = (
{
name = bottom;
position = "{115, 0}";
},
{
name = center;
position = "{115, 430}";
},
{
name = pdcenter;
position = "{341, 375}";
},
{
name = top;
position = "{115, 730}";
},
{
name = topright;
position = "{199, 730}";
}
);
layerId = "D65C9A1E-0FCA-4B2D-8EDF-9F36CA9182A1";
paths = (
{
closed = 1;
nodes = (
"125 0 LINE",
"125 730 LINE",
"105 730 LINE",
"105 0 LINE"
);
}
);
width = 230;
},
{
anchors = (
{
name = bottom;
position = "{140, 0}";
},
{
name = center;
position = "{140, 430}";
},
{
name = pdcenter;
position = "{436, 375}";
},
{
name = top;
position = "{140, 730}";
},
{
name = topright;
position = "{254, 730}";
}
);
layerId = "9527F797-22C1-480E-A1FE-2CDBEBE1FD4C";
paths = (
{
closed = 1;
nodes = (
"195 0 LINE",
"195 730 LINE",
"85 730 LINE",
"85 0 LINE"
);
}
);
width = 280;
},
{
anchors = (
{
name = bottom;
position = "{165, 0}";
},
{
name = center;
position = "{165, 430}";
},
{
name = pdcenter;
position = "{530, 375}";
},
{
name = top;
position = "{165, 730}";
},
{
name = topright;
position = "{310, 730}";
}
);
layerId = "9E6B41AB-2970-4C41-8B35-4DBE0D296A43";
paths = (
{
closed = 1;
nodes = (
"265 0 LINE",
"265 730 LINE",
"65 730 LINE",
"65 0 LINE"
);
}
);
width = 330;
}
);
leftKerningGroup = l;
leftMetricsKey = "=h*1.1";
rightKerningGroup = l;
rightMetricsKey = "=|";
unicode = 006C;
},
{
color = 11;
glyphname = lslash;
lastChange = "2021-01-25 12:47:23 +0000";
layers = (
{
components = (
{
name = l;
transform = "{1, 0, 0, 1, 100, 0}";
}
);
layerId = "D65C9A1E-0FCA-4B2D-8EDF-9F36CA9182A1";
leftMetricsKey = "=t*.9";
paths = (
{
closed = 1;
nodes = (
"373 431 LINE",
"365 449 LINE",
"35 299 LINE",
"43 281 LINE"
);
}
);
width = 408;
},
{
components = (
{
alignment = -1;
name = l;
transform = "{1, 0, 0, 1, 97, 0}";
}
);
layerId = "9527F797-22C1-480E-A1FE-2CDBEBE1FD4C";
leftMetricsKey = "=t*.7";
paths = (
{
closed = 1;
nodes = (
"449 407 LINE",
"413 491 LINE",
"13 323 LINE",
"49 239 LINE"
);
}
);
width = 462;
},
{
components = (
{
name = l;
transform = "{1, 0, 0, 1, 104, 0}";
}
);
layerId = "9E6B41AB-2970-4C41-8B35-4DBE0D296A43";
leftMetricsKey = "=t*.5";
paths = (
{
closed = 1;
nodes = (
"531 393 LINE",
"476 523 LINE",
"7 337 LINE",
"62 207 LINE"
);
}
);
width = 538;
}
);
leftKerningGroup = o;
leftMetricsKey = "=t*.5";
rightKerningGroup = f;
rightMetricsKey = "=|";
unicode = 0142;
},
{
color = 10;
glyphname = m;
lastChange = "2021-01-25 03:34:21 +0000";
layers = (
{
layerId = "D65C9A1E-0FCA-4B2D-8EDF-9F36CA9182A1";
paths = (
{
closed = 1;
nodes = (
"115 0 LINE",
"115 320 LINE SMOOTH",
"115 426 OFFCURVE",
"195 510 OFFCURVE",
"294 510 CURVE SMOOTH",
"377 510 OFFCURVE",
"430 451 OFFCURVE",
"430 360 CURVE SMOOTH",
"430 0 LINE",
"450 0 LINE",
"450 320 LINE SMOOTH",
"450 437 OFFCURVE",
"519 510 OFFCURVE",
"629 510 CURVE SMOOTH",
"723 510 OFFCURVE",
"765 458 OFFCURVE",
"765 340 CURVE SMOOTH",
"765 0 LINE",
"785 0 LINE",
"785 340 LINE SMOOTH",
"785 469 OFFCURVE",
"735 530 OFFCURVE",
"629 530 CURVE SMOOTH",
"543 530 OFFCURVE",
"482 490 OFFCURVE",
"447 412 CURVE",
"445 412 LINE",
"430 485 OFFCURVE",
"372 530 OFFCURVE",
"294 530 CURVE SMOOTH",
"218 530 OFFCURVE",
"153 487 OFFCURVE",
"117 412 CURVE",
"115 412 LINE",
"115 520 LINE",
"95 520 LINE",
"95 0 LINE"
);
}
);
width = 861;
},
{
layerId = "9527F797-22C1-480E-A1FE-2CDBEBE1FD4C";
paths = (
{
closed = 1;
nodes = (
"183 0 LINE",
"183 310 LINE SMOOTH",
"183 384 OFFCURVE",
"234 440 OFFCURVE",
"301 440 CURVE SMOOTH",
"357 440 OFFCURVE",
"389 401 OFFCURVE",
"389 330 CURVE SMOOTH",
"389 0 LINE",
"495 0 LINE",
"495 310 LINE SMOOTH",
"495 389 OFFCURVE",
"541 440 OFFCURVE",
"613 440 CURVE SMOOTH",
"674 440 OFFCURVE",
"701 403 OFFCURVE",
"701 320 CURVE SMOOTH",
"701 0 LINE",
"807 0 LINE",
"807 345 LINE SMOOTH",
"807 473 OFFCURVE",
"757 530 OFFCURVE",
"644 530 CURVE SMOOTH",
"573 530 OFFCURVE",
"522 507 OFFCURVE",
"483 458 CURVE",
"481 458 LINE",
"461 505 OFFCURVE",
"411 530 OFFCURVE",
"342 530 CURVE SMOOTH",
"271 530 OFFCURVE",
"218 503 OFFCURVE",
"181 458 CURVE",
"179 458 LINE",
"178 520 LINE",
"77 520 LINE",
"77 0 LINE"
);
}
);
width = 869;
},
{
layerId = "9E6B41AB-2970-4C41-8B35-4DBE0D296A43";
paths = (
{
closed = 1;
nodes = (
"251 0 LINE",
"251 300 LINE SMOOTH",
"251 341 OFFCURVE",
"274 370 OFFCURVE",
"307 370 CURVE SMOOTH",
"336 370 OFFCURVE",
"348 349 OFFCURVE",
"348 300 CURVE SMOOTH",
"348 0 LINE",
"540 0 LINE",
"540 300 LINE SMOOTH",
"540 341 OFFCURVE",
"563 370 OFFCURVE",
"596 370 CURVE SMOOTH",
"625 370 OFFCURVE",
"637 349 OFFCURVE",
"637 300 CURVE SMOOTH",
"637 0 LINE",
"829 0 LINE",
"829 350 LINE SMOOTH",
"829 476 OFFCURVE",
"784 530 OFFCURVE",
"678 530 CURVE SMOOTH",
"612 530 OFFCURVE",
"564 509 OFFCURVE",
"518 460 CURVE",
"516 460 LINE",
"493 507 OFFCURVE",
"452 530 OFFCURVE",
"389 530 CURVE SMOOTH",
"329 530 OFFCURVE",
"286 509 OFFCURVE",
"245 460 CURVE",
"243 460 LINE",
"241 520 LINE",
"59 520 LINE",
"59 0 LINE"
);
}
);
width = 876;
},
{
associatedMasterId = "D65C9A1E-0FCA-4B2D-8EDF-9F36CA9182A1";
background = {
paths = (
{
closed = 1;
nodes = (
"136 0 LINE",
"136 257 LINE SMOOTH",
"136 392 OFFCURVE",
"197 487 OFFCURVE",
"285 487 CURVE SMOOTH",
"358 487 OFFCURVE",
"402 423 OFFCURVE",
"402 317 CURVE SMOOTH",
"402 0 LINE",
"451 0 LINE",
"451 292 LINE SMOOTH",
"451 406 OFFCURVE",
"513 487 OFFCURVE",
"600 487 CURVE SMOOTH",
"671 487 OFFCURVE",
"717 433 OFFCURVE",
"717 350 CURVE SMOOTH",
"717 0 LINE",
"766 0 LINE",
"766 358 LINE SMOOTH",
"766 468 OFFCURVE",
"711 530 OFFCURVE",
"613 530 CURVE SMOOTH",
"539 530 OFFCURVE",
"475 495 OFFCURVE",
"441 435 CURVE",
"439 435 LINE",
"415 497 OFFCURVE",
"367 530 OFFCURVE",
"298 530 CURVE SMOOTH",
"228 530 OFFCURVE",
"173 497 OFFCURVE",
"137 435 CURVE",
"135 435 LINE",
"134 520 LINE",
"87 520 LINE",
"87 0 LINE"
);
}
);
};
layerId = "0CBD3FAB-BA75-4DFC-AD86-B9F788B7BCE9";
name = "Light {232}";
paths = (
{
closed = 1;
nodes = (
"136 0 LINE",
"136 316 LINE SMOOTH",
"136 400 OFFCURVE",
"202 487 OFFCURVE",
"295 487 CURVE SMOOTH",
"373 487 OFFCURVE",
"415 439 OFFCURVE",
"415 350 CURVE SMOOTH",
"415 0 LINE",
"464 0 LINE",
"464 316 LINE SMOOTH",
"464 418 OFFCURVE",
"528 487 OFFCURVE",
"623 487 CURVE SMOOTH",
"708 487 OFFCURVE",
"743 438 OFFCURVE",
"743 316 CURVE SMOOTH",
"743 0 LINE",
"791 0 LINE",
"791 325 LINE SMOOTH",
"791 469 OFFCURVE",
"746 530 OFFCURVE",
"636 530 CURVE SMOOTH",
"558 530 OFFCURVE",
"494 499 OFFCURVE",
"458 441 CURVE",
"456 441 LINE",
"439 499 OFFCURVE",
"387 530 OFFCURVE",
"309 530 CURVE SMOOTH",
"234 530 OFFCURVE",
"171 494 OFFCURVE",
"137 441 CURVE",
"135 441 LINE",
"135 520 LINE",
"88 520 LINE",
"88 0 LINE"
);
}
);
width = 861;
}
);
leftKerningGroup = n;
leftMetricsKey = "=n";
rightKerningGroup = h;
rightMetricsKey = "=n";
unicode = 006D;
},
{
color = 10;
glyphname = n;
lastChange = "2021-01-25 03:32:56 +0000";
layers = (
{
anchors = (
{
name = bottom;
position = "{296, 0}";
},
{
name = top;
position = "{296, 520}";
}
);
layerId = "D65C9A1E-0FCA-4B2D-8EDF-9F36CA9182A1";
paths = (
{
closed = 1;
nodes = (
"115 0 LINE",
"115 320 LINE SMOOTH",
"115 432 OFFCURVE",
"201 510 OFFCURVE",
"325 510 CURVE SMOOTH",
"434 510 OFFCURVE",
"485 449 OFFCURVE",
"485 320 CURVE SMOOTH",
"485 0 LINE",
"505 0 LINE",
"505 320 LINE SMOOTH",
"505 460 OFFCURVE",
"446 530 OFFCURVE",
"325 530 CURVE SMOOTH",
"230 530 OFFCURVE",
"153 487 OFFCURVE",
"117 412 CURVE",
"115 412 LINE",
"115 520 LINE",
"95 520 LINE",
"95 0 LINE"
);
}
);
width = 581;
},
{
anchors = (
{
name = bottom;
position = "{308, 0}";
},
{
name = top;
position = "{308, 520}";
}
);
layerId = "9527F797-22C1-480E-A1FE-2CDBEBE1FD4C";
paths = (
{
closed = 1;
nodes = (
"185 0 LINE",
"185 310 LINE SMOOTH",
"185 385 OFFCURVE",
"246 440 OFFCURVE",
"330 440 CURVE SMOOTH",
"405 440 OFFCURVE",
"439 396 OFFCURVE",
"439 300 CURVE SMOOTH",
"439 0 LINE",
"547 0 LINE",
"547 320 LINE SMOOTH",
"547 464 OFFCURVE",
"488 530 OFFCURVE",
"360 530 CURVE SMOOTH",
"282 530 OFFCURVE",
"224 506 OFFCURVE",
"183 458 CURVE",
"181 458 LINE",
"180 520 LINE",
"77 520 LINE",
"77 0 LINE"
);
}
);
width = 609;
},
{
anchors = (
{
name = bottom;
position = "{321, 0}";
},
{
name = top;
position = "{321, 520}";
}
);
layerId = "9E6B41AB-2970-4C41-8B35-4DBE0D296A43";
paths = (
{
closed = 1;
nodes = (
"255 0 LINE",
"255 300 LINE SMOOTH",
"255 341 OFFCURVE",
"288 370 OFFCURVE",
"334 370 CURVE SMOOTH",
"376 370 OFFCURVE",
"393 345 OFFCURVE",
"393 280 CURVE SMOOTH",
"393 0 LINE",
"589 0 LINE",
"589 320 LINE SMOOTH",
"589 466 OFFCURVE",
"535 530 OFFCURVE",
"414 530 CURVE SMOOTH",
"344 530 OFFCURVE",
"295 509 OFFCURVE",
"249 460 CURVE",
"247 460 LINE",
"245 520 LINE",
"59 520 LINE",
"59 0 LINE"
);
}
);
width = 636;
},
{
anchors = (
{
name = bottom;
position = "{300, 0}";
},
{
name = top;
position = "{300, 520}";
}
);
associatedMasterId = "D65C9A1E-0FCA-4B2D-8EDF-9F36CA9182A1";
layerId = "899DC2DC-F451-4B84-9275-F30D30733E24";
name = "Light {232}";
paths = (
{
closed = 1;
nodes = (
"137 0 LINE",
"137 316 LINE SMOOTH",
"137 416 OFFCURVE",
"215 487 OFFCURVE",
"326 487 CURVE SMOOTH",
"423 487 OFFCURVE",
"469 432 OFFCURVE",
"469 313 CURVE SMOOTH",
"469 0 LINE",
"518 0 LINE",
"518 320 LINE SMOOTH",
"518 463 OFFCURVE",
"460 530 OFFCURVE",
"336 530 CURVE SMOOTH",
"249 530 OFFCURVE",
"176 497 OFFCURVE",
"139 441 CURVE",
"137 441 LINE",
"137 520 LINE",
"88 520 LINE",
"88 0 LINE"
);
}
);
width = 588;
}
);
leftKerningGroup = n;
leftMetricsKey = "=h";
rightKerningGroup = h;
rightMetricsKey = "=h";
unicode = 006E;
},
{
color = 11;
glyphname = eng;
lastChange = "2021-01-24 11:31:24 +0000";
layers = (
{
anchors = (
{
name = bottom;
position = "{296, 0}";
},
{
name = top;
position = "{296, 520}";
}
);
background = {
components = (
{
name = n;
transform = "{1, 0, 0, 1, 10, 0}";
}
);
};
layerId = "D65C9A1E-0FCA-4B2D-8EDF-9F36CA9182A1";
paths = (
{
closed = 1;
nodes = (
"462 -211 OFFCURVE",
"505 -164 OFFCURVE",
"505 -61 CURVE SMOOTH",
"505 320 LINE SMOOTH",
"505 458 OFFCURVE",
"448 530 OFFCURVE",
"339 530 CURVE SMOOTH",
"243 530 OFFCURVE",
"156 475 OFFCURVE",
"117 388 CURVE",
"115 388 LINE",
"115 520 LINE",
"95 520 LINE",
"95 0 LINE",
"115 0 LINE",
"115 290 LINE SMOOTH",
"115 412 OFFCURVE",
"215 510 OFFCURVE",
"339 510 CURVE SMOOTH",
"437 510 OFFCURVE",
"485 448 OFFCURVE",
"485 320 CURVE SMOOTH",
"485 -61 LINE SMOOTH",
"485 -153 OFFCURVE",
"450 -191 OFFCURVE",
"365 -191 CURVE SMOOTH",
"340 -191 OFFCURVE",
"314 -186 OFFCURVE",
"292 -177 CURVE",
"286 -196 LINE",
"310 -205 OFFCURVE",
"338 -211 OFFCURVE",
"365 -211 CURVE SMOOTH"
);
}
);
width = 581;
},
{
anchors = (
{
name = bottom;
position = "{308, 0}";
},
{
name = top;
position = "{308, 520}";
}
);
background = {
components = (
{
name = n;
transform = "{1, 0, 0, 1, 5, 0}";
}
);
};
layerId = "9527F797-22C1-480E-A1FE-2CDBEBE1FD4C";
paths = (
{
closed = 1;
nodes = (
"495 -221 OFFCURVE",
"547 -163 OFFCURVE",
"547 -26 CURVE SMOOTH",
"547 320 LINE SMOOTH",
"547 462 OFFCURVE",
"492 530 OFFCURVE",
"377 530 CURVE SMOOTH",
"298 530 OFFCURVE",
"226 498 OFFCURVE",
"183 444 CURVE",
"181 444 LINE",
"180 520 LINE",
"77 520 LINE",
"77 0 LINE",
"185 0 LINE",
"185 265 LINE SMOOTH",
"185 356 OFFCURVE",
"263 440 OFFCURVE",
"347 440 CURVE SMOOTH",
"409 440 OFFCURVE",
"439 394 OFFCURVE",
"439 300 CURVE SMOOTH",
"439 -26 LINE SMOOTH",
"439 -97 OFFCURVE",
"413 -126 OFFCURVE",
"349 -126 CURVE SMOOTH",
"324 -126 OFFCURVE",
"298 -122 OFFCURVE",
"274 -114 CURVE",
"259 -205 LINE",
"296 -216 OFFCURVE",
"334 -221 OFFCURVE",
"371 -221 CURVE SMOOTH"
);
}
);
width = 609;
},
{
anchors = (
{
name = bottom;
position = "{321, 0}";
},
{
name = top;
position = "{321, 520}";
}
);
background = {
components = (
{
name = n;
}
);
};
layerId = "9E6B41AB-2970-4C41-8B35-4DBE0D296A43";
paths = (
{
closed = 1;
nodes = (
"534 -229 OFFCURVE",
"589 -169 OFFCURVE",
"589 0 CURVE SMOOTH",
"589 320 LINE SMOOTH",
"589 469 OFFCURVE",
"540 530 OFFCURVE",
"419 530 CURVE SMOOTH",
"349 530 OFFCURVE",
"298 509 OFFCURVE",
"249 460 CURVE",
"247 460 LINE",
"245 520 LINE",
"59 520 LINE",
"59 0 LINE",
"255 0 LINE",
"255 300 LINE SMOOTH",
"255 341 OFFCURVE",
"288 370 OFFCURVE",
"334 370 CURVE SMOOTH",
"376 370 OFFCURVE",
"393 345 OFFCURVE",
"393 280 CURVE SMOOTH",
"393 0 LINE SMOOTH",
"393 -54 OFFCURVE",
"380 -70 OFFCURVE",
"334 -70 CURVE SMOOTH",
"312 -70 OFFCURVE",
"279 -66 OFFCURVE",
"251 -59 CURVE",
"231 -214 LINE",
"279 -223 OFFCURVE",
"329 -229 OFFCURVE",
"377 -229 CURVE SMOOTH"
);
}
);
width = 636;
},
{
anchors = (
{
name = bottom;
position = "{299, 0}";
},
{
name = top;
position = "{299, 520}";
}
);
associatedMasterId = "D65C9A1E-0FCA-4B2D-8EDF-9F36CA9182A1";
background = {
components = (
{
name = n;
transform = "{1, 0, 0, 1, 7, 0}";
}
);
};
layerId = "79FE56B5-3AAC-4AE6-A914-FF8F134DF163";
name = "Light {232}";
paths = (
{
closed = 1;
nodes = (
"472 -214 OFFCURVE",
"518 -164 OFFCURVE",
"518 -49 CURVE SMOOTH",
"518 320 LINE SMOOTH",
"518 461 OFFCURVE",
"463 530 OFFCURVE",
"350 530 CURVE SMOOTH",
"261 530 OFFCURVE",
"177 487 OFFCURVE",
"137 421 CURVE",
"135 421 LINE",
"135 520 LINE",
"88 520 LINE",
"88 0 LINE",
"137 0 LINE",
"137 282 LINE SMOOTH",
"137 394 OFFCURVE",
"229 487 OFFCURVE",
"340 487 CURVE SMOOTH",
"426 487 OFFCURVE",
"468 430 OFFCURVE",
"468 313 CURVE SMOOTH",
"468 -49 LINE SMOOTH",
"468 -135 OFFCURVE",
"436 -170 OFFCURVE",
"359 -170 CURVE SMOOTH",
"334 -170 OFFCURVE",
"308 -165 OFFCURVE",
"285 -156 CURVE",
"276 -199 LINE",
"305 -209 OFFCURVE",
"336 -214 OFFCURVE",
"366 -214 CURVE SMOOTH"
);
}
);
width = 588;
}
);
leftKerningGroup = n;
leftMetricsKey = "=h";
rightKerningGroup = g;
rightMetricsKey = "=h";
unicode = 014B;
},
{
color = 10;
glyphname = o;
lastChange = "2021-01-23 09:23:11 +0000";
layers = (
{
anchors = (
{
name = bottom;
position = "{288, 0}";
},
{
name = center;
position = "{288, 260}";
},
{
name = ogonek;
position = "{335, 0}";
},
{
name = top;
position = "{288, 520}";
},
{
name = topright;
position = "{434, 480}";
}
);
layerId = "D65C9A1E-0FCA-4B2D-8EDF-9F36CA9182A1";
paths = (
{
closed = 1;
nodes = (
"437 -10 OFFCURVE",
"528 92 OFFCURVE",
"528 260 CURVE SMOOTH",
"528 428 OFFCURVE",
"437 530 OFFCURVE",
"288 530 CURVE SMOOTH",
"139 530 OFFCURVE",
"48 428 OFFCURVE",
"48 260 CURVE SMOOTH",
"48 92 OFFCURVE",
"139 -10 OFFCURVE",
"288 -10 CURVE SMOOTH"
);
},
{
closed = 1;
nodes = (
"150 10 OFFCURVE",
"68 103 OFFCURVE",
"68 260 CURVE SMOOTH",
"68 417 OFFCURVE",
"150 510 OFFCURVE",
"288 510 CURVE SMOOTH",
"426 510 OFFCURVE",
"508 417 OFFCURVE",
"508 260 CURVE SMOOTH",
"508 103 OFFCURVE",
"426 10 OFFCURVE",
"288 10 CURVE SMOOTH"
);
}
);
width = 576;
},
{
anchors = (
{
name = bottom;
position = "{299, 0}";
},
{
name = center;
position = "{299, 260}";
},
{
name = ogonek;
position = "{365, 0}";
},
{
name = top;
position = "{299, 520}";
},
{
name = topright;
position = "{459, 482}";
}
);
layerId = "9527F797-22C1-480E-A1FE-2CDBEBE1FD4C";
paths = (
{
closed = 1;
nodes = (
"464 -10 OFFCURVE",
"559 88 OFFCURVE",
"559 260 CURVE SMOOTH",
"559 432 OFFCURVE",
"464 530 OFFCURVE",
"299 530 CURVE SMOOTH",
"134 530 OFFCURVE",
"39 432 OFFCURVE",
"39 260 CURVE SMOOTH",
"39 88 OFFCURVE",
"134 -10 OFFCURVE",
"299 -10 CURVE SMOOTH"
);
},
{
closed = 1;
nodes = (
"201 80 OFFCURVE",
"147 143 OFFCURVE",
"147 260 CURVE SMOOTH",
"147 377 OFFCURVE",
"201 440 OFFCURVE",
"299 440 CURVE SMOOTH",
"397 440 OFFCURVE",
"451 377 OFFCURVE",
"451 260 CURVE SMOOTH",
"451 143 OFFCURVE",
"397 80 OFFCURVE",
"299 80 CURVE SMOOTH"
);
}
);
width = 598;
},
{
anchors = (
{
name = bottom;
position = "{309, 0}";
},
{
name = center;
position = "{309, 260}";
},
{
name = ogonek;
position = "{395, 0}";
},
{
name = top;
position = "{309, 520}";
},
{
name = topright;
position = "{484, 484}";
}
);
layerId = "9E6B41AB-2970-4C41-8B35-4DBE0D296A43";
paths = (
{
closed = 1;
nodes = (
"491 -10 OFFCURVE",
"589 84 OFFCURVE",
"589 260 CURVE SMOOTH",
"589 436 OFFCURVE",
"491 530 OFFCURVE",
"309 530 CURVE SMOOTH",
"127 530 OFFCURVE",
"29 436 OFFCURVE",
"29 260 CURVE SMOOTH",
"29 84 OFFCURVE",
"127 -10 OFFCURVE",
"309 -10 CURVE SMOOTH"
);
},
{
closed = 1;
nodes = (
"251 130 OFFCURVE",
"225 170 OFFCURVE",
"225 260 CURVE SMOOTH",
"225 350 OFFCURVE",
"251 390 OFFCURVE",
"309 390 CURVE SMOOTH",
"367 390 OFFCURVE",
"393 350 OFFCURVE",
"393 260 CURVE SMOOTH",
"393 170 OFFCURVE",
"367 130 OFFCURVE",
"309 130 CURVE SMOOTH"
);
}
);
width = 618;
}
);
leftKerningGroup = o;
leftMetricsKey = "=h*.5";
rightKerningGroup = o;
rightMetricsKey = "=|";
unicode = 006F;
},
{
color = 11;
glyphname = oslash;
lastChange = "2020-12-09 07:59:53 +0000";
layers = (
{
anchors = (
{
name = top;
position = "{273, 520}";
}
);
components = (
{
name = o.002;
}
);
layerId = "D65C9A1E-0FCA-4B2D-8EDF-9F36CA9182A1";
paths = (
{
closed = 1;
nodes = (
"126 46 LINE",
"126 46 LINE",
"434 462 LINE",
"434 462 LINE",
"480 524 LINE",
"464 536 LINE",
"418 474 LINE",
"418 474 LINE",
"110 58 LINE",
"110 58 LINE",
"64 -4 LINE",
"80 -16 LINE"
);
}
);
width = 546;
},
{
anchors = (
{
name = top;
position = "{289, 520}";
}
);
components = (
{
alignment = -1;
name = o.002;
}
);
layerId = "9527F797-22C1-480E-A1FE-2CDBEBE1FD4C";
paths = (
{
closed = 1;
nodes = (
"172 35 LINE",
"172 35 LINE",
"470 437 LINE",
"470 437 LINE",
"521 506 LINE",
"457 554 LINE",
"406 485 LINE",
"406 485 LINE",
"108 83 LINE",
"108 83 LINE",
"57 14 LINE",
"121 -34 LINE"
);
}
);
width = 578;
},
{
anchors = (
{
name = top;
position = "{305, 520}";
}
);
components = (
{
name = o.002;
}
);
layerId = "9E6B41AB-2970-4C41-8B35-4DBE0D296A43";
paths = (
{
closed = 1;
nodes = (
"184 14 LINE",
"176 20 LINE",
"496 452 LINE",
"504 446 LINE",
"544 500 LINE",
"464 560 LINE",
"424 506 LINE",
"432 500 LINE",
"112 68 LINE",
"104 74 LINE",
"64 20 LINE",
"144 -40 LINE"
);
}
);
width = 610;
}
);
leftKerningGroup = o;
rightKerningGroup = o;
unicode = 00F8;
},
{
color = 11;
glyphname = oe;
lastChange = "2021-01-23 09:26:03 +0000";
layers = (
{
background = {
components = (
{
name = o.002;
},
{
name = e;
transform = "{1, 0, 0, 1, 440, 0}";
}
);
};
components = (
{
name = o.002;
}
);
layerId = "D65C9A1E-0FCA-4B2D-8EDF-9F36CA9182A1";
paths = (
{
closed = 1;
nodes = (
"789 -10 OFFCURVE",
"852 4 OFFCURVE",
"903 30 CURVE",
"894 48 LINE",
"847 24 OFFCURVE",
"787 10 OFFCURVE",
"729 10 CURVE SMOOTH",
"583 10 OFFCURVE",
"503 97 OFFCURVE",
"503 260 CURVE",
"503 260 LINE",
"503 419 OFFCURVE",
"580 510 OFFCURVE",
"713 510 CURVE SMOOTH",
"837 510 OFFCURVE",
"903 427 OFFCURVE",
"903 268 CURVE",
"913 278 LINE",
"493 278 LINE",
"493 258 LINE",
"923 258 LINE",
"923 263 OFFCURVE",
"923 263 OFFCURVE",
"923 268 CURVE SMOOTH",
"923 437 OFFCURVE",
"849 530 OFFCURVE",
"713 530 CURVE SMOOTH",
"568 530 OFFCURVE",
"483 429 OFFCURVE",
"483 260 CURVE SMOOTH",
"483 87 OFFCURVE",
"571 -10 OFFCURVE",
"729 -10 CURVE SMOOTH"
);
}
);
width = 969;
},
{
background = {
components = (
{
name = o.002;
},
{
name = e;
transform = "{1, 0, 0, 1, 398, 0}";
}
);
};
components = (
{
name = o.002;
}
);
layerId = "9527F797-22C1-480E-A1FE-2CDBEBE1FD4C";
paths = (
{
closed = 1;
nodes = (
"776 -10 OFFCURVE",
"845 3 OFFCURVE",
"894 24 CURVE",
"879 113 LINE",
"832 93 OFFCURVE",
"765 80 OFFCURVE",
"708 80 CURVE SMOOTH",
"596 80 OFFCURVE",
"540 134 OFFCURVE",
"540 240 CURVE SMOOTH",
"540 270 LINE",
"540 383 OFFCURVE",
"589 442 OFFCURVE",
"681 442 CURVE SMOOTH",
"772 442 OFFCURVE",
"818 385 OFFCURVE",
"818 270 CURVE",
"834 300 LINE",
"494 300 LINE",
"494 215 LINE",
"917 215 LINE",
"918 223 OFFCURVE",
"919 248 OFFCURVE",
"919 265 CURVE SMOOTH",
"919 434 OFFCURVE",
"833 530 OFFCURVE",
"681 530 CURVE SMOOTH",
"527 530 OFFCURVE",
"434 429 OFFCURVE",
"434 260 CURVE SMOOTH",
"434 87 OFFCURVE",
"533 -10 OFFCURVE",
"712 -10 CURVE SMOOTH"
);
}
);
width = 956;
},
{
background = {
components = (
{
name = o.002;
},
{
name = e;
transform = "{1, 0, 0, 1, 354, 0}";
}
);
};
components = (
{
name = o.002;
}
);
layerId = "9E6B41AB-2970-4C41-8B35-4DBE0D296A43";
paths = (
{
closed = 1;
nodes = (
"762 -10 OFFCURVE",
"836 1 OFFCURVE",
"883 18 CURVE",
"863 158 LINE",
"816 142 OFFCURVE",
"742 130 OFFCURVE",
"685 130 CURVE SMOOTH",
"607 130 OFFCURVE",
"575 156 OFFCURVE",
"575 220 CURVE SMOOTH",
"575 280 LINE SMOOTH",
"575 367 OFFCURVE",
"599 405 OFFCURVE",
"653 405 CURVE SMOOTH",
"707 405 OFFCURVE",
"731 367 OFFCURVE",
"731 280 CURVE",
"754 315 LINE",
"493 315 LINE",
"493 200 LINE",
"909 200 LINE",
"911 211 OFFCURVE",
"913 246 OFFCURVE",
"913 270 CURVE SMOOTH",
"913 434 OFFCURVE",
"817 530 OFFCURVE",
"653 530 CURVE SMOOTH",
"485 530 OFFCURVE",
"383 428 OFFCURVE",
"383 260 CURVE SMOOTH",
"383 86 OFFCURVE",
"493 -10 OFFCURVE",
"693 -10 CURVE SMOOTH"
);
}
);
width = 941;
}
);
leftKerningGroup = o;
leftMetricsKey = "=o";
rightKerningGroup = o;
rightMetricsKey = "=e";
unicode = 0153;
},
{
color = 10;
glyphname = p;
lastChange = "2021-01-25 09:53:30 +0000";
layers = (
{
background = {
paths = (
{
closed = 1;
nodes = (
"231 530 OFFCURVE",
"152 485 OFFCURVE",
"117 412 CURVE",
"115 412 LINE",
"115 520 LINE",
"95 520 LINE",
"95 -210 LINE",
"115 -210 LINE",
"115 108 LINE",
"117 108 LINE",
"152 35 OFFCURVE",
"231 -10 OFFCURVE",
"321 -10 CURVE SMOOTH",
"456 -10 OFFCURVE",
"535 91 OFFCURVE",
"535 260 CURVE SMOOTH",
"535 429 OFFCURVE",
"456 530 OFFCURVE",
"321 530 CURVE SMOOTH"
);
},
{
closed = 1;
nodes = (
"444 510 OFFCURVE",
"515 419 OFFCURVE",
"515 260 CURVE SMOOTH",
"515 101 OFFCURVE",
"444 10 OFFCURVE",
"321 10 CURVE SMOOTH",
"204 10 OFFCURVE",
"115 92 OFFCURVE",
"115 200 CURVE SMOOTH",
"115 320 LINE SMOOTH",
"115 428 OFFCURVE",
"204 510 OFFCURVE",
"321 510 CURVE SMOOTH"
);
}
);
};
components = (
{
name = b;
transform = "{1, 0, 0, -1, 0, 520}";
}
);
layerId = "D65C9A1E-0FCA-4B2D-8EDF-9F36CA9182A1";
width = 583;
},
{
components = (
{
name = b;
transform = "{1, 0, 0, -1, 0, 520}";
}
);
layerId = "9527F797-22C1-480E-A1FE-2CDBEBE1FD4C";
width = 616;
},
{
components = (
{
name = b;
transform = "{1, 0, 0, -1, 0, 520}";
}
);
layerId = "9E6B41AB-2970-4C41-8B35-4DBE0D296A43";
width = 648;
},
{
associatedMasterId = "D65C9A1E-0FCA-4B2D-8EDF-9F36CA9182A1";
components = (
{
name = b;
transform = "{1, 0, 0, -1, 0, 520}";
}
);
layerId = "7F3BC6AE-6F22-4A97-B0EB-8F0F5CC638FE";
name = "Light {232}";
width = 593;
}
);
leftKerningGroup = n;
leftMetricsKey = "=n";
rightKerningGroup = o;
rightMetricsKey = "=o";
unicode = 0070;
},
{
color = 11;
glyphname = thorn;
lastChange = "2021-01-24 11:31:25 +0000";
layers = (
{
background = {
components = (
{
name = p;
transform = "{1, 0, 0, 1, 9, 0}";
}
);
};
layerId = "D65C9A1E-0FCA-4B2D-8EDF-9F36CA9182A1";
paths = (
{
closed = 1;
nodes = (
"115 -240 LINE",
"115 120 LINE",
"117 120 LINE",
"151 39 OFFCURVE",
"222 -10 OFFCURVE",
"315 -10 CURVE SMOOTH",
"450 -10 OFFCURVE",
"529 91 OFFCURVE",
"529 260 CURVE SMOOTH",
"529 429 OFFCURVE",
"450 530 OFFCURVE",
"315 530 CURVE SMOOTH",
"222 530 OFFCURVE",
"151 481 OFFCURVE",
"117 400 CURVE",
"115 400 LINE",
"115 760 LINE",
"95 760 LINE",
"95 -240 LINE"
);
},
{
closed = 1;
nodes = (
"193 10 OFFCURVE",
"115 100 OFFCURVE",
"115 235 CURVE SMOOTH",
"115 285 LINE SMOOTH",
"115 420 OFFCURVE",
"193 510 OFFCURVE",
"315 510 CURVE SMOOTH",
"438 510 OFFCURVE",
"509 419 OFFCURVE",
"509 260 CURVE SMOOTH",
"509 101 OFFCURVE",
"438 10 OFFCURVE",
"315 10 CURVE SMOOTH"
);
}
);
width = 577;
},
{
background = {
components = (
{
name = p;
transform = "{1, 0, 0, 1, 5, 0}";
}
);
};
layerId = "9527F797-22C1-480E-A1FE-2CDBEBE1FD4C";
paths = (
{
closed = 1;
nodes = (
"185 -240 LINE",
"185 68 LINE",
"187 68 LINE",
"228 16 OFFCURVE",
"283 -10 OFFCURVE",
"354 -10 CURVE SMOOTH",
"493 -10 OFFCURVE",
"574 89 OFFCURVE",
"574 260 CURVE SMOOTH",
"574 431 OFFCURVE",
"494 530 OFFCURVE",
"354 530 CURVE SMOOTH",
"283 530 OFFCURVE",
"228 504 OFFCURVE",
"187 452 CURVE",
"185 452 LINE",
"185 760 LINE",
"77 760 LINE",
"77 -240 LINE"
);
},
{
closed = 1;
nodes = (
"238 80 OFFCURVE",
"185 146 OFFCURVE",
"185 240 CURVE SMOOTH",
"185 280 LINE SMOOTH",
"185 374 OFFCURVE",
"238 440 OFFCURVE",
"327 440 CURVE SMOOTH",
"416 440 OFFCURVE",
"467 375 OFFCURVE",
"467 260 CURVE SMOOTH",
"467 145 OFFCURVE",
"416 80 OFFCURVE",
"327 80 CURVE SMOOTH"
);
}
);
width = 613;
},
{
background = {
components = (
{
name = p;
transform = "{1, 0, 0, 1, 1, 0}";
}
);
};
layerId = "9E6B41AB-2970-4C41-8B35-4DBE0D296A43";
paths = (
{
closed = 1;
nodes = (
"255 -240 LINE",
"255 60 LINE",
"257 60 LINE",
"302 11 OFFCURVE",
"348 -10 OFFCURVE",
"410 -10 CURVE SMOOTH",
"543 -10 OFFCURVE",
"619 88 OFFCURVE",
"619 260 CURVE SMOOTH",
"619 432 OFFCURVE",
"543 530 OFFCURVE",
"410 530 CURVE SMOOTH",
"348 530 OFFCURVE",
"302 509 OFFCURVE",
"257 460 CURVE",
"255 460 LINE",
"255 760 LINE",
"59 760 LINE",
"59 -240 LINE"
);
},
{
closed = 1;
nodes = (
"281 140 OFFCURVE",
"255 177 OFFCURVE",
"255 240 CURVE SMOOTH",
"255 280 LINE SMOOTH",
"255 343 OFFCURVE",
"281 380 OFFCURVE",
"339 380 CURVE SMOOTH",
"399 380 OFFCURVE",
"427 341 OFFCURVE",
"427 260 CURVE SMOOTH",
"427 179 OFFCURVE",
"399 140 OFFCURVE",
"339 140 CURVE SMOOTH"
);
}
);
width = 648;
},
{
associatedMasterId = "D65C9A1E-0FCA-4B2D-8EDF-9F36CA9182A1";
background = {
components = (
{
name = p;
transform = "{1, 0, 0, 1, 7, 0}";
}
);
};
layerId = "0BCAABAB-37FB-445D-B33E-60B4C38D96A8";
name = "Light {232}";
paths = (
{
closed = 1;
nodes = (
"137 -240 LINE",
"137 90 LINE",
"139 90 LINE",
"175 27 OFFCURVE",
"243 -10 OFFCURVE",
"327 -10 CURVE SMOOTH",
"465 -10 OFFCURVE",
"543 88 OFFCURVE",
"543 260 CURVE SMOOTH",
"543 432 OFFCURVE",
"465 530 OFFCURVE",
"327 530 CURVE SMOOTH",
"243 530 OFFCURVE",
"175 493 OFFCURVE",
"139 430 CURVE",
"137 430 LINE",
"137 760 LINE",
"88 760 LINE",
"88 -240 LINE"
);
},
{
closed = 1;
nodes = (
"207 33 OFFCURVE",
"137 115 OFFCURVE",
"137 237 CURVE SMOOTH",
"137 283 LINE SMOOTH",
"137 405 OFFCURVE",
"207 487 OFFCURVE",
"318 487 CURVE SMOOTH",
"429 487 OFFCURVE",
"494 404 OFFCURVE",
"494 260 CURVE SMOOTH",
"494 116 OFFCURVE",
"429 33 OFFCURVE",
"318 33 CURVE SMOOTH"
);
}
);
width = 588;
}
);
leftKerningGroup = b;
leftMetricsKey = "=b";
rightKerningGroup = o;
rightMetricsKey = "=b";
unicode = 00FE;
},
{
color = 10;
glyphname = r;
lastChange = "2021-01-25 07:24:31 +0000";
layers = (
{
anchors = (
{
name = bottom;
position = "{226, 0}";
},
{
name = top;
position = "{226, 520}";
}
);
layerId = "D65C9A1E-0FCA-4B2D-8EDF-9F36CA9182A1";
rightMetricsKey = "=|*.2";
paths = (
{
closed = 1;
nodes = (
"115 0 LINE",
"115 280 LINE SMOOTH",
"115 408 OFFCURVE",
"239 510 OFFCURVE",
"395 510 CURVE",
"395 530 LINE",
"271 530 OFFCURVE",
"160 466 OFFCURVE",
"117 370 CURVE",
"115 370 LINE",
"115 520 LINE",
"95 520 LINE",
"95 0 LINE"
);
}
);
width = 414;
},
{
anchors = (
{
name = bottom;
position = "{243, 0}";
},
{
name = top;
position = "{243, 520}";
}
);
layerId = "9527F797-22C1-480E-A1FE-2CDBEBE1FD4C";
rightMetricsKey = "=|*.25";
paths = (
{
closed = 1;
nodes = (
"186 0 LINE",
"186 250 LINE SMOOTH",
"186 353 OFFCURVE",
"298 435 OFFCURVE",
"437 435 CURVE",
"437 530 LINE",
"331 530 OFFCURVE",
"237 489 OFFCURVE",
"184 420 CURVE",
"182 420 LINE",
"181 520 LINE",
"77 520 LINE",
"77 0 LINE"
);
}
);
width = 456;
},
{
anchors = (
{
name = bottom;
position = "{231, 0}";
},
{
name = top;
position = "{231, 520}";
}
);
associatedMasterId = "D65C9A1E-0FCA-4B2D-8EDF-9F36CA9182A1";
layerId = "657C252B-5EEF-4E2C-9A2A-557819CBA416";
rightMetricsKey = "=|*.2";
name = "Light {232}";
paths = (
{
closed = 1;
nodes = (
"137 0 LINE",
"137 270 LINE SMOOTH",
"137 390 OFFCURVE",
"257 485 OFFCURVE",
"408 485 CURVE",
"408 530 LINE",
"290 530 OFFCURVE",
"184 480 OFFCURVE",
"138 402 CURVE",
"136 402 LINE",
"136 520 LINE",
"88 520 LINE",
"88 0 LINE"
);
}
);
width = 426;
},
{
anchors = (
{
name = bottom;
position = "{255, 0}";
},
{
name = top;
position = "{255, 520}";
}
);
layerId = "9E6B41AB-2970-4C41-8B35-4DBE0D296A43";
rightMetricsKey = "=|*.3";
paths = (
{
closed = 1;
nodes = (
"257 0 LINE",
"257 220 LINE SMOOTH",
"257 303 OFFCURVE",
"356 370 OFFCURVE",
"479 370 CURVE",
"479 530 LINE",
"392 530 OFFCURVE",
"314 496 OFFCURVE",
"251 430 CURVE",
"249 430 LINE",
"247 520 LINE",
"59 520 LINE",
"59 0 LINE"
);
}
);
width = 497;
}
);
leftKerningGroup = n;
leftMetricsKey = "=n";
rightKerningGroup = r;
rightMetricsKey = "=|*.3";
unicode = 0072;
},
{
color = 10;
glyphname = s;
lastChange = "2021-01-25 10:19:07 +0000";
layers = (
{
anchors = (
{
name = bottom;
position = "{232, 0}";
},
{
name = cedi;
position = "{173, 0}";
},
{
name = top;
position = "{232, 520}";
}
);
background = {
paths = (
{
closed = 0;
nodes = (
"54 35 LINE",
"102 13 OFFCURVE",
"167 0 OFFCURVE",
"228 0 CURVE SMOOTH",
"343 0 OFFCURVE",
"408 47 OFFCURVE",
"408 130 CURVE SMOOTH",
"408 320 OFFCURVE",
"58 221 OFFCURVE",
"58 400 CURVE SMOOTH",
"58 476 OFFCURVE",
"120 520 OFFCURVE",
"228 520 CURVE SMOOTH",
"287 520 OFFCURVE",
"361 507 OFFCURVE",
"398 490 CURVE"
);
}
);
};
layerId = "D65C9A1E-0FCA-4B2D-8EDF-9F36CA9182A1";
paths = (
{
closed = 1;
nodes = (
"348 -10 OFFCURVE",
"417 41 OFFCURVE",
"417 130 CURVE SMOOTH",
"417 234 OFFCURVE",
"320 258 OFFCURVE",
"231 280 CURVE SMOOTH",
"145 301 OFFCURVE",
"68 320 OFFCURVE",
"68 400 CURVE SMOOTH",
"68 470 OFFCURVE",
"125 510 OFFCURVE",
"228 510 CURVE SMOOTH",
"286 510 OFFCURVE",
"358 497 OFFCURVE",
"393 481 CURVE",
"402 499 LINE",
"363 517 OFFCURVE",
"288 530 OFFCURVE",
"228 530 CURVE SMOOTH",
"114 530 OFFCURVE",
"48 482 OFFCURVE",
"47 400 CURVE SMOOTH",
"47 304 OFFCURVE",
"140 281 OFFCURVE",
"226 260 CURVE SMOOTH",
"315 239 OFFCURVE",
"398 219 OFFCURVE",
"398 130 CURVE SMOOTH",
"398 53 OFFCURVE",
"337 10 OFFCURVE",
"228 10 CURVE SMOOTH",
"167 10 OFFCURVE",
"104 23 OFFCURVE",
"58 44 CURVE",
"49 26 LINE",
"99 3 OFFCURVE",
"165 -10 OFFCURVE",
"228 -10 CURVE SMOOTH"
);
}
);
width = 464;
},
{
anchors = (
{
name = bottom;
position = "{248, 0}";
},
{
name = cedi;
position = "{186, 0}";
},
{
name = top;
position = "{248, 520}";
}
);
layerId = "9527F797-22C1-480E-A1FE-2CDBEBE1FD4C";
paths = (
{
closed = 1;
nodes = (
"383 -10 OFFCURVE",
"459 45 OFFCURVE",
"459 143 CURVE SMOOTH",
"459 229 OFFCURVE",
"400 279 OFFCURVE",
"258 311 CURVE SMOOTH",
"173 333 OFFCURVE",
"149 348 OFFCURVE",
"149 382 CURVE SMOOTH",
"149 422 OFFCURVE",
"183 440 OFFCURVE",
"259 440 CURVE SMOOTH",
"316 440 OFFCURVE",
"374 430 OFFCURVE",
"428 410 CURVE",
"443 499 LINE",
"387 518 OFFCURVE",
"311 530 OFFCURVE",
"246 530 CURVE SMOOTH",
"112 530 OFFCURVE",
"39 479 OFFCURVE",
"39 385 CURVE SMOOTH",
"39 301 OFFCURVE",
"94 255 OFFCURVE",
"236 221 CURVE SMOOTH",
"324 200 OFFCURVE",
"349 183 OFFCURVE",
"349 146 CURVE SMOOTH",
"349 101 OFFCURVE",
"313 80 OFFCURVE",
"235 80 CURVE SMOOTH",
"175 80 OFFCURVE",
"114 92 OFFCURVE",
"56 116 CURVE",
"41 27 LINE",
"98 4 OFFCURVE",
"179 -10 OFFCURVE",
"248 -10 CURVE SMOOTH"
);
}
);
width = 498;
},
{
anchors = (
{
name = bottom;
position = "{264, 0}";
},
{
name = cedi;
position = "{199, 0}";
},
{
name = top;
position = "{264, 520}";
}
);
layerId = "9E6B41AB-2970-4C41-8B35-4DBE0D296A43";
paths = (
{
closed = 1;
nodes = (
"409 -10 OFFCURVE",
"500 54 OFFCURVE",
"500 155 CURVE SMOOTH",
"500 244 OFFCURVE",
"432 299 OFFCURVE",
"285 331 CURVE SMOOTH",
"245 342 OFFCURVE",
"230 351 OFFCURVE",
"230 367 CURVE SMOOTH",
"230 384 OFFCURVE",
"245 390 OFFCURVE",
"290 390 CURVE SMOOTH",
"347 390 OFFCURVE",
"392 381 OFFCURVE",
"463 359 CURVE",
"483 499 LINE",
"410 519 OFFCURVE",
"330 530 OFFCURVE",
"263 530 CURVE SMOOTH",
"110 530 OFFCURVE",
"30 475 OFFCURVE",
"30 370 CURVE SMOOTH",
"30 277 OFFCURVE",
"88 229 OFFCURVE",
"246 191 CURVE SMOOTH",
"290 179 OFFCURVE",
"300 172 OFFCURVE",
"300 157 CURVE SMOOTH",
"300 137 OFFCURVE",
"284 130 OFFCURVE",
"241 130 CURVE SMOOTH",
"182 130 OFFCURVE",
"126 141 OFFCURVE",
"53 167 CURVE",
"33 27 LINE",
"102 2 OFFCURVE",
"180 -10 OFFCURVE",
"268 -10 CURVE SMOOTH"
);
}
);
width = 530;
}
);
leftKerningGroup = s;
leftMetricsKey = "=h*.5";
rightKerningGroup = s;
rightMetricsKey = "=|";
unicode = 0073;
},
{
color = 11;
glyphname = germandbls;
lastChange = "2021-01-24 11:31:25 +0000";
layers = (
{
layerId = "D65C9A1E-0FCA-4B2D-8EDF-9F36CA9182A1";
rightMetricsKey = "=X*.7";
paths = (
{
closed = 1;
nodes = (
"461 -10 OFFCURVE",
"535 57 OFFCURVE",
"535 160 CURVE SMOOTH",
"535 224 OFFCURVE",
"510 264 OFFCURVE",
"407 360 CURVE SMOOTH",
"365 400 OFFCURVE",
"355 411 OFFCURVE",
"355 420 CURVE SMOOTH",
"355 427 OFFCURVE",
"361 436 OFFCURVE",
"394 473 CURVE SMOOTH",
"463 548 OFFCURVE",
"485 588 OFFCURVE",
"485 640 CURVE SMOOTH",
"485 719 OFFCURVE",
"419 760 OFFCURVE",
"295 760 CURVE SMOOTH",
"147 760 OFFCURVE",
"95 706 OFFCURVE",
"95 555 CURVE SMOOTH",
"95 0 LINE",
"115 0 LINE",
"115 555 LINE SMOOTH",
"115 696 OFFCURVE",
"159 740 OFFCURVE",
"295 740 CURVE SMOOTH",
"409 740 OFFCURVE",
"465 706 OFFCURVE",
"465 640 CURVE SMOOTH",
"465 594 OFFCURVE",
"446 559 OFFCURVE",
"379 486 CURVE SMOOTH",
"349 453 OFFCURVE",
"335 436 OFFCURVE",
"335 420 CURVE SMOOTH",
"335 401 OFFCURVE",
"353 383 OFFCURVE",
"393 345 CURVE SMOOTH",
"491 252 OFFCURVE",
"515 218 OFFCURVE",
"515 160 CURVE SMOOTH",
"515 69 OFFCURVE",
"451 10 OFFCURVE",
"350 10 CURVE SMOOTH",
"308 10 OFFCURVE",
"244 20 OFFCURVE",
"193 35 CURVE",
"187 15 LINE",
"242 0 OFFCURVE",
"306 -10 OFFCURVE",
"350 -10 CURVE SMOOTH"
);
}
);
width = 584;
},
{
layerId = "9527F797-22C1-480E-A1FE-2CDBEBE1FD4C";
rightMetricsKey = "=X*.9";
paths = (
{
closed = 1;
nodes = (
"496 -10 OFFCURVE",
"569 51 OFFCURVE",
"569 153 CURVE SMOOTH",
"569 207 OFFCURVE",
"547 247 OFFCURVE",
"475 324 CURVE SMOOTH",
"429 373 OFFCURVE",
"419 386 OFFCURVE",
"419 398 CURVE SMOOTH",
"419 408 OFFCURVE",
"429 424 OFFCURVE",
"463 469 CURVE SMOOTH",
"518 541 OFFCURVE",
"534 574 OFFCURVE",
"534 615 CURVE SMOOTH",
"534 707 OFFCURVE",
"451 760 OFFCURVE",
"308 760 CURVE SMOOTH",
"148 760 OFFCURVE",
"77 692 OFFCURVE",
"77 538 CURVE SMOOTH",
"77 0 LINE",
"185 0 LINE",
"185 537 LINE SMOOTH",
"185 637 OFFCURVE",
"214 665 OFFCURVE",
"313 665 CURVE SMOOTH",
"392 665 OFFCURVE",
"428 647 OFFCURVE",
"428 609 CURVE SMOOTH",
"428 583 OFFCURVE",
"412 555 OFFCURVE",
"358 489 CURVE SMOOTH",
"319 440 OFFCURVE",
"308 420 OFFCURVE",
"308 398 CURVE SMOOTH",
"308 372 OFFCURVE",
"324 345 OFFCURVE",
"366 300 CURVE SMOOTH",
"448 214 OFFCURVE",
"463 193 OFFCURVE",
"463 164 CURVE SMOOTH",
"463 116 OFFCURVE",
"422 85 OFFCURVE",
"358 85 CURVE SMOOTH",
"329 85 OFFCURVE",
"291 92 OFFCURVE",
"255 103 CURVE",
"240 8 LINE",
"288 -4 OFFCURVE",
"337 -10 OFFCURVE",
"375 -10 CURVE SMOOTH"
);
}
);
width = 610;
},
{
layerId = "9E6B41AB-2970-4C41-8B35-4DBE0D296A43";
rightMetricsKey = "=X*1.1";
paths = (
{
closed = 1;
nodes = (
"529 -10 OFFCURVE",
"604 47 OFFCURVE",
"604 145 CURVE SMOOTH",
"604 192 OFFCURVE",
"587 232 OFFCURVE",
"544 288 CURVE SMOOTH",
"513 327 OFFCURVE",
"490 365 OFFCURVE",
"490 377 CURVE SMOOTH",
"490 386 OFFCURVE",
"502 407 OFFCURVE",
"540 465 CURVE SMOOTH",
"576 521 OFFCURVE",
"590 556 OFFCURVE",
"590 590 CURVE SMOOTH",
"590 691 OFFCURVE",
"481 760 OFFCURVE",
"320 760 CURVE SMOOTH",
"142 760 OFFCURVE",
"59 684 OFFCURVE",
"59 520 CURVE SMOOTH",
"59 0 LINE",
"255 0 LINE",
"255 513 LINE SMOOTH",
"255 586 OFFCURVE",
"267 600 OFFCURVE",
"330 600 CURVE SMOOTH",
"378 600 OFFCURVE",
"400 590 OFFCURVE",
"400 568 CURVE SMOOTH",
"400 547 OFFCURVE",
"381 510 OFFCURVE",
"352 474 CURVE SMOOTH",
"313 425 OFFCURVE",
"300 400 OFFCURVE",
"300 375 CURVE SMOOTH",
"300 351 OFFCURVE",
"312 330 OFFCURVE",
"354 274 CURVE SMOOTH",
"396 218 OFFCURVE",
"408 196 OFFCURVE",
"408 177 CURVE SMOOTH",
"408 156 OFFCURVE",
"393 145 OFFCURVE",
"365 145 CURVE SMOOTH",
"351 145 OFFCURVE",
"331 148 OFFCURVE",
"305 155 CURVE",
"295 0 LINE",
"339 -7 OFFCURVE",
"371 -10 OFFCURVE",
"400 -10 CURVE SMOOTH"
);
}
);
width = 636;
}
);
leftKerningGroup = h;
leftMetricsKey = "=b";
rightKerningGroup = X;
rightMetricsKey = "=X*1.1";
unicode = 00DF;
},
{
color = 10;
glyphname = t;
lastChange = "2021-01-25 12:30:56 +0000";
layers = (
{
anchors = (
{
name = bottom;
position = "{243, 0}";
},
{
name = cedi;
position = "{251, 0}";
},
{
name = center;
position = "{243, 260}";
},
{
name = top;
position = "{243, 520}";
},
{
name = topright;
position = "{430, 520}";
}
);
layerId = "D65C9A1E-0FCA-4B2D-8EDF-9F36CA9182A1";
leftMetricsKey = "=f*1.4";
rightMetricsKey = "=c*.6";
paths = (
{
closed = 1;
nodes = (
"356 -10 OFFCURVE",
"386 -6 OFFCURVE",
"419 5 CURVE",
"413 24 LINE",
"384 14 OFFCURVE",
"356 10 OFFCURVE",
"323 10 CURVE SMOOTH",
"231 10 OFFCURVE",
"200 43 OFFCURVE",
"200 140 CURVE SMOOTH",
"200 500 LINE",
"416 500 LINE",
"416 520 LINE",
"200 520 LINE",
"200 690 LINE",
"180 690 LINE",
"180 520 LINE",
"39 520 LINE",
"39 500 LINE",
"180 500 LINE",
"180 140 LINE SMOOTH",
"180 32 OFFCURVE",
"220 -10 OFFCURVE",
"323 -10 CURVE SMOOTH"
);
}
);
width = 465;
},
{
anchors = (
{
name = bottom;
position = "{241, 0}";
},
{
name = cedi;
position = "{225, 0}";
},
{
name = center;
position = "{241, 260}";
},
{
name = top;
position = "{241, 520}";
},
{
name = topright;
position = "{460, 520}";
}
);
layerId = "9527F797-22C1-480E-A1FE-2CDBEBE1FD4C";
rightMetricsKey = "=c*.8";
paths = (
{
closed = 1;
nodes = (
"347 -10 OFFCURVE",
"385 -5 OFFCURVE",
"428 8 CURVE",
"418 100 LINE",
"392 91 OFFCURVE",
"360 85 OFFCURVE",
"329 85 CURVE SMOOTH",
"267 85 OFFCURVE",
"247 109 OFFCURVE",
"247 180 CURVE SMOOTH",
"247 430 LINE",
"428 430 LINE",
"428 520 LINE",
"247 520 LINE",
"247 690 LINE",
"138 690 LINE",
"138 520 LINE",
"18 520 LINE",
"18 430 LINE",
"138 430 LINE",
"138 150 LINE SMOOTH",
"138 36 OFFCURVE",
"187 -10 OFFCURVE",
"307 -10 CURVE SMOOTH"
);
}
);
width = 478;
},
{
anchors = (
{
name = bottom;
position = "{254, 0}";
},
{
name = cedi;
position = "{214, 0}";
},
{
name = center;
position = "{254, 260}";
},
{
name = top;
position = "{254, 520}";
},
{
name = topright;
position = "{506, 520}";
}
);
layerId = "9E6B41AB-2970-4C41-8B35-4DBE0D296A43";
leftMetricsKey = "=f*.8";
rightMetricsKey = "=c*1";
paths = (
{
closed = 1;
nodes = (
"355 -10 OFFCURVE",
"397 -4 OFFCURVE",
"451 10 CURVE",
"436 155 LINE",
"409 146 OFFCURVE",
"374 140 OFFCURVE",
"351 140 CURVE SMOOTH",
"318 140 OFFCURVE",
"309 153 OFFCURVE",
"309 200 CURVE SMOOTH",
"309 380 LINE",
"454 380 LINE",
"454 520 LINE",
"309 520 LINE",
"309 690 LINE",
"111 690 LINE",
"111 520 LINE",
"14 520 LINE",
"14 380 LINE",
"111 380 LINE",
"111 160 LINE SMOOTH",
"111 39 OFFCURVE",
"169 -10 OFFCURVE",
"306 -10 CURVE SMOOTH"
);
}
);
width = 501;
}
);
leftKerningGroup = f;
leftMetricsKey = "=f*.8";
rightKerningGroup = c;
rightMetricsKey = "=c*1.2";
unicode = 0074;
},
{
color = 11;
glyphname = tbar;
lastChange = "2020-12-09 07:59:53 +0000";
layers = (
{
components = (
{
name = t;
}
);
layerId = "D65C9A1E-0FCA-4B2D-8EDF-9F36CA9182A1";
paths = (
{
closed = 1;
nodes = (
"375 240 LINE",
"375 260 LINE",
"35 260 LINE",
"35 240 LINE"
);
}
);
width = 421;
},
{
components = (
{
alignment = -1;
name = t;
}
);
layerId = "9527F797-22C1-480E-A1FE-2CDBEBE1FD4C";
paths = (
{
closed = 1;
nodes = (
"418 210 LINE",
"418 300 LINE",
"18 300 LINE",
"18 210 LINE"
);
}
);
width = 473;
},
{
components = (
{
name = t;
}
);
layerId = "9E6B41AB-2970-4C41-8B35-4DBE0D296A43";
paths = (
{
closed = 1;
nodes = (
"474 190 LINE",
"474 330 LINE",
"14 330 LINE",
"14 190 LINE"
);
}
);
width = 525;
}
);
leftKerningGroup = f;
rightKerningGroup = c;
unicode = 0167;
},
{
color = 10;
glyphname = u;
lastChange = "2021-01-25 12:46:53 +0000";
layers = (
{
anchors = (
{
name = bottom;
position = "{280, 0}";
},
{
name = ogonek;
position = "{476, 0}";
},
{
name = top;
position = "{280, 520}";
},
{
name = top_ring;
position = "{280, 540}";
},
{
name = topright;
position = "{476, 480}";
}
);
layerId = "D65C9A1E-0FCA-4B2D-8EDF-9F36CA9182A1";
paths = (
{
closed = 1;
nodes = (
"344 -10 OFFCURVE",
"418 33 OFFCURVE",
"454 108 CURVE",
"456 108 LINE",
"456 0 LINE",
"476 0 LINE",
"476 520 LINE",
"456 520 LINE",
"456 200 LINE SMOOTH",
"456 88 OFFCURVE",
"372 10 OFFCURVE",
"251 10 CURVE SMOOTH",
"146 10 OFFCURVE",
"96 70 OFFCURVE",
"96 200 CURVE SMOOTH",
"96 520 LINE",
"76 520 LINE",
"76 200 LINE SMOOTH",
"76 59 OFFCURVE",
"134 -10 OFFCURVE",
"251 -10 CURVE SMOOTH"
);
}
);
width = 571;
},
{
anchors = (
{
name = bottom;
position = "{296, 0}";
},
{
name = ogonek;
position = "{522, 0}";
},
{
name = top;
position = "{296, 520}";
},
{
name = top_ring;
position = "{296, 540}";
},
{
name = topright;
position = "{507, 480}";
}
);
layerId = "9527F797-22C1-480E-A1FE-2CDBEBE1FD4C";
paths = (
{
closed = 1;
nodes = (
"320 -10 OFFCURVE",
"375 14 OFFCURVE",
"416 62 CURVE",
"418 62 LINE",
"419 0 LINE",
"522 0 LINE",
"522 520 LINE",
"414 520 LINE",
"414 210 LINE SMOOTH",
"414 135 OFFCURVE",
"355 80 OFFCURVE",
"274 80 CURVE SMOOTH",
"202 80 OFFCURVE",
"170 124 OFFCURVE",
"170 220 CURVE SMOOTH",
"170 520 LINE",
"62 520 LINE",
"62 200 LINE SMOOTH",
"62 56 OFFCURVE",
"119 -10 OFFCURVE",
"244 -10 CURVE SMOOTH"
);
}
);
width = 599;
},
{
anchors = (
{
name = bottom;
position = "{310, 0}";
},
{
name = ogonek;
position = "{567, 0}";
},
{
name = top;
position = "{310, 520}";
},
{
name = top_ring;
position = "{310, 540}";
},
{
name = topright;
position = "{537, 480}";
}
);
layerId = "9E6B41AB-2970-4C41-8B35-4DBE0D296A43";
paths = (
{
closed = 1;
nodes = (
"284 -10 OFFCURVE",
"332 11 OFFCURVE",
"377 60 CURVE",
"379 60 LINE",
"381 0 LINE",
"567 0 LINE",
"567 520 LINE",
"371 520 LINE",
"371 220 LINE SMOOTH",
"371 180 OFFCURVE",
"340 150 OFFCURVE",
"297 150 CURVE SMOOTH",
"258 150 OFFCURVE",
"243 175 OFFCURVE",
"243 240 CURVE SMOOTH",
"243 520 LINE",
"47 520 LINE",
"47 200 LINE SMOOTH",
"47 54 OFFCURVE",
"99 -10 OFFCURVE",
"217 -10 CURVE SMOOTH"
);
}
);
width = 626;
},
{
anchors = (
{
name = bottom;
position = "{284, 0}";
},
{
name = ogonek;
position = "{489, 0}";
},
{
name = top;
position = "{284, 520}";
},
{
name = top_ring;
position = "{284, 540}";
},
{
name = topright;
position = "{485, 480}";
}
);
associatedMasterId = "D65C9A1E-0FCA-4B2D-8EDF-9F36CA9182A1";
layerId = "245D3822-9188-491B-8A3B-367571E408B0";
name = "Light {232}";
paths = (
{
closed = 1;
nodes = (
"332 -10 OFFCURVE",
"402 23 OFFCURVE",
"439 79 CURVE",
"441 79 LINE",
"441 0 LINE",
"490 0 LINE",
"490 520 LINE",
"441 520 LINE",
"441 204 LINE SMOOTH",
"441 104 OFFCURVE",
"365 33 OFFCURVE",
"257 33 CURVE SMOOTH",
"163 33 OFFCURVE",
"119 88 OFFCURVE",
"119 207 CURVE SMOOTH",
"119 520 LINE",
"70 520 LINE",
"70 200 LINE SMOOTH",
"70 57 OFFCURVE",
"126 -10 OFFCURVE",
"247 -10 CURVE SMOOTH"
);
}
);
width = 578;
}
);
leftKerningGroup = u;
leftMetricsKey = "=|n";
rightKerningGroup = u;
rightMetricsKey = "=|n";
unicode = 0075;
},
{
color = 10;
glyphname = v;
lastChange = "2021-01-26 06:25:36 +0000";
layers = (
{
layerId = "D65C9A1E-0FCA-4B2D-8EDF-9F36CA9182A1";
paths = (
{
closed = 1;
nodes = (
"265 0 LINE",
"485 520 LINE",
"463 520 LINE",
"251 17 LINE",
"249 17 LINE",
"37 520 LINE",
"15 520 LINE",
"235 0 LINE"
);
}
);
width = 500;
},
{
layerId = "9527F797-22C1-480E-A1FE-2CDBEBE1FD4C";
paths = (
{
closed = 1;
nodes = (
"345 0 LINE",
"529 520 LINE",
"411 520 LINE",
"270 78 LINE",
"268 78 LINE",
"127 520 LINE",
"9 520 LINE",
"193 0 LINE"
);
}
);
width = 538;
},
{
layerId = "9E6B41AB-2970-4C41-8B35-4DBE0D296A43";
paths = (
{
closed = 1;
nodes = (
"427 0 LINE",
"575 520 LINE",
"373 520 LINE",
"291 120 LINE",
"289 120 LINE",
"207 520 LINE",
"5 520 LINE",
"153 0 LINE"
);
}
);
width = 580;
}
);
leftKerningGroup = v;
leftMetricsKey = "=|k*.4";
rightKerningGroup = v;
rightMetricsKey = "=|";
unicode = 0076;
},
{
color = 10;
glyphname = w;
lastChange = "2021-01-26 06:25:26 +0000";
layers = (
{
anchors = (
{
name = bottom;
position = "{370, 0}";
},
{
name = top;
position = "{370, 520}";
}
);
layerId = "D65C9A1E-0FCA-4B2D-8EDF-9F36CA9182A1";
leftMetricsKey = "=v*2";
paths = (
{
closed = 1;
nodes = (
"220 0 LINE",
"369 499 LINE",
"371 499 LINE",
"520 0 LINE",
"550 0 LINE",
"710 520 LINE",
"689 520 LINE",
"536 21 LINE",
"534 21 LINE",
"385 520 LINE",
"355 520 LINE",
"206 21 LINE",
"204 21 LINE",
"51 520 LINE",
"30 520 LINE",
"190 0 LINE"
);
}
);
width = 740;
},
{
anchors = (
{
name = bottom;
position = "{392, 0}";
},
{
name = top;
position = "{392, 520}";
}
);
layerId = "9527F797-22C1-480E-A1FE-2CDBEBE1FD4C";
leftMetricsKey = "=v*2.4";
paths = (
{
closed = 1;
nodes = (
"302 0 LINE",
"391 405 LINE",
"393 405 LINE",
"482 0 LINE",
"622 0 LINE",
"762 520 LINE",
"644 520 LINE",
"556 105 LINE",
"554 105 LINE",
"465 520 LINE",
"319 520 LINE",
"230 105 LINE",
"228 105 LINE",
"140 520 LINE",
"22 520 LINE",
"162 0 LINE"
);
}
);
width = 784;
},
{
anchors = (
{
name = bottom;
position = "{414, 0}";
},
{
name = top;
position = "{414, 520}";
}
);
layerId = "9E6B41AB-2970-4C41-8B35-4DBE0D296A43";
leftMetricsKey = "=v*2.8";
paths = (
{
closed = 1;
nodes = (
"369 0 LINE",
"413 350 LINE",
"415 350 LINE",
"459 0 LINE",
"694 0 LINE",
"814 520 LINE",
"620 520 LINE",
"580 170 LINE",
"578 170 LINE",
"532 520 LINE",
"296 520 LINE",
"250 170 LINE",
"248 170 LINE",
"208 520 LINE",
"14 520 LINE",
"134 0 LINE"
);
}
);
width = 828;
}
);
leftKerningGroup = v;
leftMetricsKey = "=v*2.8";
rightKerningGroup = v;
rightMetricsKey = "=|";
unicode = 0077;
},
{
color = 10;
glyphname = x;
lastChange = "2021-01-26 06:29:47 +0000";
layers = (
{
layerId = "D65C9A1E-0FCA-4B2D-8EDF-9F36CA9182A1";
leftMetricsKey = "=|k";
paths = (
{
closed = 1;
nodes = (
"64 0 LINE",
"257 247 LINE",
"259 247 LINE",
"452 0 LINE",
"478 0 LINE",
"271 263 LINE",
"473 520 LINE",
"447 520 LINE",
"259 279 LINE",
"257 279 LINE",
"69 520 LINE",
"43 520 LINE",
"245 263 LINE",
"38 0 LINE"
);
}
);
width = 516;
},
{
layerId = "9527F797-22C1-480E-A1FE-2CDBEBE1FD4C";
leftMetricsKey = "=|k*1.4";
paths = (
{
closed = 1;
nodes = (
"156 0 LINE",
"276 204 LINE",
"278 204 LINE",
"398 0 LINE",
"522 0 LINE",
"351 262 LINE",
"520 520 LINE",
"396 520 LINE",
"278 320 LINE",
"276 320 LINE",
"158 520 LINE",
"34 520 LINE",
"203 262 LINE",
"32 0 LINE"
);
}
);
width = 554;
},
{
layerId = "9E6B41AB-2970-4C41-8B35-4DBE0D296A43";
leftMetricsKey = "=|k*1.8";
paths = (
{
closed = 1;
nodes = (
"224 0 LINE",
"291 160 LINE",
"293 160 LINE",
"360 0 LINE",
"562 0 LINE",
"427 260 LINE",
"562 520 LINE",
"360 520 LINE",
"293 360 LINE",
"291 360 LINE",
"224 520 LINE",
"22 520 LINE",
"157 260 LINE",
"22 0 LINE"
);
}
);
width = 584;
}
);
leftKerningGroup = x;
leftMetricsKey = "=|k*1.8";
rightKerningGroup = x;
rightMetricsKey = "=|";
unicode = 0078;
},
{
color = 10;
glyphname = y;
lastChange = "2021-01-26 06:41:06 +0000";
layers = (
{
anchors = (
{
name = bottom;
position = "{255, 0}";
},
{
name = dotR;
position = "{277, -210}";
},
{
name = top;
position = "{255, 520}";
}
);
layerId = "D65C9A1E-0FCA-4B2D-8EDF-9F36CA9182A1";
leftMetricsKey = "=v*1.6";
rightMetricsKey = "=v";
paths = (
{
closed = 1;
nodes = (
"161 -210 LINE",
"494 520 LINE",
"472 520 LINE",
"251 35 LINE",
"249 35 LINE",
"45 520 LINE",
"24 518 LINE",
"239 9 LINE",
"139 -210 LINE"
);
}
);
width = 509;
},
{
anchors = (
{
name = bottom;
position = "{271, 0}";
},
{
name = dotR;
position = "{349, -210}";
},
{
name = top;
position = "{271, 520}";
}
);
layerId = "9527F797-22C1-480E-A1FE-2CDBEBE1FD4C";
leftMetricsKey = "=v*.9";
paths = (
{
closed = 1;
nodes = (
"240 -210 LINE",
"538 520 LINE",
"422 520 LINE",
"271 118 LINE",
"269 118 LINE",
"124 520 LINE",
"8 519 LINE",
"216 5 LINE",
"126 -210 LINE"
);
}
);
width = 543;
},
{
anchors = (
{
name = bottom;
position = "{296, 0}";
},
{
name = dotR;
position = "{430, -210}";
},
{
name = top;
position = "{296, 520}";
}
);
layerId = "9E6B41AB-2970-4C41-8B35-4DBE0D296A43";
leftMetricsKey = "=v*.2";
rightMetricsKey = "=v*.2";
paths = (
{
closed = 1;
nodes = (
"329 -210 LINE",
"591 520 LINE",
"381 520 LINE",
"301 170 LINE",
"299 170 LINE",
"211 520 LINE",
"1 520 LINE",
"202 0 LINE",
"124 -210 LINE"
);
}
);
width = 592;
}
);
leftKerningGroup = v;
leftMetricsKey = "=v*.2";
rightKerningGroup = v;
rightMetricsKey = "=v*.6";
unicode = 0079;
},
{
color = 10;
glyphname = z;
lastChange = "2021-01-26 06:43:29 +0000";
layers = (
{
anchors = (
{
name = bottom;
position = "{252, 0}";
},
{
name = center;
position = "{252, 260}";
},
{
name = top;
position = "{252, 520}";
}
);
layerId = "D65C9A1E-0FCA-4B2D-8EDF-9F36CA9182A1";
leftMetricsKey = "=h*.6";
paths = (
{
closed = 1;
nodes = (
"447 0 LINE",
"447 20 LINE",
"84 20 LINE",
"84 22 LINE",
"447 500 LINE",
"447 520 LINE",
"57 520 LINE",
"57 500 LINE",
"420 500 LINE",
"420 498 LINE",
"57 20 LINE",
"57 0 LINE"
);
}
);
width = 504;
},
{
anchors = (
{
name = bottom;
position = "{273, 0}";
},
{
name = center;
position = "{273, 260}";
},
{
name = top;
position = "{273, 520}";
}
);
layerId = "9527F797-22C1-480E-A1FE-2CDBEBE1FD4C";
leftMetricsKey = "=h*.75";
paths = (
{
closed = 1;
nodes = (
"488 0 LINE",
"488 90 LINE",
"199 90 LINE",
"199 92 LINE",
"488 430 LINE",
"488 520 LINE",
"58 520 LINE",
"58 430 LINE",
"347 430 LINE",
"347 428 LINE",
"58 90 LINE",
"58 0 LINE"
);
}
);
width = 546;
},
{
anchors = (
{
name = bottom;
position = "{288, 0}";
},
{
name = center;
position = "{288, 260}";
},
{
name = top;
position = "{288, 520}";
}
);
layerId = "9E6B41AB-2970-4C41-8B35-4DBE0D296A43";
leftMetricsKey = "=h*.9";
paths = (
{
closed = 1;
nodes = (
"523 0 LINE",
"523 140 LINE",
"300 140 LINE",
"300 142 LINE",
"523 380 LINE",
"523 520 LINE",
"53 520 LINE",
"53 380 LINE",
"276 380 LINE",
"276 378 LINE",
"53 140 LINE",
"53 0 LINE"
);
}
);
width = 576;
}
);
leftKerningGroup = z;
leftMetricsKey = "=h*.9";
rightKerningGroup = z;
rightMetricsKey = "=|";
unicode = 007A;
},
{
color = 9;
glyphname = a.001;
lastChange = "2021-01-24 11:31:24 +0000";
layers = (
{
anchors = (
{
name = bottom;
position = "{254, 0}";
},
{
name = ogonek;
position = "{458, 0}";
},
{
name = top;
position = "{254, 520}";
}
);
layerId = "D65C9A1E-0FCA-4B2D-8EDF-9F36CA9182A1";
paths = (
{
closed = 1;
nodes = (
"318 -10 OFFCURVE",
"399 40 OFFCURVE",
"436 116 CURVE",
"438 116 LINE",
"438 0 LINE",
"458 0 LINE",
"458 330 LINE SMOOTH",
"458 477 OFFCURVE",
"409 530 OFFCURVE",
"271 530 CURVE SMOOTH",
"193 530 OFFCURVE",
"119 513 OFFCURVE",
"51 480 CURVE",
"60 462 LINE",
"125 494 OFFCURVE",
"196 510 OFFCURVE",
"271 510 CURVE SMOOTH",
"397 510 OFFCURVE",
"438 465 OFFCURVE",
"438 325 CURVE",
"339 325 LINE SMOOTH",
"144 325 OFFCURVE",
"38 262 OFFCURVE",
"38 145 CURVE SMOOTH",
"38 50 OFFCURVE",
"108 -10 OFFCURVE",
"218 -10 CURVE SMOOTH"
);
},
{
closed = 1;
nodes = (
"118 10 OFFCURVE",
"58 62 OFFCURVE",
"58 145 CURVE SMOOTH",
"58 249 OFFCURVE",
"154 305 OFFCURVE",
"339 305 CURVE SMOOTH",
"438 305 LINE",
"438 210 LINE SMOOTH",
"438 95 OFFCURVE",
"344 10 OFFCURVE",
"218 10 CURVE SMOOTH"
);
}
);
width = 534;
},
{
anchors = (
{
name = bottom;
position = "{267, 0}";
},
{
name = ogonek;
position = "{494, 0}";
},
{
name = top;
position = "{267, 520}";
}
);
layerId = "9527F797-22C1-480E-A1FE-2CDBEBE1FD4C";
paths = (
{
closed = 1;
nodes = (
"274 -10 OFFCURVE",
"351 21 OFFCURVE",
"388 68 CURVE",
"390 68 LINE",
"391 0 LINE",
"494 0 LINE",
"494 325 LINE SMOOTH",
"494 475 OFFCURVE",
"438 530 OFFCURVE",
"286 530 CURVE SMOOTH",
"201 530 OFFCURVE",
"116 515 OFFCURVE",
"45 486 CURVE",
"60 397 LINE",
"123 424 OFFCURVE",
"202 440 OFFCURVE",
"272 440 CURVE SMOOTH",
"358 440 OFFCURVE",
"386 415 OFFCURVE",
"386 338 CURVE",
"309 338 LINE SMOOTH",
"126 338 OFFCURVE",
"31 273 OFFCURVE",
"31 148 CURVE SMOOTH",
"31 51 OFFCURVE",
"95 -10 OFFCURVE",
"199 -10 CURVE SMOOTH"
);
},
{
closed = 1;
nodes = (
"174 78 OFFCURVE",
"139 107 OFFCURVE",
"139 158 CURVE SMOOTH",
"139 224 OFFCURVE",
"200 256 OFFCURVE",
"324 256 CURVE SMOOTH",
"386 256 LINE",
"386 203 LINE SMOOTH",
"386 131 OFFCURVE",
"323 78 OFFCURVE",
"237 78 CURVE SMOOTH"
);
}
);
width = 556;
},
{
anchors = (
{
name = bottom;
position = "{280, 0}";
},
{
name = ogonek;
position = "{529, 0}";
},
{
name = top;
position = "{280, 520}";
}
);
layerId = "9E6B41AB-2970-4C41-8B35-4DBE0D296A43";
paths = (
{
closed = 1;
nodes = (
"241 -10 OFFCURVE",
"300 16 OFFCURVE",
"339 60 CURVE",
"341 60 LINE",
"343 0 LINE",
"529 0 LINE",
"529 320 LINE SMOOTH",
"529 473 OFFCURVE",
"467 530 OFFCURVE",
"300 530 CURVE SMOOTH",
"208 530 OFFCURVE",
"112 516 OFFCURVE",
"39 491 CURVE",
"59 351 LINE",
"125 375 OFFCURVE",
"208 390 OFFCURVE",
"273 390 CURVE SMOOTH",
"323 390 OFFCURVE",
"333 380 OFFCURVE",
"333 330 CURVE",
"279 330 LINE SMOOTH",
"116 330 OFFCURVE",
"24 265 OFFCURVE",
"24 150 CURVE SMOOTH",
"24 53 OFFCURVE",
"85 -10 OFFCURVE",
"179 -10 CURVE SMOOTH"
);
},
{
closed = 1;
nodes = (
"219 125 OFFCURVE",
"200 141 OFFCURVE",
"200 170 CURVE SMOOTH",
"200 208 OFFCURVE",
"233 225 OFFCURVE",
"309 225 CURVE SMOOTH",
"333 225 LINE",
"333 195 LINE SMOOTH",
"333 153 OFFCURVE",
"302 125 OFFCURVE",
"255 125 CURVE SMOOTH"
);
}
);
width = 576;
},
{
anchors = (
{
name = bottom;
position = "{257, 0}";
},
{
name = ogonek;
position = "{469, 0}";
},
{
name = top;
position = "{257, 520}";
}
);
associatedMasterId = "D65C9A1E-0FCA-4B2D-8EDF-9F36CA9182A1";
layerId = "37E9DD48-F59F-412B-917A-B9493104890B";
name = "Light {232}";
paths = (
{
closed = 1;
nodes = (
"299 -10 OFFCURVE",
"382 30 OFFCURVE",
"419 90 CURVE",
"421 90 LINE",
"421 0 LINE",
"469 0 LINE",
"469 328 LINE SMOOTH",
"469 476 OFFCURVE",
"418 530 OFFCURVE",
"275 530 CURVE SMOOTH",
"195 530 OFFCURVE",
"117 514 OFFCURVE",
"48 482 CURVE",
"59 441 LINE",
"123 471 OFFCURVE",
"197 487 OFFCURVE",
"270 487 CURVE SMOOTH",
"383 487 OFFCURVE",
"420 449 OFFCURVE",
"420 329 CURVE",
"328 329 LINE SMOOTH",
"137 329 OFFCURVE",
"35 266 OFFCURVE",
"35 146 CURVE SMOOTH",
"35 49 OFFCURVE",
"102 -10 OFFCURVE",
"211 -10 CURVE SMOOTH"
);
},
{
closed = 1;
nodes = (
"135 32 OFFCURVE",
"84 77 OFFCURVE",
"84 149 CURVE SMOOTH",
"84 241 OFFCURVE",
"168 289 OFFCURVE",
"333 289 CURVE SMOOTH",
"420 289 LINE",
"420 208 LINE SMOOTH",
"420 107 OFFCURVE",
"336 32 OFFCURVE",
"223 32 CURVE SMOOTH"
);
}
);
width = 539;
}
);
leftKerningGroup = a;
leftMetricsKey = "=h*.4";
rightKerningGroup = h;
rightMetricsKey = "=h";
},
{
color = 9;
glyphname = b.001;
lastChange = "2021-01-24 11:31:24 +0000";
layers = (
{
layerId = "9527F797-22C1-480E-A1FE-2CDBEBE1FD4C";
paths = (
{
closed = 1;
nodes = (
"494 -10 OFFCURVE",
"574 88 OFFCURVE",
"574 260 CURVE SMOOTH",
"574 432 OFFCURVE",
"494 530 OFFCURVE",
"354 530 CURVE SMOOTH",
"280 530 OFFCURVE",
"227 503 OFFCURVE",
"187 452 CURVE",
"185 452 LINE",
"185 730 LINE",
"77 730 LINE",
"77 0 LINE",
"180 0 LINE",
"181 68 LINE",
"183 68 LINE",
"227 16 OFFCURVE",
"281 -10 OFFCURVE",
"354 -10 CURVE SMOOTH"
);
},
{
closed = 1;
nodes = (
"238 80 OFFCURVE",
"185 146 OFFCURVE",
"185 240 CURVE SMOOTH",
"185 280 LINE SMOOTH",
"185 374 OFFCURVE",
"238 440 OFFCURVE",
"327 440 CURVE SMOOTH",
"416 440 OFFCURVE",
"467 375 OFFCURVE",
"467 260 CURVE SMOOTH",
"467 145 OFFCURVE",
"416 80 OFFCURVE",
"327 80 CURVE SMOOTH"
);
}
);
width = 613;
},
{
layerId = "9E6B41AB-2970-4C41-8B35-4DBE0D296A43";
paths = (
{
closed = 1;
nodes = (
"544 -10 OFFCURVE",
"619 87 OFFCURVE",
"619 260 CURVE SMOOTH",
"619 433 OFFCURVE",
"544 530 OFFCURVE",
"410 530 CURVE SMOOTH",
"346 530 OFFCURVE",
"301 508 OFFCURVE",
"257 460 CURVE",
"255 460 LINE",
"255 730 LINE",
"59 730 LINE",
"59 0 LINE",
"245 0 LINE",
"247 60 LINE",
"249 60 LINE",
"298 12 OFFCURVE",
"346 -10 OFFCURVE",
"410 -10 CURVE SMOOTH"
);
},
{
closed = 1;
nodes = (
"281 140 OFFCURVE",
"255 177 OFFCURVE",
"255 240 CURVE SMOOTH",
"255 280 LINE SMOOTH",
"255 343 OFFCURVE",
"281 380 OFFCURVE",
"339 380 CURVE SMOOTH",
"399 380 OFFCURVE",
"427 341 OFFCURVE",
"427 260 CURVE SMOOTH",
"427 179 OFFCURVE",
"399 140 OFFCURVE",
"339 140 CURVE SMOOTH"
);
}
);
width = 648;
},
{
associatedMasterId = "D65C9A1E-0FCA-4B2D-8EDF-9F36CA9182A1";
background = {
paths = (
{
closed = 1;
nodes = (
"455 -10 OFFCURVE",
"529 87 OFFCURVE",
"529 260 CURVE SMOOTH",
"529 433 OFFCURVE",
"455 530 OFFCURVE",
"325 530 CURVE SMOOTH",
"244 530 OFFCURVE",
"173 492 OFFCURVE",
"139 430 CURVE",
"137 430 LINE",
"137 730 LINE",
"88 730 LINE",
"88 0 LINE",
"135 0 LINE",
"135 90 LINE",
"137 90 LINE",
"173 28 OFFCURVE",
"244 -10 OFFCURVE",
"325 -10 CURVE SMOOTH"
);
},
{
closed = 1;
nodes = (
"210 33 OFFCURVE",
"137 116 OFFCURVE",
"137 237 CURVE SMOOTH",
"137 283 LINE SMOOTH",
"137 404 OFFCURVE",
"210 487 OFFCURVE",
"317 487 CURVE SMOOTH",
"422 487 OFFCURVE",
"480 407 OFFCURVE",
"480 260 CURVE SMOOTH",
"480 113 OFFCURVE",
"422 33 OFFCURVE",
"317 33 CURVE SMOOTH"
);
}
);
};
layerId = "4577C09C-2268-4FDD-969E-4BC558CAFA0A";
name = "Light {232}";
paths = (
{
closed = 1;
nodes = (
"465 -10 OFFCURVE",
"543 88 OFFCURVE",
"543 260 CURVE SMOOTH",
"543 432 OFFCURVE",
"465 530 OFFCURVE",
"327 530 CURVE SMOOTH",
"244 530 OFFCURVE",
"175 494 OFFCURVE",
"139 430 CURVE",
"137 430 LINE",
"137 730 LINE",
"88 730 LINE",
"88 0 LINE",
"135 0 LINE",
"135 90 LINE",
"137 90 LINE",
"175 26 OFFCURVE",
"243 -10 OFFCURVE",
"327 -10 CURVE SMOOTH"
);
},
{
closed = 1;
nodes = (
"207 33 OFFCURVE",
"137 115 OFFCURVE",
"137 237 CURVE SMOOTH",
"137 283 LINE SMOOTH",
"137 405 OFFCURVE",
"207 487 OFFCURVE",
"318 487 CURVE SMOOTH",
"429 487 OFFCURVE",
"494 404 OFFCURVE",
"494 260 CURVE SMOOTH",
"494 116 OFFCURVE",
"429 33 OFFCURVE",
"318 33 CURVE SMOOTH"
);
}
);
width = 588;
},
{
layerId = "D65C9A1E-0FCA-4B2D-8EDF-9F36CA9182A1";
paths = (
{
closed = 1;
nodes = (
"450 -10 OFFCURVE",
"529 91 OFFCURVE",
"529 260 CURVE SMOOTH",
"529 429 OFFCURVE",
"450 530 OFFCURVE",
"315 530 CURVE SMOOTH",
"222 530 OFFCURVE",
"151 481 OFFCURVE",
"117 400 CURVE",
"115 400 LINE",
"115 730 LINE",
"95 730 LINE",
"95 0 LINE",
"115 0 LINE",
"115 120 LINE",
"117 120 LINE",
"151 39 OFFCURVE",
"222 -10 OFFCURVE",
"315 -10 CURVE SMOOTH"
);
},
{
closed = 1;
nodes = (
"193 10 OFFCURVE",
"115 100 OFFCURVE",
"115 235 CURVE SMOOTH",
"115 285 LINE SMOOTH",
"115 420 OFFCURVE",
"193 510 OFFCURVE",
"315 510 CURVE SMOOTH",
"438 510 OFFCURVE",
"509 419 OFFCURVE",
"509 260 CURVE SMOOTH",
"509 101 OFFCURVE",
"438 10 OFFCURVE",
"315 10 CURVE SMOOTH"
);
}
);
width = 577;
}
);
leftKerningGroup = b;
leftMetricsKey = "=h";
rightKerningGroup = o;
rightMetricsKey = "=o";
},
{
color = 9;
glyphname = c.001;
lastChange = "2021-01-24 11:31:24 +0000";
layers = (
{
anchors = (
{
name = bottom;
position = "{290, 0}";
},
{
name = cedi;
position = "{243, 0}";
},
{
name = top;
position = "{290, 520}";
}
);
layerId = "9527F797-22C1-480E-A1FE-2CDBEBE1FD4C";
paths = (
{
closed = 1;
nodes = (
"382 -10 OFFCURVE",
"434 2 OFFCURVE",
"486 27 CURVE",
"467 116 LINE",
"419 91 OFFCURVE",
"375 80 OFFCURVE",
"328 80 CURVE SMOOTH",
"215 80 OFFCURVE",
"149 147 OFFCURVE",
"149 260 CURVE SMOOTH",
"149 374 OFFCURVE",
"215 440 OFFCURVE",
"328 440 CURVE SMOOTH",
"375 440 OFFCURVE",
"419 429 OFFCURVE",
"467 404 CURVE",
"486 493 LINE",
"434 518 OFFCURVE",
"382 530 OFFCURVE",
"320 530 CURVE SMOOTH",
"142 530 OFFCURVE",
"39 430 OFFCURVE",
"39 260 CURVE SMOOTH",
"39 90 OFFCURVE",
"142 -10 OFFCURVE",
"320 -10 CURVE SMOOTH"
);
}
);
width = 548;
},
{
anchors = (
{
name = bottom;
position = "{299, 0}";
},
{
name = cedi;
position = "{230, 0}";
},
{
name = top;
position = "{299, 520}";
}
);
layerId = "9E6B41AB-2970-4C41-8B35-4DBE0D296A43";
paths = (
{
closed = 1;
nodes = (
"400 -10 OFFCURVE",
"458 3 OFFCURVE",
"514 30 CURVE",
"484 170 LINE",
"436 144 OFFCURVE",
"387 130 OFFCURVE",
"344 130 CURVE SMOOTH",
"268 130 OFFCURVE",
"229 174 OFFCURVE",
"229 260 CURVE SMOOTH",
"229 346 OFFCURVE",
"268 390 OFFCURVE",
"344 390 CURVE SMOOTH",
"387 390 OFFCURVE",
"436 376 OFFCURVE",
"484 350 CURVE",
"514 490 LINE",
"458 517 OFFCURVE",
"400 530 OFFCURVE",
"329 530 CURVE SMOOTH",
"135 530 OFFCURVE",
"29 434 OFFCURVE",
"29 260 CURVE SMOOTH",
"29 86 OFFCURVE",
"135 -10 OFFCURVE",
"329 -10 CURVE SMOOTH"
);
}
);
width = 561;
},
{
anchors = (
{
name = bottom;
position = "{280, 0}";
},
{
name = cedi;
position = "{255, 0}";
},
{
name = top;
position = "{280, 520}";
}
);
layerId = "D65C9A1E-0FCA-4B2D-8EDF-9F36CA9182A1";
paths = (
{
closed = 1;
nodes = (
"364 -10 OFFCURVE",
"410 1 OFFCURVE",
"458 25 CURVE",
"449 43 LINE",
"404 20 OFFCURVE",
"361 10 OFFCURVE",
"311 10 CURVE SMOOTH",
"160 10 OFFCURVE",
"68 105 OFFCURVE",
"68 260 CURVE SMOOTH",
"68 415 OFFCURVE",
"160 510 OFFCURVE",
"311 510 CURVE SMOOTH",
"361 510 OFFCURVE",
"404 500 OFFCURVE",
"449 477 CURVE",
"458 495 LINE",
"410 519 OFFCURVE",
"364 530 OFFCURVE",
"311 530 CURVE SMOOTH",
"149 530 OFFCURVE",
"48 426 OFFCURVE",
"48 260 CURVE SMOOTH",
"48 94 OFFCURVE",
"149 -10 OFFCURVE",
"311 -10 CURVE SMOOTH"
);
}
);
width = 534;
}
);
leftKerningGroup = o;
leftMetricsKey = "=o";
rightKerningGroup = c;
rightMetricsKey = "=h";
},
{
color = 9;
glyphname = e.001;
lastChange = "2021-01-23 09:26:03 +0000";
layers = (
{
anchors = (
{
name = bottom;
position = "{269, 0}";
},
{
name = ogonek;
position = "{468, 30}";
},
{
name = top;
position = "{269, 520}";
}
);
layerId = "D65C9A1E-0FCA-4B2D-8EDF-9F36CA9182A1";
paths = (
{
closed = 1;
nodes = (
"354 -10 OFFCURVE",
"417 4 OFFCURVE",
"468 30 CURVE",
"459 48 LINE",
"412 24 OFFCURVE",
"352 10 OFFCURVE",
"294 10 CURVE SMOOTH",
"148 10 OFFCURVE",
"68 97 OFFCURVE",
"68 260 CURVE",
"68 260 LINE",
"68 419 OFFCURVE",
"145 510 OFFCURVE",
"278 510 CURVE SMOOTH",
"402 510 OFFCURVE",
"468 427 OFFCURVE",
"468 268 CURVE",
"478 278 LINE",
"58 278 LINE",
"58 258 LINE",
"488 258 LINE",
"488 263 OFFCURVE",
"488 263 OFFCURVE",
"488 268 CURVE SMOOTH",
"488 437 OFFCURVE",
"414 530 OFFCURVE",
"278 530 CURVE SMOOTH",
"133 530 OFFCURVE",
"48 429 OFFCURVE",
"48 260 CURVE SMOOTH",
"48 87 OFFCURVE",
"136 -10 OFFCURVE",
"294 -10 CURVE SMOOTH"
);
}
);
width = 534;
},
{
anchors = (
{
name = bottom;
position = "{284, 0}";
},
{
name = ogonek;
position = "{499, 24}";
},
{
name = top;
position = "{284, 520}";
}
);
background = {
anchors = (
{
name = bottom;
position = "{284, 0}";
},
{
name = ogonek;
position = "{499, 24}";
},
{
name = top;
position = "{284, 520}";
}
);
paths = (
{
closed = 1;
nodes = (
"381 -10 OFFCURVE",
"450 3 OFFCURVE",
"499 24 CURVE",
"484 113 LINE",
"437 93 OFFCURVE",
"370 80 OFFCURVE",
"313 80 CURVE SMOOTH",
"201 80 OFFCURVE",
"145 134 OFFCURVE",
"145 240 CURVE",
"145 270 LINE",
"145 393 OFFCURVE",
"195 458 OFFCURVE",
"289 458 CURVE SMOOTH",
"378 458 OFFCURVE",
"423 397 OFFCURVE",
"423 274 CURVE",
"439 297 LINE",
"99 297 LINE",
"99 229 LINE",
"522 229 LINE",
"523 237 OFFCURVE",
"524 255 OFFCURVE",
"524 269 CURVE SMOOTH",
"524 436 OFFCURVE",
"439 530 OFFCURVE",
"289 530 CURVE SMOOTH",
"132 530 OFFCURVE",
"39 429 OFFCURVE",
"39 260 CURVE SMOOTH",
"39 87 OFFCURVE",
"138 -10 OFFCURVE",
"317 -10 CURVE SMOOTH"
);
}
);
};
layerId = "9527F797-22C1-480E-A1FE-2CDBEBE1FD4C";
paths = (
{
closed = 1;
nodes = (
"381 -10 OFFCURVE",
"450 3 OFFCURVE",
"499 24 CURVE",
"484 113 LINE",
"437 93 OFFCURVE",
"370 80 OFFCURVE",
"313 80 CURVE SMOOTH",
"201 80 OFFCURVE",
"145 134 OFFCURVE",
"145 240 CURVE SMOOTH",
"145 270 LINE",
"145 383 OFFCURVE",
"194 442 OFFCURVE",
"286 442 CURVE SMOOTH",
"377 442 OFFCURVE",
"423 385 OFFCURVE",
"423 270 CURVE",
"439 300 LINE",
"99 300 LINE",
"99 215 LINE",
"522 215 LINE",
"523 223 OFFCURVE",
"524 248 OFFCURVE",
"524 265 CURVE SMOOTH",
"524 434 OFFCURVE",
"438 530 OFFCURVE",
"286 530 CURVE SMOOTH",
"132 530 OFFCURVE",
"39 429 OFFCURVE",
"39 260 CURVE SMOOTH",
"39 87 OFFCURVE",
"138 -10 OFFCURVE",
"317 -10 CURVE SMOOTH"
);
}
);
width = 561;
},
{
anchors = (
{
name = bottom;
position = "{299, 0}";
},
{
name = ogonek;
position = "{529, 18}";
},
{
name = top;
position = "{299, 520}";
}
);
layerId = "9E6B41AB-2970-4C41-8B35-4DBE0D296A43";
paths = (
{
closed = 1;
nodes = (
"408 -10 OFFCURVE",
"482 1 OFFCURVE",
"529 18 CURVE",
"509 158 LINE",
"462 142 OFFCURVE",
"388 130 OFFCURVE",
"331 130 CURVE SMOOTH",
"253 130 OFFCURVE",
"221 156 OFFCURVE",
"221 220 CURVE SMOOTH",
"221 280 LINE SMOOTH",
"221 367 OFFCURVE",
"245 405 OFFCURVE",
"299 405 CURVE SMOOTH",
"353 405 OFFCURVE",
"377 367 OFFCURVE",
"377 280 CURVE",
"400 315 LINE",
"139 315 LINE",
"139 200 LINE",
"555 200 LINE",
"557 211 OFFCURVE",
"559 246 OFFCURVE",
"559 270 CURVE SMOOTH",
"559 434 OFFCURVE",
"463 530 OFFCURVE",
"299 530 CURVE SMOOTH",
"131 530 OFFCURVE",
"29 428 OFFCURVE",
"29 260 CURVE SMOOTH",
"29 86 OFFCURVE",
"139 -10 OFFCURVE",
"339 -10 CURVE SMOOTH"
);
}
);
width = 587;
}
);
leftKerningGroup = o;
leftMetricsKey = "=o";
rightKerningGroup = o;
rightMetricsKey = "=o*.95";
},
{
color = 9;
glyphname = f.001;
lastChange = "2021-01-25 12:10:14 +0000";
layers = (
{
background = {
paths = (
{
closed = 1;
nodes = (
"270 0 LINE",
"270 430 LINE",
"432 430 LINE",
"432 520 LINE",
"270 520 LINE",
"270 585 LINE",
"270 651 OFFCURVE",
"293 677 OFFCURVE",
"351 677 CURVE",
"374 677 OFFCURVE",
"391 673 OFFCURVE",
"421 663 CURVE SMOOTH",
"436 755 LINE SMOOTH",
"403 765 OFFCURVE",
"367 770 OFFCURVE",
"334 770 CURVE",
"219 770 OFFCURVE",
"161 708 OFFCURVE",
"161 585 CURVE",
"161 520 LINE",
"23 520 LINE",
"23 430 LINE",
"161 430 LINE",
"161 0 LINE"
);
}
);
};
layerId = "9527F797-22C1-480E-A1FE-2CDBEBE1FD4C";
paths = (
{
closed = 1;
nodes = (
"279 0 LINE",
"279 430 LINE",
"453 430 LINE",
"453 520 LINE",
"279 520 LINE",
"279 585 LINE SMOOTH",
"279 652 OFFCURVE",
"303 677 OFFCURVE",
"368 677 CURVE SMOOTH",
"394 677 OFFCURVE",
"416 673 OFFCURVE",
"443 665 CURVE",
"457 755 LINE",
"419 766 OFFCURVE",
"383 770 OFFCURVE",
"351 770 CURVE SMOOTH",
"231 770 OFFCURVE",
"170 708 OFFCURVE",
"170 585 CURVE SMOOTH",
"170 520 LINE",
"23 520 LINE",
"23 430 LINE",
"170 430 LINE",
"170 0 LINE"
);
}
);
width = 480;
},
{
layerId = "9E6B41AB-2970-4C41-8B35-4DBE0D296A43";
paths = (
{
closed = 1;
nodes = (
"336 0 LINE",
"336 380 LINE",
"481 380 LINE",
"481 520 LINE",
"336 520 LINE",
"336 550 LINE",
"336 605 OFFCURVE",
"348 620 OFFCURVE",
"391 620 CURVE",
"413 620 OFFCURVE",
"439 616 OFFCURVE",
"466 610 CURVE SMOOTH",
"486 755 LINE SMOOTH",
"440 765 OFFCURVE",
"392 770 OFFCURVE",
"356 770 CURVE",
"214 770 OFFCURVE",
"138 693 OFFCURVE",
"138 550 CURVE",
"138 520 LINE",
"18 520 LINE",
"18 380 LINE",
"138 380 LINE",
"138 0 LINE"
);
}
);
width = 504;
},
{
layerId = "D65C9A1E-0FCA-4B2D-8EDF-9F36CA9182A1";
paths = (
{
closed = 1;
nodes = (
"223 0 LINE",
"223 500 LINE",
"427 500 LINE",
"427 520 LINE",
"223 520 LINE",
"223 620 LINE SMOOTH",
"223 711 OFFCURVE",
"260 750 OFFCURVE",
"347 750 CURVE SMOOTH",
"374 750 OFFCURVE",
"395 746 OFFCURVE",
"422 736 CURVE",
"429 755 LINE",
"399 766 OFFCURVE",
"375 770 OFFCURVE",
"347 770 CURVE SMOOTH",
"249 770 OFFCURVE",
"203 722 OFFCURVE",
"203 620 CURVE SMOOTH",
"203 520 LINE",
"29 520 LINE",
"29 500 LINE",
"203 500 LINE",
"203 0 LINE"
);
}
);
width = 458;
}
);
leftKerningGroup = f;
leftMetricsKey = "=h*.3";
rightKerningGroup = f;
rightMetricsKey = "=d*.3";
},
